<?xml version="1.0" encoding="iso-8859-1"?>
<!-- Generator: Adobe Illustrator 19.0.0, SVG Export Plug-In . SVG Version: 6.00 Build 0)  -->
<svg version="1.1" id="Capa_1" xmlns="http://www.w3.org/2000/svg" xmlns:xlink="http://www.w3.org/1999/xlink" x="0px" y="0px"
	 viewBox="0 0 512 512" style="enable-background:new 0 0 512 512;" xml:space="preserve">
<path style="fill:#A47C64;" d="M81.929,501.747l-0.154,0.257c-1.246-0.793-2.481-1.637-3.706-2.532
	c-25.797-18.9-25.21-43.626-25.375-60.209c0.175-128.623,88.271-218.489,210.377-257.503c27.351-8.74,77.76-28.319,125.555-74.044
	c0.093-0.093,0.185-0.185,0.278-0.278c30.058-32.56,47.898-58.789,53.786-100.448c0.566-3.994,3.984-6.979,8.04-6.99v49.583
	l-47.527,95.08L187.03,289.088L81.929,501.747z"/>
<path style="fill:#825B43;" d="M458.883,7.607c3.181,48.176-11.838,84.204-36.883,125.792
	c-56.658,83.412-115.879,107.757-163.231,137.898c2.821,11.529-7.422,32.344-25.951,50.801
	c-12.631,12.6-26.363,21.339-37.491,24.736c-6.156,1.884-11.087,6.578-13.351,12.59c-10.767,28.535-11.231,60.065-6.918,78.285
	c12.291,51.923-47.414,93.438-93.284,64.296l0.154-0.257c-0.278-5.332-0.504-12.085-0.504-19.939
	c0-53.673,10.603-158.959,87.344-217.82c66.993-51.377,150.662-57.687,204.88-109.6c0,0,76.402-76.68,77.081-154.389h0.01
	C455.043,0,458.605,3.325,458.883,7.607z"/>
<g>
	<path style="fill:#5F422F;" d="M143.636,512c-3.644,0-6.886-2.591-7.58-6.302c-21.966-117.436,2.088-157.935,3.123-159.601
		c2.249-3.623,7.009-4.736,10.632-2.487c3.601,2.236,4.722,6.952,2.527,10.566c-0.409,0.71-21.627,38.966-1.104,148.684
		c0.784,4.191-1.977,8.224-6.169,9.008C144.585,511.957,144.107,512,143.636,512z"/>
	<path style="fill:#5F422F;" d="M227.537,275.792c-2.825,0-5.544-1.555-6.902-4.25c-1.918-3.808-0.385-8.449,3.423-10.367
		c16.26-8.19,29.495-8.433,37.268-0.69c3.02,3.01,3.028,7.898,0.02,10.918c-3.01,3.02-7.899,3.028-10.919,0.02
		c-1.673-1.666-8.225-2.098-19.424,3.542C229.89,275.526,228.705,275.792,227.537,275.792z"/>
	<path style="fill:#5F422F;" d="M200.576,317.586c-2.059,0-4.112-0.818-5.632-2.438c-2.917-3.11-2.762-7.996,0.348-10.914
		l16.67-15.639c3.11-2.916,7.996-2.761,10.913,0.348c2.917,3.11,2.762,7.996-0.348,10.914l-16.67,15.639
		C204.366,316.893,202.469,317.586,200.576,317.586z"/>
</g>
<path style="fill:#A47C64;" d="M305.661,46.36c-14.125-2.7-28.951-3.673-45.144-2.613c-4.292,0.281-7.635,3.828-7.631,8.114
	c0.004,4.041,2.997,7.46,7.013,8.024c19.592,2.75,35.784,8.113,50.822,16.12l13.787-14.694L305.661,46.36z"/>
<path style="fill:#825B43;" d="M375.509,119.586c-30.068-32.566-47.9-58.791-53.788-100.451c-0.565-4.002-3.997-6.984-8.053-6.988
	l0,0c-4.301-0.004-7.86,3.328-8.143,7.604c-3.154,47.841,11.626,83.7,36.352,124.913h8.553
	C364.282,144.663,375.509,133.435,375.509,119.586L375.509,119.586z"/>
<g>
</g>
<g>
</g>
<g>
</g>
<g>
</g>
<g>
</g>
<g>
</g>
<g>
</g>
<g>
</g>
<g>
</g>
<g>
</g>
<g>
</g>
<g>
</g>
<g>
</g>
<g>
</g>
<g>
</g>
</svg>
