<svg width="82" height="82" viewBox="0 0 82 82" fill="none" xmlns="http://www.w3.org/2000/svg">
<circle cx="41" cy="41" r="41" fill="#DAAD6C" fill-opacity="0.6"/>
<path d="M49.8454 66.7871L54.0513 44.2285H27.9487L32.1546 66.7871H49.8454Z" fill="#DEECF1"/>
<path d="M41 66.7871H49.8454L54.0513 44.2285H41V66.7871Z" fill="#C6E2E7"/>
<path d="M53.0135 44.0457L51.6284 51.4746H47.8033L48.6185 44.3417L46.5221 44.1152L45.681 51.4746H42.0547V44.2285H39.9453V51.4746H36.319L35.4779 44.1153L33.3815 44.3418L34.1966 51.4746H30.3715L28.9865 44.0457L26.9108 44.4114L31.1168 66.97L33.1924 66.6043L31.901 59.6777H35.1342L35.9596 66.9003L38.0561 66.6738L37.2565 59.6777H39.9453V66.7871H42.0547V59.6777H44.7435L43.9439 66.6739L46.0403 66.9004L46.8658 59.6777H50.099L48.8075 66.6043L50.8832 66.97L55.0891 44.4114L53.0135 44.0457ZM31.5186 57.627L30.7539 53.5254H34.431L34.8998 57.627H31.5186ZM37.0221 57.627L36.5533 53.5254H39.9453V57.627H37.0221ZM42.0547 57.627V53.5254H45.4466L44.9778 57.627H42.0547ZM47.1002 57.627L47.569 53.5254H51.2461L50.4814 57.627H47.1002Z" fill="#A8D3D8"/>
<path d="M51.6284 51.4746H47.8034L48.6186 44.3417L46.5221 44.1152L45.681 51.4746H42.0547V44.2285H41V66.7871H42.0547V59.6777H44.7435L43.9439 66.6739L46.0404 66.9004L46.8658 59.6777H50.099L48.8076 66.6043L50.8832 66.97L55.0891 44.4114L53.0135 44.0457L51.6284 51.4746ZM44.9779 57.627H42.0547V53.5254H45.4466L44.9779 57.627ZM50.4814 57.627H47.1002L47.569 53.5254H51.2461L50.4814 57.627Z" fill="#8EBAC5"/>
<path d="M37.5486 35.3014L37.219 35H36.3445L29.7075 41.4528L31.1988 42.9027L36.7905 43.6187L41.7498 39.4L37.5486 35.3014Z" fill="#A8D3D8"/>
<path d="M52.2851 41.4599H38.1524L41 38.6914L44.7757 35H45.6618L45.9781 35.3075L52.2851 41.4599Z" fill="#DEECF1"/>
<path d="M52.2851 41.4599H41V38.6914L44.7757 35H45.6618L45.9781 35.3075L52.2851 41.4599Z" fill="#C6E2E7"/>
<path d="M51.1461 65.7617L50.4922 70H31.5078L30.8539 65.7617H51.1461Z" fill="#825B43"/>
<path d="M41 65.7617H51.1461L50.4922 70H41V65.7617Z" fill="#BB7C56"/>
<path d="M56.8203 41.1523H25.1797V45.2539H56.8203V41.1523Z" fill="#825B43"/>
<path d="M56.8203 41.1523H41V45.2539H56.8203V41.1523Z" fill="#BB7C56"/>
</svg>
