<svg width="325" height="315" viewBox="0 0 325 315" fill="none" xmlns="http://www.w3.org/2000/svg">
<path d="M41.2176 14.9091C41.2176 8.89879 37.4179 5.5696 32.5351 5.5696C27.6345 5.5696 23.8614 8.89879 23.8614 14.9091C23.8614 20.8928 27.6345 24.2486 32.5351 24.2486C37.4179 24.2486 41.2176 20.9194 41.2176 14.9091ZM36.7254 14.9091C36.7254 18.4691 35.1629 20.3956 32.5351 20.3956C29.9161 20.3956 28.3447 18.4691 28.3447 14.9091C28.3447 11.3491 29.9161 9.42258 32.5351 9.42258C35.1629 9.42258 36.7254 11.3491 36.7254 14.9091ZM43.7833 24H47.8405V13.6839H51.9864V24H56.0969V10.3636H43.7833V24ZM65.2211 24.2575C68.7988 24.2575 71.1515 22.5263 71.6486 19.8452L67.6625 19.7298C67.3251 20.6353 66.4373 21.1236 65.301 21.1236C63.6319 21.1236 62.6021 20.0138 62.6021 18.3448V18.2294H71.693V17.1463C71.693 12.6541 68.9586 10.1861 65.0879 10.1861C60.9686 10.1861 58.323 13.0092 58.323 17.2351C58.323 21.603 60.9331 24.2575 65.2211 24.2575ZM62.6021 15.7081C62.6642 14.3498 63.7385 13.32 65.1767 13.32C66.606 13.32 67.6358 14.3143 67.6536 15.7081H62.6021ZM73.9102 29.1136H78.2515V21.7894H78.3403C78.8907 23.0501 80.1159 24.1953 82.1755 24.1953C85.194 24.1953 87.6265 21.8338 87.6265 17.1907C87.6265 12.3789 85.0519 10.1861 82.2021 10.1861C80.0448 10.1861 78.8641 11.4467 78.3403 12.6985H78.2071V10.3636H73.9102V29.1136ZM78.1627 17.1818C78.1627 14.9535 79.086 13.5774 80.6752 13.5774C82.282 13.5774 83.1698 14.989 83.1698 17.1818C83.1698 19.3835 82.282 20.8129 80.6752 20.8129C79.086 20.8129 78.1627 19.3924 78.1627 17.1818ZM93.7456 24.2308C95.6454 24.2308 96.9593 23.494 97.7051 22.1001H97.8116V24H101.895V14.7315C101.895 11.8462 99.3297 10.1861 95.8585 10.1861C92.1919 10.1861 90.1145 12.0327 89.7683 14.5185L93.7722 14.6605C93.9586 13.7905 94.6777 13.2578 95.823 13.2578C96.8883 13.2578 97.563 13.7727 97.563 14.6871V14.7315C97.563 15.5661 96.6575 15.7436 94.3315 15.9478C91.5705 16.1786 89.2623 17.1996 89.2623 20.218C89.2623 22.9169 91.1355 24.2308 93.7456 24.2308ZM95.0861 21.3899C94.0829 21.3899 93.3727 20.9105 93.3727 20.005C93.3727 19.1261 94.0652 18.5934 95.2992 18.407C96.1071 18.2915 97.1014 18.114 97.5897 17.8565V19.1527C97.5897 20.4844 96.4711 21.3899 95.0861 21.3899ZM116.872 10.3636H112.815V20.6797H108.669V10.3636H104.559V24H116.872V28.3768H121.063V21.168H116.872V10.3636ZM127.191 18.3803V10.3636H123.08V24H127.262L131.612 15.9567V24H135.722V10.3636H131.55L127.191 18.3803ZM146.404 24H150.444V10.3636H144.203C140.474 10.3636 138.121 12.2635 138.148 14.9801C138.13 16.587 139.062 17.8743 140.687 18.6112L137.882 24H141.948L144.407 19.2859H146.404V24ZM146.404 16.5337H144.238C142.898 16.5337 142.241 15.8679 142.259 15.1222C142.241 14.4031 142.889 13.6751 144.203 13.6751H146.404V16.5337ZM158.456 24H165.257C168.879 24 170.858 22.6683 170.858 20.2536C170.858 18.5756 169.509 17.0664 166.739 16.9155C168.834 16.5604 170.024 15.4862 170.024 14.0746C170.024 11.6509 167.858 10.3636 164.342 10.3636H158.456V24ZM162.496 20.8572V18.2915H165.257C166.171 18.2915 166.739 18.7976 166.739 19.6232C166.739 20.3956 166.171 20.8572 165.257 20.8572H162.496ZM162.496 15.9389V13.5863H164.342C165.345 13.5863 165.967 14.0302 165.967 14.7493C165.967 15.495 165.399 15.9389 164.458 15.9389H162.496ZM179.372 24.2575C183.208 24.2575 185.587 22.0291 185.702 18.6555H181.645C181.485 20.1026 180.615 20.8928 179.426 20.8928C177.899 20.8928 176.904 19.6055 176.904 17.1818C176.904 14.7759 177.907 13.4886 179.426 13.4886C180.669 13.4886 181.476 14.332 181.645 15.7259H185.702C185.605 12.37 183.154 10.1861 179.363 10.1861C175.075 10.1861 172.483 13.0447 172.483 17.2262C172.483 21.3899 175.058 24.2575 179.372 24.2575ZM187.061 13.6839H191.366V24H195.486V13.6839H199.845V10.3636H187.061V13.6839ZM205.342 24.2308C207.242 24.2308 208.556 23.494 209.302 22.1001H209.408V24H213.492V14.7315C213.492 11.8462 210.926 10.1861 207.455 10.1861C203.789 10.1861 201.711 12.0327 201.365 14.5185L205.369 14.6605C205.555 13.7905 206.274 13.2578 207.42 13.2578C208.485 13.2578 209.16 13.7727 209.16 14.6871V14.7315C209.16 15.5661 208.254 15.7436 205.928 15.9478C203.167 16.1786 200.859 17.1996 200.859 20.218C200.859 22.9169 202.732 24.2308 205.342 24.2308ZM206.683 21.3899C205.68 21.3899 204.969 20.9105 204.969 20.005C204.969 19.1261 205.662 18.5934 206.896 18.407C207.704 18.2915 208.698 18.114 209.186 17.8565V19.1527C209.186 20.4844 208.068 21.3899 206.683 21.3899ZM216.147 24H222.947C226.569 24 228.549 22.6683 228.549 20.2536C228.549 18.5756 227.199 17.0664 224.43 16.9155C226.525 16.5604 227.714 15.4862 227.714 14.0746C227.714 11.6509 225.548 10.3636 222.033 10.3636H216.147V24ZM220.186 20.8572V18.2915H222.947C223.861 18.2915 224.43 18.7976 224.43 19.6232C224.43 20.3956 223.861 20.8572 222.947 20.8572H220.186ZM220.186 15.9389V13.5863H222.033C223.036 13.5863 223.657 14.0302 223.657 14.7493C223.657 15.495 223.089 15.9389 222.148 15.9389H220.186ZM230.697 24H235.039V19.4723H236.299L239.291 24H244.378L239.744 17.1907L244.334 10.3636H239.309L235.997 15.4418H235.039V10.3636H230.697V24ZM249.847 18.3803V10.3636H245.736V24H249.918L254.268 15.9567V24H258.378V10.3636H254.206L249.847 18.3803ZM267.374 14.9091C267.374 19.2947 268.528 22.9347 271.032 26.0952H275.24C273.331 23.7514 271.902 19.0994 271.902 14.9091C271.902 10.7099 273.331 6.05788 275.24 3.71413H271.032C268.528 6.87464 267.374 10.5146 267.374 14.9091ZM277.097 24H290.556V20.4577H283.188V20.3423L285.363 18.3359C289.304 14.9002 290.334 13.1513 290.334 11.065C290.334 7.78906 287.662 5.5696 283.534 5.5696C279.512 5.5696 276.822 7.88672 276.831 11.5888H280.995C280.995 9.94638 282.007 8.99645 283.516 8.99645C284.999 8.99645 286.073 9.91087 286.073 11.4112C286.073 12.7695 285.221 13.6928 283.729 15.0334L277.097 20.8395V24ZM300.08 14.9002C300.08 10.5146 298.926 6.87464 296.422 3.71413H292.214C294.123 6.05788 295.552 10.7099 295.552 14.9002C295.552 19.0994 294.123 23.7514 292.214 26.0952H296.422C298.926 22.9347 300.08 19.2947 300.08 14.9002Z" fill="black"/>
<path d="M10.9091 61H18.0227V59.75H12.3182V55.7955H17.5682V54.5455H12.3182V50.6136H17.9318V49.3636H10.9091V61ZM23.8352 61.1818C25.767 61.1818 27.0398 60 27.267 58.4545H25.9261C25.6761 59.4091 24.8807 59.9773 23.8352 59.9773C22.2443 59.9773 21.2216 58.6591 21.2216 56.6364C21.2216 54.6591 22.267 53.3636 23.8352 53.3636C25.017 53.3636 25.7216 54.0909 25.9261 54.8864H27.267C27.0398 53.25 25.6534 52.1591 23.8125 52.1591C21.4489 52.1591 19.8807 54.0227 19.8807 56.6818C19.8807 59.2955 21.3807 61.1818 23.8352 61.1818ZM28.4545 61H28.9091C30.8409 61 31.3977 59.5 31.5227 56.6364L31.6591 53.5227H34.8636V61H36.2045V52.2727H30.3864L30.2273 56.1364C30.1136 59.0682 29.8182 59.75 28.7727 59.75H28.4545V61ZM40.0057 59.0227V52.2727H38.6648V61H40.233L44.4148 54.25V61H45.7557V52.2727H44.2102L40.0057 59.0227ZM52.8935 61H54.3026V57.2273L55.7571 55.5909L59.8026 61H61.5071L56.6207 54.6136L61.5071 49.3636H59.6662L54.4389 55.1364H54.3026V49.3636H52.8935V61ZM68.0355 55.8182L75.3537 59.5455V58.0909L69.7855 55.4091V55.3182L75.3537 52.6364V51.1818L68.0355 54.9091V55.8182ZM83.5597 49.3636H81.9006L85.6506 55.1818L81.9006 61H83.5597L86.5597 56.25H86.6506L89.6506 61H91.3097L87.6506 55.1818L91.3097 49.3636H89.6506L86.6506 54.2045H86.5597L83.5597 49.3636ZM93.9389 59.5114C94.5014 59.5114 94.9616 59.0511 94.9616 58.4886C94.9616 57.9261 94.5014 57.4659 93.9389 57.4659C93.3764 57.4659 92.9162 57.9261 92.9162 58.4886C92.9162 59.0511 93.3764 59.5114 93.9389 59.5114ZM93.9389 53.625C94.5014 53.625 94.9616 53.1648 94.9616 52.6023C94.9616 52.0398 94.5014 51.5795 93.9389 51.5795C93.3764 51.5795 92.9162 52.0398 92.9162 52.6023C92.9162 53.1648 93.3764 53.625 93.9389 53.625Z" fill="black"/>
<path d="M9.5 269.682C10.8807 269.682 12 268.562 12 267.182C12 265.801 10.8807 264.682 9.5 264.682C8.11932 264.682 7 265.801 7 267.182C7 268.562 8.11932 269.682 9.5 269.682ZM19.9091 273H27.0227V271.75H21.3182V267.795H26.5682V266.545H21.3182V262.614H26.9318V261.364H19.9091V273ZM32.8352 273.182C34.767 273.182 36.0398 272 36.267 270.455H34.9261C34.6761 271.409 33.8807 271.977 32.8352 271.977C31.2443 271.977 30.2216 270.659 30.2216 268.636C30.2216 266.659 31.267 265.364 32.8352 265.364C34.017 265.364 34.7216 266.091 34.9261 266.886H36.267C36.0398 265.25 34.6534 264.159 32.8125 264.159C30.4489 264.159 28.8807 266.023 28.8807 268.682C28.8807 271.295 30.3807 273.182 32.8352 273.182ZM37.4545 273H37.9091C39.8409 273 40.3977 271.5 40.5227 268.636L40.6591 265.523H43.8636V273H45.2045V264.273H39.3864L39.2273 268.136C39.1136 271.068 38.8182 271.75 37.7727 271.75H37.4545V273ZM49.0057 271.023V264.273H47.6648V273H49.233L53.4148 266.25V273H54.7557V264.273H53.2102L49.0057 271.023ZM61.8935 273H63.3026V269.227L64.7571 267.591L68.8026 273H70.5071L65.6207 266.614L70.5071 261.364H68.6662L63.4389 267.136H63.3026V261.364H61.8935V273ZM77.1946 269.477H84.1946V268.25H77.1946V269.477ZM77.1946 266.114H84.1946V264.886H77.1946V266.114ZM92.5597 261.364H90.9006L94.6506 267.182L90.9006 273H92.5597L95.5597 268.25H95.6506L98.6506 273H100.31L96.6506 267.182L100.31 261.364H98.6506L95.6506 266.205H95.5597L92.5597 261.364ZM103.962 271.409H102.507L102.439 272.045C102.274 273.585 101.95 275.119 101.803 275.841H102.825C103.098 275.068 103.678 273.318 103.871 272.023L103.962 271.409ZM114.491 273.182C116.423 273.182 117.696 272 117.923 270.455H116.582C116.332 271.409 115.537 271.977 114.491 271.977C112.901 271.977 111.878 270.659 111.878 268.636C111.878 266.659 112.923 265.364 114.491 265.364C115.673 265.364 116.378 266.091 116.582 266.886H117.923C117.696 265.25 116.31 264.159 114.469 264.159C112.105 264.159 110.537 266.023 110.537 268.682C110.537 271.295 112.037 273.182 114.491 273.182ZM123.429 273.182C125.793 273.182 127.384 271.386 127.384 268.682C127.384 265.955 125.793 264.159 123.429 264.159C121.065 264.159 119.474 265.955 119.474 268.682C119.474 271.386 121.065 273.182 123.429 273.182ZM123.429 271.977C121.634 271.977 120.815 270.432 120.815 268.682C120.815 266.932 121.634 265.364 123.429 265.364C125.224 265.364 126.043 266.932 126.043 268.682C126.043 270.432 125.224 271.977 123.429 271.977ZM132.976 273.182C135.339 273.182 136.93 271.386 136.93 268.682C136.93 265.955 135.339 264.159 132.976 264.159C130.612 264.159 129.021 265.955 129.021 268.682C129.021 271.386 130.612 273.182 132.976 273.182ZM132.976 271.977C131.18 271.977 130.362 270.432 130.362 268.682C130.362 266.932 131.18 265.364 132.976 265.364C134.771 265.364 135.589 266.932 135.589 268.682C135.589 270.432 134.771 271.977 132.976 271.977ZM145.455 261C145.028 261.358 144.392 261.358 143.5 261.352C143.21 261.352 142.892 261.352 142.545 261.364C139.886 261.432 138.568 263.455 138.568 267.341V268.273C138.568 271.5 140.136 273.182 142.477 273.182C144.812 273.182 146.364 271.489 146.364 268.75C146.364 266 144.79 264.545 142.75 264.545C141.551 264.545 140.432 265.045 139.841 266.136H139.727C139.909 263.886 140.75 262.682 142.568 262.614C144.182 262.545 145.341 262.591 146.136 261.818L145.455 261ZM142.477 271.977C140.886 271.977 139.909 270.705 139.909 268.75C139.938 266.841 140.898 265.75 142.455 265.75C144.051 265.75 145.023 266.841 145.023 268.75C145.023 270.716 144.057 271.977 142.477 271.977ZM160.324 271.75H159.028V264.273H157.688V271.75H154.392V264.273H153.051V271.75H149.756V264.273H148.415V273H158.778V275.5H160.165L160.324 271.75ZM163.615 271.023V264.273H162.274V273H163.842L168.024 266.25V273H169.365V264.273H167.82L163.615 271.023ZM170.634 265.523H173.52V273H174.861V265.523H177.724V264.273H170.634V265.523ZM181.021 267.432V264.273H179.68V273H183.339C185.385 273 186.499 271.75 186.499 270.182C186.499 268.591 185.385 267.432 183.339 267.432H181.021ZM181.021 268.682H183.339C184.402 268.682 185.158 269.33 185.158 270.25C185.158 271.131 184.402 271.75 183.339 271.75H181.021V268.682ZM190.54 271.409H189.085L189.017 272.045C188.852 273.585 188.528 275.119 188.381 275.841H189.403C189.676 275.068 190.256 273.318 190.449 272.023L190.54 271.409ZM204.251 264.273H202.911V268.699C202.263 268.886 201.598 269 200.797 269C199.706 269 198.865 268.386 198.865 267.045V264.25H197.524V267.045C197.524 269.182 198.82 270.25 200.797 270.25C201.621 270.25 202.28 270.142 202.911 269.955V273H204.251V264.273ZM205.524 265.523H208.411V273H209.751V265.523H212.615V264.273H205.524V265.523ZM217.663 273.182C220.027 273.182 221.618 271.386 221.618 268.682C221.618 265.955 220.027 264.159 217.663 264.159C215.3 264.159 213.709 265.955 213.709 268.682C213.709 271.386 215.3 273.182 217.663 273.182ZM217.663 271.977C215.868 271.977 215.05 270.432 215.05 268.682C215.05 266.932 215.868 265.364 217.663 265.364C219.459 265.364 220.277 266.932 220.277 268.682C220.277 270.432 219.459 271.977 217.663 271.977ZM228.165 273H232.278C234.051 273 235.119 272 235.119 270.659C235.119 269.29 234.08 268.551 233.119 268.409C234.102 268.205 234.801 267.653 234.801 266.591C234.801 265.199 233.608 264.273 231.733 264.273H228.165V273ZM229.438 271.773V269.091H232.278C233.199 269.091 233.756 269.642 233.756 270.545C233.756 271.307 233.199 271.773 232.278 271.773H229.438ZM229.438 267.932V265.5H231.733C232.807 265.5 233.46 265.949 233.46 266.682C233.46 267.46 232.807 267.932 231.733 267.932H229.438ZM240.808 273.182C242.581 273.182 243.876 272.295 244.286 270.977L242.99 270.614C242.649 271.523 241.859 271.977 240.808 271.977C239.234 271.977 238.149 270.96 238.087 269.091H244.422V268.523C244.422 265.273 242.49 264.159 240.672 264.159C238.308 264.159 236.74 266.023 236.74 268.705C236.74 271.386 238.286 273.182 240.808 273.182ZM238.087 267.932C238.178 266.574 239.138 265.364 240.672 265.364C242.126 265.364 243.058 266.455 243.058 267.932H238.087ZM246.462 276.273H247.803V271.659H247.916C248.212 272.136 248.78 273.182 250.462 273.182C252.643 273.182 254.166 271.432 254.166 268.659C254.166 265.909 252.643 264.159 250.439 264.159C248.734 264.159 248.212 265.205 247.916 265.659H247.757V264.273H246.462V276.273ZM247.78 268.636C247.78 266.682 248.643 265.364 250.28 265.364C251.984 265.364 252.825 266.795 252.825 268.636C252.825 270.5 251.962 271.977 250.28 271.977C248.666 271.977 247.78 270.614 247.78 268.636ZM256.212 264.273V273H266.825V264.273H265.484V271.75H262.189V264.273H260.848V271.75H257.553V264.273H256.212ZM270.615 271.023V264.273H269.274V273H270.842L275.024 266.25V273H276.365V264.273H274.82L270.615 271.023ZM280.162 264.273H278.821V273H280.162V269.273H284.344V273H285.685V264.273H284.344V268.023H280.162V264.273ZM290.702 273.205C292.224 273.205 293.02 272.386 293.293 271.818H293.361V273H294.702V267.25C294.702 264.477 292.588 264.159 291.474 264.159C290.156 264.159 288.656 264.614 287.974 266.205L289.247 266.659C289.543 266.023 290.241 265.341 291.52 265.341C292.753 265.341 293.361 265.994 293.361 267.114V267.159C293.361 267.807 292.702 267.75 291.111 267.955C289.491 268.165 287.724 268.523 287.724 270.523C287.724 272.227 289.043 273.205 290.702 273.205ZM290.906 272C289.838 272 289.065 271.523 289.065 270.591C289.065 269.568 289.997 269.25 291.043 269.114C291.611 269.045 293.134 268.886 293.361 268.614V269.841C293.361 270.932 292.497 272 290.906 272ZM7.09091 295.25C8.30114 295.25 9.15909 294.608 9.65909 293.273L13.375 283.295L11.9091 283.273L9.5 290.227H9.40909L7 283.273H5.54545L8.77273 292.045L8.52273 292.727C8.04545 294.034 7.43182 294.159 6.45455 293.909L6.11364 295.091C6.25 295.159 6.63636 295.25 7.09091 295.25ZM14.6037 292H16.2173L19.1946 288.25H19.8764V292H21.2173V288.25H21.8991L24.8537 292H26.4673L22.9446 287.568L26.4219 283.273H24.831L21.9219 287H21.2173V283.273H19.8764V287H19.1491L16.2401 283.273H14.6491L18.1491 287.568L14.6037 292ZM31.6832 292.182C33.456 292.182 34.7514 291.295 35.1605 289.977L33.8651 289.614C33.5241 290.523 32.7344 290.977 31.6832 290.977C30.1094 290.977 29.0241 289.96 28.9616 288.091H35.2969V287.523C35.2969 284.273 33.3651 283.159 31.5469 283.159C29.1832 283.159 27.6151 285.023 27.6151 287.705C27.6151 290.386 29.1605 292.182 31.6832 292.182ZM28.9616 286.932C29.0526 285.574 30.0128 284.364 31.5469 284.364C33.0014 284.364 33.9332 285.455 33.9332 286.932H28.9616ZM45.4957 292.182C47.2685 292.182 48.5639 291.295 48.973 289.977L47.6776 289.614C47.3366 290.523 46.5469 290.977 45.4957 290.977C43.9219 290.977 42.8366 289.96 42.7741 288.091H49.1094V287.523C49.1094 284.273 47.1776 283.159 45.3594 283.159C42.9957 283.159 41.4276 285.023 41.4276 287.705C41.4276 290.386 42.973 292.182 45.4957 292.182ZM42.7741 286.932C42.8651 285.574 43.8253 284.364 45.3594 284.364C46.8139 284.364 47.7457 285.455 47.7457 286.932H42.7741ZM54.6946 292.182C56.6264 292.182 57.8991 291 58.1264 289.455H56.7855C56.5355 290.409 55.7401 290.977 54.6946 290.977C53.1037 290.977 52.081 289.659 52.081 287.636C52.081 285.659 53.1264 284.364 54.6946 284.364C55.8764 284.364 56.581 285.091 56.7855 285.886H58.1264C57.8991 284.25 56.5128 283.159 54.6719 283.159C52.3082 283.159 50.7401 285.023 50.7401 287.682C50.7401 290.295 52.2401 292.182 54.6946 292.182ZM59.3991 284.523H62.2855V292H63.6264V284.523H66.4901V283.273H59.3991V284.523ZM69.7869 286.432V283.273H68.446V292H72.1051C74.1506 292 75.2642 290.75 75.2642 289.182C75.2642 287.591 74.1506 286.432 72.1051 286.432H69.7869ZM69.7869 287.682H72.1051C73.1676 287.682 73.9233 288.33 73.9233 289.25C73.9233 290.131 73.1676 290.75 72.1051 290.75H69.7869V287.682ZM81.8054 292H85.919C87.6918 292 88.7599 291 88.7599 289.659C88.7599 288.29 87.7202 287.551 86.7599 287.409C87.7429 287.205 88.4418 286.653 88.4418 285.591C88.4418 284.199 87.2486 283.273 85.3736 283.273H81.8054V292ZM83.0781 290.773V288.091H85.919C86.8395 288.091 87.3963 288.642 87.3963 289.545C87.3963 290.307 86.8395 290.773 85.919 290.773H83.0781ZM83.0781 286.932V284.5H85.3736C86.4474 284.5 87.1009 284.949 87.1009 285.682C87.1009 286.46 86.4474 286.932 85.3736 286.932H83.0781ZM94.358 294.5H95.6989V292H102.153V294.5H103.494V290.75H102.153V283.273H96.608L96.3125 286.727C96.1023 289.17 95.7898 290.011 95.0852 290.75H94.358V294.5ZM96.608 290.75C97.2216 289.943 97.4432 288.551 97.6307 286.727L97.858 284.523H100.812V290.75H96.608ZM108.933 292.182C110.706 292.182 112.001 291.295 112.411 289.977L111.115 289.614C110.774 290.523 109.984 290.977 108.933 290.977C107.359 290.977 106.274 289.96 106.212 288.091H112.547V287.523C112.547 284.273 110.615 283.159 108.797 283.159C106.433 283.159 104.865 285.023 104.865 287.705C104.865 290.386 106.411 292.182 108.933 292.182ZM106.212 286.932C106.303 285.574 107.263 284.364 108.797 284.364C110.251 284.364 111.183 285.455 111.183 286.932H106.212ZM114.587 295.273H115.928V290.659H116.041C116.337 291.136 116.905 292.182 118.587 292.182C120.768 292.182 122.291 290.432 122.291 287.659C122.291 284.909 120.768 283.159 118.564 283.159C116.859 283.159 116.337 284.205 116.041 284.659H115.882V283.273H114.587V295.273ZM115.905 287.636C115.905 285.682 116.768 284.364 118.405 284.364C120.109 284.364 120.95 285.795 120.95 287.636C120.95 289.5 120.087 290.977 118.405 290.977C116.791 290.977 115.905 289.614 115.905 287.636ZM127.996 292.182C129.768 292.182 131.064 291.295 131.473 289.977L130.178 289.614C129.837 290.523 129.047 290.977 127.996 290.977C126.422 290.977 125.337 289.96 125.274 288.091H131.609V287.523C131.609 284.273 129.678 283.159 127.859 283.159C125.496 283.159 123.928 285.023 123.928 287.705C123.928 290.386 125.473 292.182 127.996 292.182ZM125.274 286.932C125.365 285.574 126.325 284.364 127.859 284.364C129.314 284.364 130.246 285.455 130.246 286.932H125.274ZM133.649 292H137.763C139.536 292 140.604 291 140.604 289.659C140.604 288.29 139.564 287.551 138.604 287.409C139.587 287.205 140.286 286.653 140.286 285.591C140.286 284.199 139.092 283.273 137.217 283.273H133.649V292ZM134.922 290.773V288.091H137.763C138.683 288.091 139.24 288.642 139.24 289.545C139.24 290.307 138.683 290.773 137.763 290.773H134.922ZM134.922 286.932V284.5H137.217C138.291 284.5 138.945 284.949 138.945 285.682C138.945 286.46 138.291 286.932 137.217 286.932H134.922ZM146.293 292.182C148.065 292.182 149.361 291.295 149.77 289.977L148.474 289.614C148.134 290.523 147.344 290.977 146.293 290.977C144.719 290.977 143.634 289.96 143.571 288.091H149.906V287.523C149.906 284.273 147.974 283.159 146.156 283.159C143.793 283.159 142.224 285.023 142.224 287.705C142.224 290.386 143.77 292.182 146.293 292.182ZM143.571 286.932C143.662 285.574 144.622 284.364 146.156 284.364C147.611 284.364 148.543 285.455 148.543 286.932H143.571ZM153.946 290.409H152.491L152.423 291.045C152.259 292.585 151.935 294.119 151.787 294.841H152.81C153.082 294.068 153.662 292.318 153.855 291.023L153.946 290.409ZM162.271 290.023V283.273H160.93V292H162.499L166.68 285.25V292H168.021V283.273H166.476L162.271 290.023ZM178.523 292.182C180.886 292.182 182.477 290.386 182.477 287.682C182.477 284.955 180.886 283.159 178.523 283.159C176.159 283.159 174.568 284.955 174.568 287.682C174.568 290.386 176.159 292.182 178.523 292.182ZM178.523 290.977C176.727 290.977 175.909 289.432 175.909 287.682C175.909 285.932 176.727 284.364 178.523 284.364C180.318 284.364 181.136 285.932 181.136 287.682C181.136 289.432 180.318 290.977 178.523 290.977ZM188.07 292.182C190.001 292.182 191.274 291 191.501 289.455H190.161C189.911 290.409 189.115 290.977 188.07 290.977C186.479 290.977 185.456 289.659 185.456 287.636C185.456 285.659 186.501 284.364 188.07 284.364C189.251 284.364 189.956 285.091 190.161 285.886H191.501C191.274 284.25 189.888 283.159 188.047 283.159C185.683 283.159 184.115 285.023 184.115 287.682C184.115 290.295 185.615 292.182 188.07 292.182ZM192.774 284.523H195.661V292H197.001V284.523H199.865V283.273H192.774V284.523ZM203.936 292.205C205.459 292.205 206.254 291.386 206.527 290.818H206.595V292H207.936V286.25C207.936 283.477 205.822 283.159 204.709 283.159C203.391 283.159 201.891 283.614 201.209 285.205L202.482 285.659C202.777 285.023 203.476 284.341 204.754 284.341C205.987 284.341 206.595 284.994 206.595 286.114V286.159C206.595 286.807 205.936 286.75 204.345 286.955C202.726 287.165 200.959 287.523 200.959 289.523C200.959 291.227 202.277 292.205 203.936 292.205ZM204.141 291C203.072 291 202.3 290.523 202.3 289.591C202.3 288.568 203.232 288.25 204.277 288.114C204.845 288.045 206.368 287.886 206.595 287.614V288.841C206.595 289.932 205.732 291 204.141 291ZM211.724 283.273H210.384V292H211.724V288.273H215.906V292H217.247V283.273H215.906V287.023H211.724V283.273ZM223.241 292.182C225.605 292.182 227.196 290.386 227.196 287.682C227.196 284.955 225.605 283.159 223.241 283.159C220.878 283.159 219.287 284.955 219.287 287.682C219.287 290.386 220.878 292.182 223.241 292.182ZM223.241 290.977C221.446 290.977 220.628 289.432 220.628 287.682C220.628 285.932 221.446 284.364 223.241 284.364C225.037 284.364 225.855 285.932 225.855 287.682C225.855 289.432 225.037 290.977 223.241 290.977ZM229.243 292H233.357C235.129 292 236.197 291 236.197 289.659C236.197 288.29 235.158 287.551 234.197 287.409C235.18 287.205 235.879 286.653 235.879 285.591C235.879 284.199 234.686 283.273 232.811 283.273H229.243V292ZM230.516 290.773V288.091H233.357C234.277 288.091 234.834 288.642 234.834 289.545C234.834 290.307 234.277 290.773 233.357 290.773H230.516ZM230.516 286.932V284.5H232.811C233.885 284.5 234.538 284.949 234.538 285.682C234.538 286.46 233.885 286.932 232.811 286.932H230.516ZM239.568 290.023V283.273H238.227V292H239.795L243.977 285.25V292H245.318V283.273H243.773L239.568 290.023ZM246.587 284.523H249.473V292H250.814V284.523H253.678V283.273H246.587V284.523ZM256.974 286.432V283.273H255.634V292H259.293C261.338 292 262.452 290.75 262.452 289.182C262.452 287.591 261.338 286.432 259.293 286.432H256.974ZM256.974 287.682H259.293C260.355 287.682 261.111 288.33 261.111 289.25C261.111 290.131 260.355 290.75 259.293 290.75H256.974V287.682ZM268.038 292.182C269.97 292.182 271.243 291 271.47 289.455H270.129C269.879 290.409 269.084 290.977 268.038 290.977C266.447 290.977 265.425 289.659 265.425 287.636C265.425 285.659 266.47 284.364 268.038 284.364C269.22 284.364 269.925 285.091 270.129 285.886H271.47C271.243 284.25 269.857 283.159 268.016 283.159C265.652 283.159 264.084 285.023 264.084 287.682C264.084 290.295 265.584 292.182 268.038 292.182ZM278.68 292H279.953V283.273H276.362C274.482 283.273 273.339 284.256 273.339 285.864C273.339 287.062 273.942 287.915 274.993 288.273L272.862 292H274.317L276.339 288.455H278.68V292ZM278.68 287.205H276.203C275.254 287.205 274.68 286.699 274.68 285.864C274.68 285.017 275.317 284.5 276.362 284.5H278.68V287.205ZM283.392 292.091C283.955 292.091 284.415 291.631 284.415 291.068C284.415 290.506 283.955 290.045 283.392 290.045C282.83 290.045 282.369 290.506 282.369 291.068C282.369 291.631 282.83 292.091 283.392 292.091Z" fill="black"/>
<path d="M57.5 84.6818C58.8807 84.6818 60 83.5625 60 82.1818C60 80.8011 58.8807 79.6818 57.5 79.6818C56.1193 79.6818 55 80.8011 55 82.1818C55 83.5625 56.1193 84.6818 57.5 84.6818ZM67.9091 88H75.0227V86.75H69.3182V82.7955H74.5682V81.5455H69.3182V77.6136H74.9318V76.3636H67.9091V88ZM80.8352 88.1818C82.767 88.1818 84.0398 87 84.267 85.4545H82.9261C82.6761 86.4091 81.8807 86.9773 80.8352 86.9773C79.2443 86.9773 78.2216 85.6591 78.2216 83.6364C78.2216 81.6591 79.267 80.3636 80.8352 80.3636C82.017 80.3636 82.7216 81.0909 82.9261 81.8864H84.267C84.0398 80.25 82.6534 79.1591 80.8125 79.1591C78.4489 79.1591 76.8807 81.0227 76.8807 83.6818C76.8807 86.2955 78.3807 88.1818 80.8352 88.1818ZM85.4545 88H85.9091C87.8409 88 88.3977 86.5 88.5227 83.6364L88.6591 80.5227H91.8636V88H93.2045V79.2727H87.3864L87.2273 83.1364C87.1136 86.0682 86.8182 86.75 85.7727 86.75H85.4545V88ZM97.0057 86.0227V79.2727H95.6648V88H97.233L101.415 81.25V88H102.756V79.2727H101.21L97.0057 86.0227ZM110.575 91.25C111.786 91.25 112.643 90.608 113.143 89.2727L116.859 79.2955L115.393 79.2727L112.984 86.2273H112.893L110.484 79.2727H109.03L112.257 88.0455L112.007 88.7273C111.53 90.0341 110.916 90.1591 109.939 89.9091L109.598 91.0909C109.734 91.1591 110.121 91.25 110.575 91.25ZM122.202 90.5H123.543V88H129.997V90.5H131.338V86.75H129.997V79.2727H124.452L124.156 82.7273C123.946 85.1705 123.634 86.0114 122.929 86.75H122.202V90.5ZM124.452 86.75C125.065 85.9432 125.287 84.5511 125.474 82.7273L125.702 80.5227H128.656V86.75H124.452ZM136.777 88.1818C138.55 88.1818 139.845 87.2955 140.254 85.9773L138.959 85.6136C138.618 86.5227 137.828 86.9773 136.777 86.9773C135.203 86.9773 134.118 85.9602 134.055 84.0909H140.391V83.5227C140.391 80.2727 138.459 79.1591 136.641 79.1591C134.277 79.1591 132.709 81.0227 132.709 83.7045C132.709 86.3864 134.254 88.1818 136.777 88.1818ZM134.055 82.9318C134.146 81.5739 135.107 80.3636 136.641 80.3636C138.095 80.3636 139.027 81.4545 139.027 82.9318H134.055ZM142.43 91.2727H143.771V86.6591H143.885C144.18 87.1364 144.749 88.1818 146.43 88.1818C148.612 88.1818 150.135 86.4318 150.135 83.6591C150.135 80.9091 148.612 79.1591 146.408 79.1591C144.703 79.1591 144.18 80.2045 143.885 80.6591H143.726V79.2727H142.43V91.2727ZM143.749 83.6364C143.749 81.6818 144.612 80.3636 146.249 80.3636C147.953 80.3636 148.794 81.7955 148.794 83.6364C148.794 85.5 147.93 86.9773 146.249 86.9773C144.635 86.9773 143.749 85.6136 143.749 83.6364ZM155.839 88.1818C157.612 88.1818 158.908 87.2955 159.317 85.9773L158.021 85.6136C157.68 86.5227 156.891 86.9773 155.839 86.9773C154.266 86.9773 153.18 85.9602 153.118 84.0909H159.453V83.5227C159.453 80.2727 157.521 79.1591 155.703 79.1591C153.339 79.1591 151.771 81.0227 151.771 83.7045C151.771 86.3864 153.317 88.1818 155.839 88.1818ZM153.118 82.9318C153.209 81.5739 154.169 80.3636 155.703 80.3636C157.158 80.3636 158.089 81.4545 158.089 82.9318H153.118ZM161.493 88H165.607C167.379 88 168.447 87 168.447 85.6591C168.447 84.2898 167.408 83.5511 166.447 83.4091C167.43 83.2045 168.129 82.6534 168.129 81.5909C168.129 80.1989 166.936 79.2727 165.061 79.2727H161.493V88ZM162.766 86.7727V84.0909H165.607C166.527 84.0909 167.084 84.642 167.084 85.5455C167.084 86.3068 166.527 86.7727 165.607 86.7727H162.766ZM162.766 82.9318V80.5H165.061C166.135 80.5 166.788 80.9489 166.788 81.6818C166.788 82.4602 166.135 82.9318 165.061 82.9318H162.766ZM173.045 88.2045C174.568 88.2045 175.364 87.3864 175.636 86.8182H175.705V88H177.045V82.25C177.045 79.4773 174.932 79.1591 173.818 79.1591C172.5 79.1591 171 79.6136 170.318 81.2045L171.591 81.6591C171.886 81.0227 172.585 80.3409 173.864 80.3409C175.097 80.3409 175.705 80.9943 175.705 82.1136V82.1591C175.705 82.8068 175.045 82.75 173.455 82.9545C171.835 83.1648 170.068 83.5227 170.068 85.5227C170.068 87.2273 171.386 88.2045 173.045 88.2045ZM173.25 87C172.182 87 171.409 86.5227 171.409 85.5909C171.409 84.5682 172.341 84.25 173.386 84.1136C173.955 84.0455 175.477 83.8864 175.705 83.6136V84.8409C175.705 85.9318 174.841 87 173.25 87ZM187.538 88.1818C189.47 88.1818 190.743 87 190.97 85.4545H189.629C189.379 86.4091 188.584 86.9773 187.538 86.9773C185.947 86.9773 184.925 85.6591 184.925 83.6364C184.925 81.6591 185.97 80.3636 187.538 80.3636C188.72 80.3636 189.425 81.0909 189.629 81.8864H190.97C190.743 80.25 189.357 79.1591 187.516 79.1591C185.152 79.1591 183.584 81.0227 183.584 83.6818C183.584 86.2955 185.084 88.1818 187.538 88.1818ZM197.43 88H198.771V84.3182H199.976L202.839 88H204.567L200.999 83.4773L204.521 79.2727H202.794L199.658 83.0682H198.771V79.2727H197.43V88ZM205.251 88H205.706C207.638 88 208.195 86.5 208.32 83.6364L208.456 80.5227H211.661V88H213.001V79.2727H207.183L207.024 83.1364C206.911 86.0682 206.615 86.75 205.57 86.75H205.251V88ZM216.166 79.2727H214.825V88H216.166V84.3409H218.405C218.643 86.6761 220.161 88.1818 222.325 88.1818C224.689 88.1818 226.28 86.3864 226.28 83.6818C226.28 80.9545 224.689 79.1591 222.325 79.1591C220.138 79.1591 218.609 80.6989 218.399 83.0909H216.166V79.2727ZM222.325 86.9773C220.53 86.9773 219.712 85.4318 219.712 83.6818C219.712 81.9318 220.53 80.3636 222.325 80.3636C224.121 80.3636 224.939 81.9318 224.939 83.6818C224.939 85.4318 224.121 86.9773 222.325 86.9773ZM235.189 79.2727H233.848V83.6989C233.2 83.8864 232.536 84 231.734 84C230.643 84 229.803 83.3864 229.803 82.0455V79.25H228.462V82.0455C228.462 84.1818 229.757 85.25 231.734 85.25C232.558 85.25 233.217 85.142 233.848 84.9545V88H235.189V79.2727ZM241.195 88.1818C243.558 88.1818 245.149 86.3864 245.149 83.6818C245.149 80.9545 243.558 79.1591 241.195 79.1591C238.831 79.1591 237.24 80.9545 237.24 83.6818C237.24 86.3864 238.831 88.1818 241.195 88.1818ZM241.195 86.9773C239.399 86.9773 238.581 85.4318 238.581 83.6818C238.581 81.9318 239.399 80.3636 241.195 80.3636C242.99 80.3636 243.808 81.9318 243.808 83.6818C243.808 85.4318 242.99 86.9773 241.195 86.9773ZM251.969 86.1818L248.969 79.2727H247.196V88H248.537V81.1989L251.423 88H252.514L255.401 81.3239V88H256.741V79.2727H255.014L251.969 86.1818ZM264.56 76.3636H262.901L266.651 82.1818L262.901 88H264.56L267.56 83.25H267.651L270.651 88H272.31L268.651 82.1818L272.31 76.3636H270.651L267.651 81.2045H267.56L264.56 76.3636ZM278.462 88H282.575C284.348 88 285.416 87 285.416 85.6591C285.416 84.2898 284.376 83.5511 283.416 83.4091C284.399 83.2045 285.098 82.6534 285.098 81.5909C285.098 80.1989 283.905 79.2727 282.03 79.2727H278.462V88ZM279.734 86.7727V84.0909H282.575C283.496 84.0909 284.053 84.642 284.053 85.5455C284.053 86.3068 283.496 86.7727 282.575 86.7727H279.734ZM279.734 82.9318V80.5H282.03C283.104 80.5 283.757 80.9489 283.757 81.6818C283.757 82.4602 283.104 82.9318 282.03 82.9318H279.734ZM295.605 88.1818C297.378 88.1818 298.673 87.2955 299.082 85.9773L297.787 85.6136C297.446 86.5227 296.656 86.9773 295.605 86.9773C294.031 86.9773 292.946 85.9602 292.884 84.0909H299.219V83.5227C299.219 80.2727 297.287 79.1591 295.469 79.1591C293.105 79.1591 291.537 81.0227 291.537 83.7045C291.537 86.3864 293.082 88.1818 295.605 88.1818ZM292.884 82.9318C292.974 81.5739 293.935 80.3636 295.469 80.3636C296.923 80.3636 297.855 81.4545 297.855 82.9318H292.884ZM306.645 79.2727H301.259V88H302.599V80.5227H306.645V79.2727ZM311.695 88.1818C314.058 88.1818 315.649 86.3864 315.649 83.6818C315.649 80.9545 314.058 79.1591 311.695 79.1591C309.331 79.1591 307.74 80.9545 307.74 83.6818C307.74 86.3864 309.331 88.1818 311.695 88.1818ZM311.695 86.9773C309.899 86.9773 309.081 85.4318 309.081 83.6818C309.081 81.9318 309.899 80.3636 311.695 80.3636C313.49 80.3636 314.308 81.9318 314.308 83.6818C314.308 85.4318 313.49 86.9773 311.695 86.9773ZM54.2273 107H55.5682V103.318H56.7727L59.6364 107H61.3636L57.7955 102.477L61.3182 98.2727H59.5909L56.4545 102.068H55.5682V98.2727H54.2273V107ZM66.0071 107.182C68.3707 107.182 69.9616 105.386 69.9616 102.682C69.9616 99.9545 68.3707 98.1591 66.0071 98.1591C63.6435 98.1591 62.0526 99.9545 62.0526 102.682C62.0526 105.386 63.6435 107.182 66.0071 107.182ZM66.0071 105.977C64.2116 105.977 63.3935 104.432 63.3935 102.682C63.3935 100.932 64.2116 99.3636 66.0071 99.3636C67.8026 99.3636 68.6207 100.932 68.6207 102.682C68.6207 104.432 67.8026 105.977 66.0071 105.977ZM72.0085 110.273H73.3494V105.659H73.4631C73.7585 106.136 74.3267 107.182 76.0085 107.182C78.1903 107.182 79.7131 105.432 79.7131 102.659C79.7131 99.9091 78.1903 98.1591 75.9858 98.1591C74.2812 98.1591 73.7585 99.2045 73.4631 99.6591H73.304V98.2727H72.0085V110.273ZM73.3267 102.636C73.3267 100.682 74.1903 99.3636 75.8267 99.3636C77.5312 99.3636 78.3722 100.795 78.3722 102.636C78.3722 104.5 77.5085 105.977 75.8267 105.977C74.2131 105.977 73.3267 104.614 73.3267 102.636ZM83.0994 98.2727H81.7585V107H83.0994V103.273H87.2812V107H88.6222V98.2727H87.2812V102.023H83.0994V98.2727ZM94.7301 107.182C96.5028 107.182 97.7983 106.295 98.2074 104.977L96.9119 104.614C96.571 105.523 95.7812 105.977 94.7301 105.977C93.1562 105.977 92.071 104.96 92.0085 103.091H98.3438V102.523C98.3438 99.2727 96.4119 98.1591 94.5938 98.1591C92.2301 98.1591 90.6619 100.023 90.6619 102.705C90.6619 105.386 92.2074 107.182 94.7301 107.182ZM92.0085 101.932C92.0994 100.574 93.0597 99.3636 94.5938 99.3636C96.0483 99.3636 96.9801 100.455 96.9801 101.932H92.0085ZM106.224 98.2727H104.884V107H106.224V103.273H110.406V107H111.747V98.2727H110.406V102.023H106.224V98.2727ZM117.855 107.182C119.628 107.182 120.923 106.295 121.332 104.977L120.037 104.614C119.696 105.523 118.906 105.977 117.855 105.977C116.281 105.977 115.196 104.96 115.134 103.091H121.469V102.523C121.469 99.2727 119.537 98.1591 117.719 98.1591C115.355 98.1591 113.787 100.023 113.787 102.705C113.787 105.386 115.332 107.182 117.855 107.182ZM115.134 101.932C115.224 100.574 116.185 99.3636 117.719 99.3636C119.173 99.3636 120.105 100.455 120.105 101.932H115.134ZM122.696 99.5227H125.582V107H126.923V99.5227H129.787V98.2727H122.696V99.5227ZM135.47 107H135.925C137.857 107 138.413 105.5 138.538 102.636L138.675 99.5227H141.879V107H143.22V98.2727H137.402L137.243 102.136C137.129 105.068 136.834 105.75 135.788 105.75H135.47V107ZM149.339 107.182C151.112 107.182 152.408 106.295 152.817 104.977L151.521 104.614C151.18 105.523 150.391 105.977 149.339 105.977C147.766 105.977 146.68 104.96 146.618 103.091H152.953V102.523C152.953 99.2727 151.021 98.1591 149.203 98.1591C146.839 98.1591 145.271 100.023 145.271 102.705C145.271 105.386 146.817 107.182 149.339 107.182ZM146.618 101.932C146.709 100.574 147.669 99.3636 149.203 99.3636C150.658 99.3636 151.589 100.455 151.589 101.932H146.618ZM154.993 107H159.107C160.879 107 161.947 106 161.947 104.659C161.947 103.29 160.908 102.551 159.947 102.409C160.93 102.205 161.629 101.653 161.629 100.591C161.629 99.1989 160.436 98.2727 158.561 98.2727H154.993V107ZM156.266 105.773V103.091H159.107C160.027 103.091 160.584 103.642 160.584 104.545C160.584 105.307 160.027 105.773 159.107 105.773H156.266ZM156.266 101.932V99.5H158.561C159.635 99.5 160.288 99.9489 160.288 100.682C160.288 101.46 159.635 101.932 158.561 101.932H156.266ZM167.523 107.182C169.886 107.182 171.477 105.386 171.477 102.682C171.477 99.9545 169.886 98.1591 167.523 98.1591C165.159 98.1591 163.568 99.9545 163.568 102.682C163.568 105.386 165.159 107.182 167.523 107.182ZM167.523 105.977C165.727 105.977 164.909 104.432 164.909 102.682C164.909 100.932 165.727 99.3636 167.523 99.3636C169.318 99.3636 170.136 100.932 170.136 102.682C170.136 104.432 169.318 105.977 167.523 105.977ZM178.911 98.2727H173.524V107H174.865V99.5227H178.911V98.2727ZM183.96 107.182C186.324 107.182 187.915 105.386 187.915 102.682C187.915 99.9545 186.324 98.1591 183.96 98.1591C181.597 98.1591 180.006 99.9545 180.006 102.682C180.006 105.386 181.597 107.182 183.96 107.182ZM183.96 105.977C182.165 105.977 181.347 104.432 181.347 102.682C181.347 100.932 182.165 99.3636 183.96 99.3636C185.756 99.3636 186.574 100.932 186.574 102.682C186.574 104.432 185.756 105.977 183.96 105.977ZM194.462 110.273H195.803V105.659H195.916C196.212 106.136 196.78 107.182 198.462 107.182C200.643 107.182 202.166 105.432 202.166 102.659C202.166 99.9091 200.643 98.1591 198.439 98.1591C196.734 98.1591 196.212 99.2045 195.916 99.6591H195.757V98.2727H194.462V110.273ZM195.78 102.636C195.78 100.682 196.643 99.3636 198.28 99.3636C199.984 99.3636 200.825 100.795 200.825 102.636C200.825 104.5 199.962 105.977 198.28 105.977C196.666 105.977 195.78 104.614 195.78 102.636ZM207.871 107.182C209.643 107.182 210.939 106.295 211.348 104.977L210.053 104.614C209.712 105.523 208.922 105.977 207.871 105.977C206.297 105.977 205.212 104.96 205.149 103.091H211.484V102.523C211.484 99.2727 209.553 98.1591 207.734 98.1591C205.371 98.1591 203.803 100.023 203.803 102.705C203.803 105.386 205.348 107.182 207.871 107.182ZM205.149 101.932C205.24 100.574 206.2 99.3636 207.734 99.3636C209.189 99.3636 210.121 100.455 210.121 101.932H205.149ZM220.001 95C219.575 95.358 218.939 95.358 218.047 95.3523C217.757 95.3523 217.439 95.3523 217.092 95.3636C214.433 95.4318 213.115 97.4545 213.115 101.341V102.273C213.115 105.5 214.683 107.182 217.024 107.182C219.359 107.182 220.911 105.489 220.911 102.75C220.911 100 219.337 98.5455 217.297 98.5455C216.098 98.5455 214.979 99.0455 214.388 100.136H214.274C214.456 97.8864 215.297 96.6818 217.115 96.6136C218.729 96.5455 219.888 96.5909 220.683 95.8182L220.001 95ZM217.024 105.977C215.433 105.977 214.456 104.705 214.456 102.75C214.484 100.841 215.445 99.75 217.001 99.75C218.598 99.75 219.57 100.841 219.57 102.75C219.57 104.716 218.604 105.977 217.024 105.977ZM226.621 107.182C228.393 107.182 229.689 106.295 230.098 104.977L228.803 104.614C228.462 105.523 227.672 105.977 226.621 105.977C225.047 105.977 223.962 104.96 223.899 103.091H230.234V102.523C230.234 99.2727 228.303 98.1591 226.484 98.1591C224.121 98.1591 222.553 100.023 222.553 102.705C222.553 105.386 224.098 107.182 226.621 107.182ZM223.899 101.932C223.99 100.574 224.95 99.3636 226.484 99.3636C227.939 99.3636 228.871 100.455 228.871 101.932H223.899ZM224.78 96.8182C225.303 96.8182 225.689 96.3864 225.689 95.9091C225.689 95.3864 225.303 95 224.78 95C224.303 95 223.871 95.3864 223.871 95.9091C223.871 96.3864 224.303 96.8182 224.78 96.8182ZM228.053 96.8182C228.575 96.8182 228.962 96.3864 228.962 95.9091C228.962 95.3864 228.575 95 228.053 95C227.575 95 227.143 95.3864 227.143 95.9091C227.143 96.3864 227.575 96.8182 228.053 96.8182ZM233.615 98.2727H232.274V107H233.615V103.273H237.797V107H239.138V98.2727H237.797V102.023H233.615V98.2727ZM241.587 107H242.928V103.318H244.132L246.996 107H248.723L245.155 102.477L248.678 98.2727H246.95L243.814 102.068H242.928V98.2727H241.587V107ZM252.749 107.205C254.271 107.205 255.067 106.386 255.339 105.818H255.408V107H256.749V101.25C256.749 98.4773 254.635 98.1591 253.521 98.1591C252.203 98.1591 250.703 98.6136 250.021 100.205L251.294 100.659C251.589 100.023 252.288 99.3409 253.567 99.3409C254.8 99.3409 255.408 99.9943 255.408 101.114V101.159C255.408 101.807 254.749 101.75 253.158 101.955C251.538 102.165 249.771 102.523 249.771 104.523C249.771 106.227 251.089 107.205 252.749 107.205ZM252.953 106C251.885 106 251.112 105.523 251.112 104.591C251.112 103.568 252.044 103.25 253.089 103.114C253.658 103.045 255.18 102.886 255.408 102.614V103.841C255.408 104.932 254.544 106 252.953 106ZM261.196 105.409H259.741L259.673 106.045C259.509 107.585 259.185 109.119 259.037 109.841H260.06C260.332 109.068 260.912 107.318 261.105 106.023L261.196 105.409ZM267.68 99.5227H270.567V107H271.908V99.5227H274.771V98.2727H267.68V99.5227ZM279.82 107.182C282.183 107.182 283.774 105.386 283.774 102.682C283.774 99.9545 282.183 98.1591 279.82 98.1591C277.456 98.1591 275.865 99.9545 275.865 102.682C275.865 105.386 277.456 107.182 279.82 107.182ZM279.82 105.977C278.024 105.977 277.206 104.432 277.206 102.682C277.206 100.932 278.024 99.3636 279.82 99.3636C281.615 99.3636 282.433 100.932 282.433 102.682C282.433 104.432 281.615 105.977 279.82 105.977ZM54.2273 126H58.3409C60.1136 126 61.1818 125 61.1818 123.659C61.1818 122.29 60.142 121.551 59.1818 121.409C60.1648 121.205 60.8636 120.653 60.8636 119.591C60.8636 118.199 59.6705 117.273 57.7955 117.273H54.2273V126ZM55.5 124.773V122.091H58.3409C59.2614 122.091 59.8182 122.642 59.8182 123.545C59.8182 124.307 59.2614 124.773 58.3409 124.773H55.5ZM55.5 120.932V118.5H57.7955C58.8693 118.5 59.5227 118.949 59.5227 119.682C59.5227 120.46 58.8693 120.932 57.7955 120.932H55.5ZM66.7571 126.182C68.6889 126.182 69.9616 125 70.1889 123.455H68.848C68.598 124.409 67.8026 124.977 66.7571 124.977C65.1662 124.977 64.1435 123.659 64.1435 121.636C64.1435 119.659 65.1889 118.364 66.7571 118.364C67.9389 118.364 68.6435 119.091 68.848 119.886H70.1889C69.9616 118.25 68.5753 117.159 66.7344 117.159C64.3707 117.159 62.8026 119.023 62.8026 121.682C62.8026 124.295 64.3026 126.182 66.7571 126.182ZM71.4616 118.523H74.348V126H75.6889V118.523H78.5526V117.273H71.4616V118.523ZM82.6236 126.205C84.1463 126.205 84.9418 125.386 85.2145 124.818H85.2827V126H86.6236V120.25C86.6236 117.477 84.5099 117.159 83.3963 117.159C82.0781 117.159 80.5781 117.614 79.8963 119.205L81.169 119.659C81.4645 119.023 82.1634 118.341 83.4418 118.341C84.6747 118.341 85.2827 118.994 85.2827 120.114V120.159C85.2827 120.807 84.6236 120.75 83.0327 120.955C81.4134 121.165 79.6463 121.523 79.6463 123.523C79.6463 125.227 80.9645 126.205 82.6236 126.205ZM82.8281 125C81.7599 125 80.9872 124.523 80.9872 123.591C80.9872 122.568 81.919 122.25 82.9645 122.114C83.5327 122.045 85.0554 121.886 85.2827 121.614V122.841C85.2827 123.932 84.419 125 82.8281 125ZM89.071 126H93.1847C94.9574 126 96.0256 125 96.0256 123.659C96.0256 122.29 94.9858 121.551 94.0256 121.409C95.0085 121.205 95.7074 120.653 95.7074 119.591C95.7074 118.199 94.5142 117.273 92.6392 117.273H89.071V126ZM90.3438 124.773V122.091H93.1847C94.1051 122.091 94.6619 122.642 94.6619 123.545C94.6619 124.307 94.1051 124.773 93.1847 124.773H90.3438ZM90.3438 120.932V118.5H92.6392C93.7131 118.5 94.3665 118.949 94.3665 119.682C94.3665 120.46 93.7131 120.932 92.6392 120.932H90.3438ZM99.3963 124.023V117.273H98.0554V126H99.6236L103.805 119.25V126H105.146V117.273H103.601L99.3963 124.023ZM106.415 118.523H109.301V126H110.642V118.523H113.506V117.273H106.415V118.523ZM116.803 120.432V117.273H115.462V126H119.121C121.166 126 122.28 124.75 122.28 123.182C122.28 121.591 121.166 120.432 119.121 120.432H116.803ZM116.803 121.682H119.121C120.183 121.682 120.939 122.33 120.939 123.25C120.939 124.131 120.183 124.75 119.121 124.75H116.803V121.682ZM127.889 128.5H129.23V126H135.685V128.5H137.026V124.75H135.685V117.273H130.139L129.844 120.727C129.634 123.17 129.321 124.011 128.616 124.75H127.889V128.5ZM130.139 124.75C130.753 123.943 130.974 122.551 131.162 120.727L131.389 118.523H134.344V124.75H130.139ZM141.374 126.205C142.896 126.205 143.692 125.386 143.964 124.818H144.033V126H145.374V120.25C145.374 117.477 143.26 117.159 142.146 117.159C140.828 117.159 139.328 117.614 138.646 119.205L139.919 119.659C140.214 119.023 140.913 118.341 142.192 118.341C143.425 118.341 144.033 118.994 144.033 120.114V120.159C144.033 120.807 143.374 120.75 141.783 120.955C140.163 121.165 138.396 121.523 138.396 123.523C138.396 125.227 139.714 126.205 141.374 126.205ZM141.578 125C140.51 125 139.737 124.523 139.737 123.591C139.737 122.568 140.669 122.25 141.714 122.114C142.283 122.045 143.805 121.886 144.033 121.614V122.841C144.033 123.932 143.169 125 141.578 125ZM149.162 117.273H147.821V126H149.162V122.273H153.344V126H154.685V117.273H153.344V121.023H149.162V117.273ZM158.474 117.273H157.134V126H158.474V122.273H162.656V126H163.997V117.273H162.656V121.023H158.474V117.273ZM166.997 129.25C168.207 129.25 169.065 128.608 169.565 127.273L173.281 117.295L171.815 117.273L169.406 124.227H169.315L166.906 117.273H165.452L168.679 126.045L168.429 126.727C167.952 128.034 167.338 128.159 166.361 127.909L166.02 129.091C166.156 129.159 166.543 129.25 166.997 129.25ZM175.76 117.273H174.419V126H175.76V122.341H177.999C178.237 124.676 179.754 126.182 181.919 126.182C184.283 126.182 185.874 124.386 185.874 121.682C185.874 118.955 184.283 117.159 181.919 117.159C179.732 117.159 178.203 118.699 177.993 121.091H175.76V117.273ZM181.919 124.977C180.124 124.977 179.305 123.432 179.305 121.682C179.305 119.932 180.124 118.364 181.919 118.364C183.714 118.364 184.533 119.932 184.533 121.682C184.533 123.432 183.714 124.977 181.919 124.977ZM192.555 126H196.669C198.442 126 199.51 125 199.51 123.659C199.51 122.29 198.47 121.551 197.51 121.409C198.493 121.205 199.192 120.653 199.192 119.591C199.192 118.199 197.999 117.273 196.124 117.273H192.555V126ZM193.828 124.773V122.091H196.669C197.589 122.091 198.146 122.642 198.146 123.545C198.146 124.307 197.589 124.773 196.669 124.773H193.828ZM193.828 120.932V118.5H196.124C197.197 118.5 197.851 118.949 197.851 119.682C197.851 120.46 197.197 120.932 196.124 120.932H193.828ZM205.199 126.182C206.972 126.182 208.267 125.295 208.676 123.977L207.381 123.614C207.04 124.523 206.25 124.977 205.199 124.977C203.625 124.977 202.54 123.96 202.477 122.091H208.812V121.523C208.812 118.273 206.881 117.159 205.062 117.159C202.699 117.159 201.131 119.023 201.131 121.705C201.131 124.386 202.676 126.182 205.199 126.182ZM202.477 120.932C202.568 119.574 203.528 118.364 205.062 118.364C206.517 118.364 207.449 119.455 207.449 120.932H202.477ZM210.852 129.273H212.193V124.659H212.307C212.602 125.136 213.17 126.182 214.852 126.182C217.034 126.182 218.557 124.432 218.557 121.659C218.557 118.909 217.034 117.159 214.83 117.159C213.125 117.159 212.602 118.205 212.307 118.659H212.148V117.273H210.852V129.273ZM212.17 121.636C212.17 119.682 213.034 118.364 214.67 118.364C216.375 118.364 217.216 119.795 217.216 121.636C217.216 123.5 216.352 124.977 214.67 124.977C213.057 124.977 212.17 123.614 212.17 121.636ZM220.602 117.273V126H231.216V117.273H229.875V124.75H226.58V117.273H225.239V124.75H221.943V117.273H220.602ZM235.006 124.023V117.273H233.665V126H235.233L239.415 119.25V126H240.756V117.273H239.21L235.006 124.023ZM244.553 117.273H243.212V126H244.553V122.273H248.734V126H250.075V117.273H248.734V121.023H244.553V117.273ZM253.075 129.25C254.286 129.25 255.143 128.608 255.643 127.273L259.359 117.295L257.893 117.273L255.484 124.227H255.393L252.984 117.273H251.53L254.757 126.045L254.507 126.727C254.03 128.034 253.416 128.159 252.439 127.909L252.098 129.091C252.234 129.159 252.621 129.25 253.075 129.25ZM265.634 126H269.747C271.52 126 272.588 125 272.588 123.659C272.588 122.29 271.548 121.551 270.588 121.409C271.571 121.205 272.27 120.653 272.27 119.591C272.27 118.199 271.077 117.273 269.202 117.273H265.634V126ZM266.906 124.773V122.091H269.747C270.668 122.091 271.224 122.642 271.224 123.545C271.224 124.307 270.668 124.773 269.747 124.773H266.906ZM266.906 120.932V118.5H269.202C270.276 118.5 270.929 118.949 270.929 119.682C270.929 120.46 270.276 120.932 269.202 120.932H266.906ZM54.2273 145H55.5682V141.318H56.7727L59.6364 145H61.3636L57.7955 140.477L61.3182 136.273H59.5909L56.4545 140.068H55.5682V136.273H54.2273V145ZM65.3892 145.205C66.9119 145.205 67.7074 144.386 67.9801 143.818H68.0483V145H69.3892V139.25C69.3892 136.477 67.2756 136.159 66.1619 136.159C64.8438 136.159 63.3438 136.614 62.6619 138.205L63.9347 138.659C64.2301 138.023 64.929 137.341 66.2074 137.341C67.4403 137.341 68.0483 137.994 68.0483 139.114V139.159C68.0483 139.807 67.3892 139.75 65.7983 139.955C64.179 140.165 62.4119 140.523 62.4119 142.523C62.4119 144.227 63.7301 145.205 65.3892 145.205ZM65.5938 144C64.5256 144 63.7528 143.523 63.7528 142.591C63.7528 141.568 64.6847 141.25 65.7301 141.114C66.2983 141.045 67.821 140.886 68.0483 140.614V141.841C68.0483 142.932 67.1847 144 65.5938 144ZM78.5639 136.273H77.223V140.699C76.5753 140.886 75.9105 141 75.1094 141C74.0185 141 73.1776 140.386 73.1776 139.045V136.25H71.8366V139.045C71.8366 141.182 73.1321 142.25 75.1094 142.25C75.9332 142.25 76.5923 142.142 77.223 141.955V145H78.5639V136.273ZM84.6832 145.182C86.456 145.182 87.7514 144.295 88.1605 142.977L86.8651 142.614C86.5241 143.523 85.7344 143.977 84.6832 143.977C83.1094 143.977 82.0241 142.96 81.9616 141.091H88.2969V140.523C88.2969 137.273 86.3651 136.159 84.5469 136.159C82.1832 136.159 80.6151 138.023 80.6151 140.705C80.6151 143.386 82.1605 145.182 84.6832 145.182ZM81.9616 139.932C82.0526 138.574 83.0128 137.364 84.5469 137.364C86.0014 137.364 86.9332 138.455 86.9332 139.932H81.9616ZM93.8821 145.182C95.8139 145.182 97.0866 144 97.3139 142.455H95.973C95.723 143.409 94.9276 143.977 93.8821 143.977C92.2912 143.977 91.2685 142.659 91.2685 140.636C91.2685 138.659 92.3139 137.364 93.8821 137.364C95.0639 137.364 95.7685 138.091 95.973 138.886H97.3139C97.0866 137.25 95.7003 136.159 93.8594 136.159C91.4957 136.159 89.9276 138.023 89.9276 140.682C89.9276 143.295 91.4276 145.182 93.8821 145.182ZM98.5866 137.523H101.473V145H102.814V137.523H105.678V136.273H98.5866V137.523ZM107.634 145H111.747C113.52 145 114.588 144 114.588 142.659C114.588 141.29 113.548 140.551 112.588 140.409C113.571 140.205 114.27 139.653 114.27 138.591C114.27 137.199 113.077 136.273 111.202 136.273H107.634V145ZM108.906 143.773V141.091H111.747C112.668 141.091 113.224 141.642 113.224 142.545C113.224 143.307 112.668 143.773 111.747 143.773H108.906ZM108.906 139.932V137.5H111.202C112.276 137.5 112.929 137.949 112.929 138.682C112.929 139.46 112.276 139.932 111.202 139.932H108.906ZM120.277 145.182C122.05 145.182 123.345 144.295 123.754 142.977L122.459 142.614C122.118 143.523 121.328 143.977 120.277 143.977C118.703 143.977 117.618 142.96 117.555 141.091H123.891V140.523C123.891 137.273 121.959 136.159 120.141 136.159C117.777 136.159 116.209 138.023 116.209 140.705C116.209 143.386 117.754 145.182 120.277 145.182ZM117.555 139.932C117.646 138.574 118.607 137.364 120.141 137.364C121.595 137.364 122.527 138.455 122.527 139.932H117.555ZM129.658 145H130.112C132.044 145 132.601 143.5 132.726 140.636L132.862 137.523H136.067V145H137.408V136.273H131.589L131.43 140.136C131.317 143.068 131.021 143.75 129.976 143.75H129.658V145ZM143.527 145.182C145.3 145.182 146.595 144.295 147.004 142.977L145.709 142.614C145.368 143.523 144.578 143.977 143.527 143.977C141.953 143.977 140.868 142.96 140.805 141.091H147.141V140.523C147.141 137.273 145.209 136.159 143.391 136.159C141.027 136.159 139.459 138.023 139.459 140.705C139.459 143.386 141.004 145.182 143.527 145.182ZM140.805 139.932C140.896 138.574 141.857 137.364 143.391 137.364C144.845 137.364 145.777 138.455 145.777 139.932H140.805ZM149.18 145H153.294C155.067 145 156.135 144 156.135 142.659C156.135 141.29 155.095 140.551 154.135 140.409C155.118 140.205 155.817 139.653 155.817 138.591C155.817 137.199 154.624 136.273 152.749 136.273H149.18V145ZM150.453 143.773V141.091H153.294C154.214 141.091 154.771 141.642 154.771 142.545C154.771 143.307 154.214 143.773 153.294 143.773H150.453ZM150.453 139.932V137.5H152.749C153.822 137.5 154.476 137.949 154.476 138.682C154.476 139.46 153.822 139.932 152.749 139.932H150.453ZM161.71 145.182C164.074 145.182 165.665 143.386 165.665 140.682C165.665 137.955 164.074 136.159 161.71 136.159C159.347 136.159 157.756 137.955 157.756 140.682C157.756 143.386 159.347 145.182 161.71 145.182ZM161.71 143.977C159.915 143.977 159.097 142.432 159.097 140.682C159.097 138.932 159.915 137.364 161.71 137.364C163.506 137.364 164.324 138.932 164.324 140.682C164.324 142.432 163.506 143.977 161.71 143.977ZM173.098 136.273H167.712V145H169.053V137.523H173.098V136.273ZM178.148 145.182C180.511 145.182 182.102 143.386 182.102 140.682C182.102 137.955 180.511 136.159 178.148 136.159C175.784 136.159 174.193 137.955 174.193 140.682C174.193 143.386 175.784 145.182 178.148 145.182ZM178.148 143.977C176.352 143.977 175.534 142.432 175.534 140.682C175.534 138.932 176.352 137.364 178.148 137.364C179.943 137.364 180.761 138.932 180.761 140.682C180.761 142.432 179.943 143.977 178.148 143.977ZM188.649 148.273H189.99V143.659H190.104C190.399 144.136 190.967 145.182 192.649 145.182C194.831 145.182 196.354 143.432 196.354 140.659C196.354 137.909 194.831 136.159 192.626 136.159C190.922 136.159 190.399 137.205 190.104 137.659H189.945V136.273H188.649V148.273ZM189.967 140.636C189.967 138.682 190.831 137.364 192.467 137.364C194.172 137.364 195.013 138.795 195.013 140.636C195.013 142.5 194.149 143.977 192.467 143.977C190.854 143.977 189.967 142.614 189.967 140.636ZM202.058 145.182C203.831 145.182 205.126 144.295 205.536 142.977L204.24 142.614C203.899 143.523 203.109 143.977 202.058 143.977C200.484 143.977 199.399 142.96 199.337 141.091H205.672V140.523C205.672 137.273 203.74 136.159 201.922 136.159C199.558 136.159 197.99 138.023 197.99 140.705C197.99 143.386 199.536 145.182 202.058 145.182ZM199.337 139.932C199.428 138.574 200.388 137.364 201.922 137.364C203.376 137.364 204.308 138.455 204.308 139.932H199.337ZM214.189 133C213.763 133.358 213.126 133.358 212.234 133.352C211.945 133.352 211.626 133.352 211.28 133.364C208.621 133.432 207.303 135.455 207.303 139.341V140.273C207.303 143.5 208.871 145.182 211.212 145.182C213.547 145.182 215.098 143.489 215.098 140.75C215.098 138 213.524 136.545 211.484 136.545C210.286 136.545 209.166 137.045 208.575 138.136H208.462C208.643 135.886 209.484 134.682 211.303 134.614C212.916 134.545 214.075 134.591 214.871 133.818L214.189 133ZM211.212 143.977C209.621 143.977 208.643 142.705 208.643 140.75C208.672 138.841 209.632 137.75 211.189 137.75C212.786 137.75 213.757 138.841 213.757 140.75C213.757 142.716 212.791 143.977 211.212 143.977ZM220.808 145.182C222.581 145.182 223.876 144.295 224.286 142.977L222.99 142.614C222.649 143.523 221.859 143.977 220.808 143.977C219.234 143.977 218.149 142.96 218.087 141.091H224.422V140.523C224.422 137.273 222.49 136.159 220.672 136.159C218.308 136.159 216.74 138.023 216.74 140.705C216.74 143.386 218.286 145.182 220.808 145.182ZM218.087 139.932C218.178 138.574 219.138 137.364 220.672 137.364C222.126 137.364 223.058 138.455 223.058 139.932H218.087ZM227.803 136.273H226.462V145H227.803V141.273H231.984V145H233.325V136.273H231.984V140.023H227.803V136.273ZM235.774 145H237.115V141.318H238.32L241.183 145H242.911L239.342 140.477L242.865 136.273H241.138L238.001 140.068H237.115V136.273H235.774V145ZM246.936 145.205C248.459 145.205 249.254 144.386 249.527 143.818H249.595V145H250.936V139.25C250.936 136.477 248.822 136.159 247.709 136.159C246.391 136.159 244.891 136.614 244.209 138.205L245.482 138.659C245.777 138.023 246.476 137.341 247.754 137.341C248.987 137.341 249.595 137.994 249.595 139.114V139.159C249.595 139.807 248.936 139.75 247.345 139.955C245.726 140.165 243.959 140.523 243.959 142.523C243.959 144.227 245.277 145.205 246.936 145.205ZM247.141 144C246.072 144 245.3 143.523 245.3 142.591C245.3 141.568 246.232 141.25 247.277 141.114C247.845 141.045 249.368 140.886 249.595 140.614V141.841C249.595 142.932 248.732 144 247.141 144ZM54.2273 164H55.5682V156.523H59.75V164H61.0909V155.273H54.2273V164ZM67.0852 164.182C69.4489 164.182 71.0398 162.386 71.0398 159.682C71.0398 156.955 69.4489 155.159 67.0852 155.159C64.7216 155.159 63.1307 156.955 63.1307 159.682C63.1307 162.386 64.7216 164.182 67.0852 164.182ZM67.0852 162.977C65.2898 162.977 64.4716 161.432 64.4716 159.682C64.4716 157.932 65.2898 156.364 67.0852 156.364C68.8807 156.364 69.6989 157.932 69.6989 159.682C69.6989 161.432 68.8807 162.977 67.0852 162.977ZM72.1548 166.5H73.4957V164H79.9503V166.5H81.2912V162.75H79.9503V155.273H74.4048L74.1094 158.727C73.8991 161.17 73.5866 162.011 72.8821 162.75H72.1548V166.5ZM74.4048 162.75C75.0185 161.943 75.2401 160.551 75.4276 158.727L75.6548 156.523H78.6094V162.75H74.4048ZM82.1392 166.5H83.4801V164H89.9347V166.5H91.2756V162.75H89.9347V155.273H84.3892L84.0938 158.727C83.8835 161.17 83.571 162.011 82.8665 162.75H82.1392V166.5ZM84.3892 162.75C85.0028 161.943 85.2244 160.551 85.4119 158.727L85.6392 156.523H88.5938V162.75H84.3892ZM96.7145 164.182C98.4872 164.182 99.7827 163.295 100.192 161.977L98.8963 161.614C98.5554 162.523 97.7656 162.977 96.7145 162.977C95.1406 162.977 94.0554 161.96 93.9929 160.091H100.328V159.523C100.328 156.273 98.3963 155.159 96.5781 155.159C94.2145 155.159 92.6463 157.023 92.6463 159.705C92.6463 162.386 94.1918 164.182 96.7145 164.182ZM93.9929 158.932C94.0838 157.574 95.044 156.364 96.5781 156.364C98.0327 156.364 98.9645 157.455 98.9645 158.932H93.9929ZM102.368 167.273H103.709V162.659H103.822C104.118 163.136 104.686 164.182 106.368 164.182C108.55 164.182 110.072 162.432 110.072 159.659C110.072 156.909 108.55 155.159 106.345 155.159C104.641 155.159 104.118 156.205 103.822 156.659H103.663V155.273H102.368V167.273ZM103.686 159.636C103.686 157.682 104.55 156.364 106.186 156.364C107.891 156.364 108.732 157.795 108.732 159.636C108.732 161.5 107.868 162.977 106.186 162.977C104.572 162.977 103.686 161.614 103.686 159.636ZM115.777 164.182C117.55 164.182 118.845 163.295 119.254 161.977L117.959 161.614C117.618 162.523 116.828 162.977 115.777 162.977C114.203 162.977 113.118 161.96 113.055 160.091H119.391V159.523C119.391 156.273 117.459 155.159 115.641 155.159C113.277 155.159 111.709 157.023 111.709 159.705C111.709 162.386 113.254 164.182 115.777 164.182ZM113.055 158.932C113.146 157.574 114.107 156.364 115.641 156.364C117.095 156.364 118.027 157.455 118.027 158.932H113.055ZM121.43 164H125.544C127.317 164 128.385 163 128.385 161.659C128.385 160.29 127.345 159.551 126.385 159.409C127.368 159.205 128.067 158.653 128.067 157.591C128.067 156.199 126.874 155.273 124.999 155.273H121.43V164ZM122.703 162.773V160.091H125.544C126.464 160.091 127.021 160.642 127.021 161.545C127.021 162.307 126.464 162.773 125.544 162.773H122.703ZM122.703 158.932V156.5H124.999C126.072 156.5 126.726 156.949 126.726 157.682C126.726 158.46 126.072 158.932 124.999 158.932H122.703ZM132.983 164.205C134.506 164.205 135.301 163.386 135.574 162.818H135.642V164H136.983V158.25C136.983 155.477 134.869 155.159 133.756 155.159C132.438 155.159 130.938 155.614 130.256 157.205L131.528 157.659C131.824 157.023 132.523 156.341 133.801 156.341C135.034 156.341 135.642 156.994 135.642 158.114V158.159C135.642 158.807 134.983 158.75 133.392 158.955C131.773 159.165 130.006 159.523 130.006 161.523C130.006 163.227 131.324 164.205 132.983 164.205ZM133.188 163C132.119 163 131.347 162.523 131.347 161.591C131.347 160.568 132.278 160.25 133.324 160.114C133.892 160.045 135.415 159.886 135.642 159.614V160.841C135.642 161.932 134.778 163 133.188 163ZM140.408 164.091C140.97 164.091 141.43 163.631 141.43 163.068C141.43 162.506 140.97 162.045 140.408 162.045C139.845 162.045 139.385 162.506 139.385 163.068C139.385 163.631 139.845 164.091 140.408 164.091ZM57.5 179.682C58.8807 179.682 60 178.562 60 177.182C60 175.801 58.8807 174.682 57.5 174.682C56.1193 174.682 55 175.801 55 177.182C55 178.562 56.1193 179.682 57.5 179.682ZM67.9091 171.364V183H69.2727L75.6136 173.864H75.7273V183H77.1364V171.364H75.7727L69.4091 180.523H69.2955V171.364H67.9091ZM81.1151 174.273H79.7741V183H81.1151V179.273H85.2969V183H86.6378V174.273H85.2969V178.023H81.1151V174.273ZM91.6548 183.205C93.1776 183.205 93.973 182.386 94.2457 181.818H94.3139V183H95.6548V177.25C95.6548 174.477 93.5412 174.159 92.4276 174.159C91.1094 174.159 89.6094 174.614 88.9276 176.205L90.2003 176.659C90.4957 176.023 91.1946 175.341 92.473 175.341C93.706 175.341 94.3139 175.994 94.3139 177.114V177.159C94.3139 177.807 93.6548 177.75 92.0639 177.955C90.4446 178.165 88.6776 178.523 88.6776 180.523C88.6776 182.227 89.9957 183.205 91.6548 183.205ZM91.8594 182C90.7912 182 90.0185 181.523 90.0185 180.591C90.0185 179.568 90.9503 179.25 91.9957 179.114C92.5639 179.045 94.0866 178.886 94.3139 178.614V179.841C94.3139 180.932 93.4503 182 91.8594 182ZM104.83 174.273H103.489V178.699C102.841 178.886 102.176 179 101.375 179C100.284 179 99.4432 178.386 99.4432 177.045V174.25H98.1023V177.045C98.1023 179.182 99.3977 180.25 101.375 180.25C102.199 180.25 102.858 180.142 103.489 179.955V183H104.83V174.273ZM110.949 183.182C112.722 183.182 114.017 182.295 114.426 180.977L113.131 180.614C112.79 181.523 112 181.977 110.949 181.977C109.375 181.977 108.29 180.96 108.227 179.091H114.562V178.523C114.562 175.273 112.631 174.159 110.812 174.159C108.449 174.159 106.881 176.023 106.881 178.705C106.881 181.386 108.426 183.182 110.949 183.182ZM108.227 177.932C108.318 176.574 109.278 175.364 110.812 175.364C112.267 175.364 113.199 176.455 113.199 177.932H108.227ZM121.102 186.273H122.443V181.659H122.557C122.852 182.136 123.42 183.182 125.102 183.182C127.284 183.182 128.807 181.432 128.807 178.659C128.807 175.909 127.284 174.159 125.08 174.159C123.375 174.159 122.852 175.205 122.557 175.659H122.398V174.273H121.102V186.273ZM122.42 178.636C122.42 176.682 123.284 175.364 124.92 175.364C126.625 175.364 127.466 176.795 127.466 178.636C127.466 180.5 126.602 181.977 124.92 181.977C123.307 181.977 122.42 180.614 122.42 178.636ZM134.511 183.182C136.284 183.182 137.58 182.295 137.989 180.977L136.693 180.614C136.352 181.523 135.562 181.977 134.511 181.977C132.938 181.977 131.852 180.96 131.79 179.091H138.125V178.523C138.125 175.273 136.193 174.159 134.375 174.159C132.011 174.159 130.443 176.023 130.443 178.705C130.443 181.386 131.989 183.182 134.511 183.182ZM131.79 177.932C131.881 176.574 132.841 175.364 134.375 175.364C135.83 175.364 136.761 176.455 136.761 177.932H131.79ZM140.165 183H141.506V179.318H142.71L145.574 183H147.301L143.733 178.477L147.256 174.273H145.528L142.392 178.068H141.506V174.273H140.165V183ZM149.622 186.25C150.832 186.25 151.69 185.608 152.19 184.273L155.906 174.295L154.44 174.273L152.031 181.227H151.94L149.531 174.273H148.077L151.304 183.045L151.054 183.727C150.577 185.034 149.963 185.159 148.986 184.909L148.645 186.091C148.781 186.159 149.168 186.25 149.622 186.25ZM157.68 186.273H159.021V181.659H159.135C159.43 182.136 159.999 183.182 161.68 183.182C163.862 183.182 165.385 181.432 165.385 178.659C165.385 175.909 163.862 174.159 161.658 174.159C159.953 174.159 159.43 175.205 159.135 175.659H158.976V174.273H157.68V186.273ZM158.999 178.636C158.999 176.682 159.862 175.364 161.499 175.364C163.203 175.364 164.044 176.795 164.044 178.636C164.044 180.5 163.18 181.977 161.499 181.977C159.885 181.977 158.999 180.614 158.999 178.636ZM170.976 183.182C172.908 183.182 174.18 182 174.408 180.455H173.067C172.817 181.409 172.021 181.977 170.976 181.977C169.385 181.977 168.362 180.659 168.362 178.636C168.362 176.659 169.408 175.364 170.976 175.364C172.158 175.364 172.862 176.091 173.067 176.886H174.408C174.18 175.25 172.794 174.159 170.953 174.159C168.589 174.159 167.021 176.023 167.021 178.682C167.021 181.295 168.521 183.182 170.976 183.182ZM177.709 181.023V174.273H176.368V183H177.936L182.118 176.25V183H183.459V174.273H181.913L177.709 181.023ZM185.915 183H190.028C191.801 183 192.869 182 192.869 180.659C192.869 179.29 191.83 178.551 190.869 178.409C191.852 178.205 192.551 177.653 192.551 176.591C192.551 175.199 191.358 174.273 189.483 174.273H185.915V183ZM187.188 181.773V179.091H190.028C190.949 179.091 191.506 179.642 191.506 180.545C191.506 181.307 190.949 181.773 190.028 181.773H187.188ZM187.188 177.932V175.5H189.483C190.557 175.5 191.21 175.949 191.21 176.682C191.21 177.46 190.557 177.932 189.483 177.932H187.188ZM196.24 174.273H194.899V183H196.24V179.273H200.422V183H201.763V174.273H200.422V178.023H196.24V174.273ZM207.757 183.182C210.121 183.182 211.712 181.386 211.712 178.682C211.712 175.955 210.121 174.159 207.757 174.159C205.393 174.159 203.803 175.955 203.803 178.682C203.803 181.386 205.393 183.182 207.757 183.182ZM207.757 181.977C205.962 181.977 205.143 180.432 205.143 178.682C205.143 176.932 205.962 175.364 207.757 175.364C209.553 175.364 210.371 176.932 210.371 178.682C210.371 180.432 209.553 181.977 207.757 181.977ZM217.327 185.5H218.668V183H225.122V185.5H226.463V181.75H225.122V174.273H219.577L219.281 177.727C219.071 180.17 218.759 181.011 218.054 181.75H217.327V185.5ZM219.577 181.75C220.19 180.943 220.412 179.551 220.599 177.727L220.827 175.523H223.781V181.75H219.577ZM231.788 183.182C234.152 183.182 235.743 181.386 235.743 178.682C235.743 175.955 234.152 174.159 231.788 174.159C229.425 174.159 227.834 175.955 227.834 178.682C227.834 181.386 229.425 183.182 231.788 183.182ZM231.788 181.977C229.993 181.977 229.175 180.432 229.175 178.682C229.175 176.932 229.993 175.364 231.788 175.364C233.584 175.364 234.402 176.932 234.402 178.682C234.402 180.432 233.584 181.977 231.788 181.977ZM244.267 171C243.841 171.358 243.205 171.358 242.312 171.352C242.023 171.352 241.705 171.352 241.358 171.364C238.699 171.432 237.381 173.455 237.381 177.341V178.273C237.381 181.5 238.949 183.182 241.29 183.182C243.625 183.182 245.176 181.489 245.176 178.75C245.176 176 243.602 174.545 241.562 174.545C240.364 174.545 239.244 175.045 238.653 176.136H238.54C238.722 173.886 239.562 172.682 241.381 172.614C242.994 172.545 244.153 172.591 244.949 171.818L244.267 171ZM241.29 181.977C239.699 181.977 238.722 180.705 238.722 178.75C238.75 176.841 239.71 175.75 241.267 175.75C242.864 175.75 243.835 176.841 243.835 178.75C243.835 180.716 242.869 181.977 241.29 181.977ZM249.795 183.205C251.318 183.205 252.114 182.386 252.386 181.818H252.455V183H253.795V177.25C253.795 174.477 251.682 174.159 250.568 174.159C249.25 174.159 247.75 174.614 247.068 176.205L248.341 176.659C248.636 176.023 249.335 175.341 250.614 175.341C251.847 175.341 252.455 175.994 252.455 177.114V177.159C252.455 177.807 251.795 177.75 250.205 177.955C248.585 178.165 246.818 178.523 246.818 180.523C246.818 182.227 248.136 183.205 249.795 183.205ZM250 182C248.932 182 248.159 181.523 248.159 180.591C248.159 179.568 249.091 179.25 250.136 179.114C250.705 179.045 252.227 178.886 252.455 178.614V179.841C252.455 180.932 251.591 182 250 182ZM256.243 183H260.357C262.129 183 263.197 182 263.197 180.659C263.197 179.29 262.158 178.551 261.197 178.409C262.18 178.205 262.879 177.653 262.879 176.591C262.879 175.199 261.686 174.273 259.811 174.273H256.243V183ZM257.516 181.773V179.091H260.357C261.277 179.091 261.834 179.642 261.834 180.545C261.834 181.307 261.277 181.773 260.357 181.773H257.516ZM257.516 177.932V175.5H259.811C260.885 175.5 261.538 175.949 261.538 176.682C261.538 177.46 260.885 177.932 259.811 177.932H257.516ZM266.568 181.023V174.273H265.227V183H266.795L270.977 176.25V183H272.318V174.273H270.773L266.568 181.023ZM273.587 175.523H276.473V183H277.814V175.523H280.678V174.273H273.587V175.523ZM283.974 177.432V174.273H282.634V183H286.293C288.338 183 289.452 181.75 289.452 180.182C289.452 178.591 288.338 177.432 286.293 177.432H283.974ZM283.974 178.682H286.293C287.355 178.682 288.111 179.33 288.111 180.25C288.111 181.131 287.355 181.75 286.293 181.75H283.974V178.682ZM54.2273 202H58.3409C60.1136 202 61.1818 201 61.1818 199.659C61.1818 198.29 60.142 197.551 59.1818 197.409C60.1648 197.205 60.8636 196.653 60.8636 195.591C60.8636 194.199 59.6705 193.273 57.7955 193.273H54.2273V202ZM55.5 200.773V198.091H58.3409C59.2614 198.091 59.8182 198.642 59.8182 199.545C59.8182 200.307 59.2614 200.773 58.3409 200.773H55.5ZM55.5 196.932V194.5H57.7955C58.8693 194.5 59.5227 194.949 59.5227 195.682C59.5227 196.46 58.8693 196.932 57.7955 196.932H55.5ZM66.8707 202.182C68.6435 202.182 69.9389 201.295 70.348 199.977L69.0526 199.614C68.7116 200.523 67.9219 200.977 66.8707 200.977C65.2969 200.977 64.2116 199.96 64.1491 198.091H70.4844V197.523C70.4844 194.273 68.5526 193.159 66.7344 193.159C64.3707 193.159 62.8026 195.023 62.8026 197.705C62.8026 200.386 64.348 202.182 66.8707 202.182ZM64.1491 196.932C64.2401 195.574 65.2003 194.364 66.7344 194.364C68.1889 194.364 69.1207 195.455 69.1207 196.932H64.1491ZM72.5241 205.273H73.8651V200.659H73.9787C74.2741 201.136 74.8423 202.182 76.5241 202.182C78.706 202.182 80.2287 200.432 80.2287 197.659C80.2287 194.909 78.706 193.159 76.5014 193.159C74.7969 193.159 74.2741 194.205 73.9787 194.659H73.8196V193.273H72.5241V205.273ZM73.8423 197.636C73.8423 195.682 74.706 194.364 76.3423 194.364C78.0469 194.364 78.8878 195.795 78.8878 197.636C78.8878 199.5 78.0241 200.977 76.3423 200.977C74.7287 200.977 73.8423 199.614 73.8423 197.636ZM82.2741 193.273V202H92.8878V193.273H91.5469V200.75H88.2514V193.273H86.9105V200.75H83.6151V193.273H82.2741ZM96.6776 200.023V193.273H95.3366V202H96.9048L101.087 195.25V202H102.428V193.273H100.882L96.6776 200.023ZM106.224 193.273H104.884V202H106.224V198.273H110.406V202H111.747V193.273H110.406V197.023H106.224V193.273ZM114.747 205.25C115.957 205.25 116.815 204.608 117.315 203.273L121.031 193.295L119.565 193.273L117.156 200.227H117.065L114.656 193.273H113.202L116.429 202.045L116.179 202.727C115.702 204.034 115.088 204.159 114.111 203.909L113.77 205.091C113.906 205.159 114.293 205.25 114.747 205.25ZM130.851 202.182C132.783 202.182 134.055 201 134.283 199.455H132.942C132.692 200.409 131.896 200.977 130.851 200.977C129.26 200.977 128.237 199.659 128.237 197.636C128.237 195.659 129.283 194.364 130.851 194.364C132.033 194.364 132.737 195.091 132.942 195.886H134.283C134.055 194.25 132.669 193.159 130.828 193.159C128.464 193.159 126.896 195.023 126.896 197.682C126.896 200.295 128.396 202.182 130.851 202.182ZM140.743 202H142.084V198.318H143.288L146.152 202H147.879L144.311 197.477L147.834 193.273H146.107L142.97 197.068H142.084V193.273H140.743V202ZM148.564 202H149.018C150.95 202 151.507 200.5 151.632 197.636L151.768 194.523H154.973V202H156.314V193.273H150.496L150.337 197.136C150.223 200.068 149.928 200.75 148.882 200.75H148.564V202ZM159.479 193.273H158.138V202H159.479V198.341H161.717C161.956 200.676 163.473 202.182 165.638 202.182C168.001 202.182 169.592 200.386 169.592 197.682C169.592 194.955 168.001 193.159 165.638 193.159C163.45 193.159 161.922 194.699 161.712 197.091H159.479V193.273ZM165.638 200.977C163.842 200.977 163.024 199.432 163.024 197.682C163.024 195.932 163.842 194.364 165.638 194.364C167.433 194.364 168.251 195.932 168.251 197.682C168.251 199.432 167.433 200.977 165.638 200.977ZM178.501 193.273H177.161V197.699C176.513 197.886 175.848 198 175.047 198C173.956 198 173.115 197.386 173.115 196.045V193.25H171.774V196.045C171.774 198.182 173.07 199.25 175.047 199.25C175.871 199.25 176.53 199.142 177.161 198.955V202H178.501V193.273ZM184.507 202.182C186.871 202.182 188.462 200.386 188.462 197.682C188.462 194.955 186.871 193.159 184.507 193.159C182.143 193.159 180.553 194.955 180.553 197.682C180.553 200.386 182.143 202.182 184.507 202.182ZM184.507 200.977C182.712 200.977 181.893 199.432 181.893 197.682C181.893 195.932 182.712 194.364 184.507 194.364C186.303 194.364 187.121 195.932 187.121 197.682C187.121 199.432 186.303 200.977 184.507 200.977ZM195.281 200.182L192.281 193.273H190.509V202H191.849V195.199L194.736 202H195.827L198.713 195.324V202H200.054V193.273H198.327L195.281 200.182ZM207.19 202H208.599V198.227L210.054 196.591L214.099 202H215.804L210.918 195.614L215.804 190.364H213.963L208.736 196.136H208.599V190.364H207.19V202ZM221.946 202H226.06C227.832 202 228.901 201 228.901 199.659C228.901 198.29 227.861 197.551 226.901 197.409C227.884 197.205 228.582 196.653 228.582 195.591C228.582 194.199 227.389 193.273 225.514 193.273H221.946V202ZM223.219 200.773V198.091H226.06C226.98 198.091 227.537 198.642 227.537 199.545C227.537 200.307 226.98 200.773 226.06 200.773H223.219ZM223.219 196.932V194.5H225.514C226.588 194.5 227.241 194.949 227.241 195.682C227.241 196.46 226.588 196.932 225.514 196.932H223.219ZM234.658 202H235.112C237.044 202 237.601 200.5 237.726 197.636L237.862 194.523H241.067V202H242.408V193.273H236.589L236.43 197.136C236.317 200.068 236.021 200.75 234.976 200.75H234.658V202ZM248.527 202.182C250.3 202.182 251.595 201.295 252.004 199.977L250.709 199.614C250.368 200.523 249.578 200.977 248.527 200.977C246.953 200.977 245.868 199.96 245.805 198.091H252.141V197.523C252.141 194.273 250.209 193.159 248.391 193.159C246.027 193.159 244.459 195.023 244.459 197.705C244.459 200.386 246.004 202.182 248.527 202.182ZM245.805 196.932C245.896 195.574 246.857 194.364 248.391 194.364C249.845 194.364 250.777 195.455 250.777 196.932H245.805ZM254.18 202H258.294C260.067 202 261.135 201 261.135 199.659C261.135 198.29 260.095 197.551 259.135 197.409C260.118 197.205 260.817 196.653 260.817 195.591C260.817 194.199 259.624 193.273 257.749 193.273H254.18V202ZM255.453 200.773V198.091H258.294C259.214 198.091 259.771 198.642 259.771 199.545C259.771 200.307 259.214 200.773 258.294 200.773H255.453ZM255.453 196.932V194.5H257.749C258.822 194.5 259.476 194.949 259.476 195.682C259.476 196.46 258.822 196.932 257.749 196.932H255.453ZM266.71 202.182C269.074 202.182 270.665 200.386 270.665 197.682C270.665 194.955 269.074 193.159 266.71 193.159C264.347 193.159 262.756 194.955 262.756 197.682C262.756 200.386 264.347 202.182 266.71 202.182ZM266.71 200.977C264.915 200.977 264.097 199.432 264.097 197.682C264.097 195.932 264.915 194.364 266.71 194.364C268.506 194.364 269.324 195.932 269.324 197.682C269.324 199.432 268.506 200.977 266.71 200.977ZM276.371 202.182C278.143 202.182 279.439 201.295 279.848 199.977L278.553 199.614C278.212 200.523 277.422 200.977 276.371 200.977C274.797 200.977 273.712 199.96 273.649 198.091H279.984V197.523C279.984 194.273 278.053 193.159 276.234 193.159C273.871 193.159 272.303 195.023 272.303 197.705C272.303 200.386 273.848 202.182 276.371 202.182ZM273.649 196.932C273.74 195.574 274.7 194.364 276.234 194.364C277.689 194.364 278.621 195.455 278.621 196.932H273.649ZM54.2273 221H55.5682V213.523H59.75V221H61.0909V212.273H54.2273V221ZM67.0852 221.182C69.4489 221.182 71.0398 219.386 71.0398 216.682C71.0398 213.955 69.4489 212.159 67.0852 212.159C64.7216 212.159 63.1307 213.955 63.1307 216.682C63.1307 219.386 64.7216 221.182 67.0852 221.182ZM67.0852 219.977C65.2898 219.977 64.4716 218.432 64.4716 216.682C64.4716 214.932 65.2898 213.364 67.0852 213.364C68.8807 213.364 69.6989 214.932 69.6989 216.682C69.6989 218.432 68.8807 219.977 67.0852 219.977ZM72.1548 223.5H73.4957V221H79.9503V223.5H81.2912V219.75H79.9503V212.273H74.4048L74.1094 215.727C73.8991 218.17 73.5866 219.011 72.8821 219.75H72.1548V223.5ZM74.4048 219.75C75.0185 218.943 75.2401 217.551 75.4276 215.727L75.6548 213.523H78.6094V219.75H74.4048ZM82.1392 223.5H83.4801V221H89.9347V223.5H91.2756V219.75H89.9347V212.273H84.3892L84.0938 215.727C83.8835 218.17 83.571 219.011 82.8665 219.75H82.1392V223.5ZM84.3892 219.75C85.0028 218.943 85.2244 217.551 85.4119 215.727L85.6392 213.523H88.5938V219.75H84.3892ZM96.7145 221.182C98.4872 221.182 99.7827 220.295 100.192 218.977L98.8963 218.614C98.5554 219.523 97.7656 219.977 96.7145 219.977C95.1406 219.977 94.0554 218.96 93.9929 217.091H100.328V216.523C100.328 213.273 98.3963 212.159 96.5781 212.159C94.2145 212.159 92.6463 214.023 92.6463 216.705C92.6463 219.386 94.1918 221.182 96.7145 221.182ZM93.9929 215.932C94.0838 214.574 95.044 213.364 96.5781 213.364C98.0327 213.364 98.9645 214.455 98.9645 215.932H93.9929ZM102.368 224.273H103.709V219.659H103.822C104.118 220.136 104.686 221.182 106.368 221.182C108.55 221.182 110.072 219.432 110.072 216.659C110.072 213.909 108.55 212.159 106.345 212.159C104.641 212.159 104.118 213.205 103.822 213.659H103.663V212.273H102.368V224.273ZM103.686 216.636C103.686 214.682 104.55 213.364 106.186 213.364C107.891 213.364 108.732 214.795 108.732 216.636C108.732 218.5 107.868 219.977 106.186 219.977C104.572 219.977 103.686 218.614 103.686 216.636ZM115.777 221.182C117.55 221.182 118.845 220.295 119.254 218.977L117.959 218.614C117.618 219.523 116.828 219.977 115.777 219.977C114.203 219.977 113.118 218.96 113.055 217.091H119.391V216.523C119.391 213.273 117.459 212.159 115.641 212.159C113.277 212.159 111.709 214.023 111.709 216.705C111.709 219.386 113.254 221.182 115.777 221.182ZM113.055 215.932C113.146 214.574 114.107 213.364 115.641 213.364C117.095 213.364 118.027 214.455 118.027 215.932H113.055ZM121.43 221H125.544C127.317 221 128.385 220 128.385 218.659C128.385 217.29 127.345 216.551 126.385 216.409C127.368 216.205 128.067 215.653 128.067 214.591C128.067 213.199 126.874 212.273 124.999 212.273H121.43V221ZM122.703 219.773V217.091H125.544C126.464 217.091 127.021 217.642 127.021 218.545C127.021 219.307 126.464 219.773 125.544 219.773H122.703ZM122.703 215.932V213.5H124.999C126.072 213.5 126.726 213.949 126.726 214.682C126.726 215.46 126.072 215.932 124.999 215.932H122.703ZM133.96 221.182C136.324 221.182 137.915 219.386 137.915 216.682C137.915 213.955 136.324 212.159 133.96 212.159C131.597 212.159 130.006 213.955 130.006 216.682C130.006 219.386 131.597 221.182 133.96 221.182ZM133.96 219.977C132.165 219.977 131.347 218.432 131.347 216.682C131.347 214.932 132.165 213.364 133.96 213.364C135.756 213.364 136.574 214.932 136.574 216.682C136.574 218.432 135.756 219.977 133.96 219.977ZM143.53 223.5H144.871V221H151.325V223.5H152.666V219.75H151.325V212.273H145.78L145.484 215.727C145.274 218.17 144.962 219.011 144.257 219.75H143.53V223.5ZM145.78 219.75C146.393 218.943 146.615 217.551 146.803 215.727L147.03 213.523H149.984V219.75H145.78ZM158.105 221.182C159.878 221.182 161.173 220.295 161.582 218.977L160.287 218.614C159.946 219.523 159.156 219.977 158.105 219.977C156.531 219.977 155.446 218.96 155.384 217.091H161.719V216.523C161.719 213.273 159.787 212.159 157.969 212.159C155.605 212.159 154.037 214.023 154.037 216.705C154.037 219.386 155.582 221.182 158.105 221.182ZM155.384 215.932C155.474 214.574 156.435 213.364 157.969 213.364C159.423 213.364 160.355 214.455 160.355 215.932H155.384ZM163.759 224.273H165.099V219.659H165.213C165.509 220.136 166.077 221.182 167.759 221.182C169.94 221.182 171.463 219.432 171.463 216.659C171.463 213.909 169.94 212.159 167.736 212.159C166.031 212.159 165.509 213.205 165.213 213.659H165.054V212.273H163.759V224.273ZM165.077 216.636C165.077 214.682 165.94 213.364 167.577 213.364C169.281 213.364 170.122 214.795 170.122 216.636C170.122 218.5 169.259 219.977 167.577 219.977C165.963 219.977 165.077 218.614 165.077 216.636ZM177.168 221.182C178.94 221.182 180.236 220.295 180.645 218.977L179.349 218.614C179.009 219.523 178.219 219.977 177.168 219.977C175.594 219.977 174.509 218.96 174.446 217.091H180.781V216.523C180.781 213.273 178.849 212.159 177.031 212.159C174.668 212.159 173.099 214.023 173.099 216.705C173.099 219.386 174.645 221.182 177.168 221.182ZM174.446 215.932C174.537 214.574 175.497 213.364 177.031 213.364C178.486 213.364 179.418 214.455 179.418 215.932H174.446ZM182.821 221H186.935C188.707 221 189.776 220 189.776 218.659C189.776 217.29 188.736 216.551 187.776 216.409C188.759 216.205 189.457 215.653 189.457 214.591C189.457 213.199 188.264 212.273 186.389 212.273H182.821V221ZM184.094 219.773V217.091H186.935C187.855 217.091 188.412 217.642 188.412 218.545C188.412 219.307 187.855 219.773 186.935 219.773H184.094ZM184.094 215.932V213.5H186.389C187.463 213.5 188.116 213.949 188.116 214.682C188.116 215.46 187.463 215.932 186.389 215.932H184.094ZM194.374 221.205C195.896 221.205 196.692 220.386 196.964 219.818H197.033V221H198.374V215.25C198.374 212.477 196.26 212.159 195.146 212.159C193.828 212.159 192.328 212.614 191.646 214.205L192.919 214.659C193.214 214.023 193.913 213.341 195.192 213.341C196.425 213.341 197.033 213.994 197.033 215.114V215.159C197.033 215.807 196.374 215.75 194.783 215.955C193.163 216.165 191.396 216.523 191.396 218.523C191.396 220.227 192.714 221.205 194.374 221.205ZM194.578 220C193.51 220 192.737 219.523 192.737 218.591C192.737 217.568 193.669 217.25 194.714 217.114C195.283 217.045 196.805 216.886 197.033 216.614V217.841C197.033 218.932 196.169 220 194.578 220ZM208.866 221.182C210.798 221.182 212.071 220 212.298 218.455H210.957C210.707 219.409 209.912 219.977 208.866 219.977C207.276 219.977 206.253 218.659 206.253 216.636C206.253 214.659 207.298 213.364 208.866 213.364C210.048 213.364 210.753 214.091 210.957 214.886H212.298C212.071 213.25 210.685 212.159 208.844 212.159C206.48 212.159 204.912 214.023 204.912 216.682C204.912 219.295 206.412 221.182 208.866 221.182ZM218.759 221H220.099V217.318H221.304L224.168 221H225.895L222.327 216.477L225.849 212.273H224.122L220.986 216.068H220.099V212.273H218.759V221ZM226.58 221H227.034C228.966 221 229.523 219.5 229.648 216.636L229.784 213.523H232.989V221H234.33V212.273H228.511L228.352 216.136C228.239 219.068 227.943 219.75 226.898 219.75H226.58V221ZM237.494 212.273H236.153V221H237.494V217.341H239.733C239.972 219.676 241.489 221.182 243.653 221.182C246.017 221.182 247.608 219.386 247.608 216.682C247.608 213.955 246.017 212.159 243.653 212.159C241.466 212.159 239.938 213.699 239.727 216.091H237.494V212.273ZM243.653 219.977C241.858 219.977 241.04 218.432 241.04 216.682C241.04 214.932 241.858 213.364 243.653 213.364C245.449 213.364 246.267 214.932 246.267 216.682C246.267 218.432 245.449 219.977 243.653 219.977ZM256.517 212.273H255.176V216.699C254.528 216.886 253.864 217 253.062 217C251.972 217 251.131 216.386 251.131 215.045V212.25H249.79V215.045C249.79 217.182 251.085 218.25 253.062 218.25C253.886 218.25 254.545 218.142 255.176 217.955V221H256.517V212.273ZM262.523 221.182C264.886 221.182 266.477 219.386 266.477 216.682C266.477 213.955 264.886 212.159 262.523 212.159C260.159 212.159 258.568 213.955 258.568 216.682C258.568 219.386 260.159 221.182 262.523 221.182ZM262.523 219.977C260.727 219.977 259.909 218.432 259.909 216.682C259.909 214.932 260.727 213.364 262.523 213.364C264.318 213.364 265.136 214.932 265.136 216.682C265.136 218.432 264.318 219.977 262.523 219.977ZM273.297 219.182L270.297 212.273H268.524V221H269.865V214.199L272.751 221H273.842L276.729 214.324V221H278.07V212.273H276.342L273.297 219.182ZM55.0909 228.364H53.4318L57.1818 234.182L53.4318 240H55.0909L58.0909 235.25H58.1818L61.1818 240H62.8409L59.1818 234.182L62.8409 228.364H61.1818L58.1818 233.205H58.0909L55.0909 228.364ZM65.4702 240.091C66.0327 240.091 66.4929 239.631 66.4929 239.068C66.4929 238.506 66.0327 238.045 65.4702 238.045C64.9077 238.045 64.4474 238.506 64.4474 239.068C64.4474 239.631 64.9077 240.091 65.4702 240.091Z" fill="black"/>
</svg>
