<svg width="36" height="35" fill="none" xmlns="http://www.w3.org/2000/svg"><path d="M26.845 31.787L31.051 9.23H4.95l4.206 22.558h17.69z" fill="#DEECF1"/><path d="M18 31.787h8.845L31.051 9.23H18v22.558z" fill="#C6E2E7"/><path d="M30.014 9.046l-1.386 7.429h-3.825l.816-7.133-2.097-.227-.841 7.36h-3.626V9.229h-2.11v7.246H13.32l-.841-7.36-2.096.227.815 7.133H7.372l-1.386-7.43-2.075.366L8.117 31.97l2.075-.366-1.291-6.926h3.233l.826 7.222 2.096-.226-.8-6.996h2.69v7.11h2.109v-7.11h2.689l-.8 6.996 2.096.226.826-7.222h3.233l-1.291 6.926 2.075.366L32.09 9.411l-2.075-.365zM8.518 22.627l-.765-4.102h3.677l.469 4.102h-3.38zm5.503 0l-.469-4.102h3.392v4.102h-2.923zm5.033 0v-4.102h3.392l-.47 4.102h-2.922zm5.045 0l.469-4.102h3.677l-.765 4.102H24.1z" fill="#A8D3D8"/><path d="M28.628 16.475h-3.825l.816-7.133-2.097-.227-.841 7.36h-3.626V9.229H18v22.558h1.055v-7.11h2.689l-.8 6.997 2.096.226.826-7.222h3.233l-1.291 6.926 2.075.366L32.09 9.411l-2.075-.365-1.386 7.429zm-6.65 6.152h-2.923v-4.102h3.392l-.47 4.102zm5.503 0h-3.38l.468-4.102h3.677l-.765 4.102z" fill="#8EBAC5"/><path d="M14.549.301L14.219 0h-.874L6.707 6.453 8.2 7.903l5.591.716 4.96-4.22L14.549.302z" fill="#A8D3D8"/><path d="M29.285 6.46H15.152L18 3.69 21.776 0h.886l.316.308 6.307 6.152z" fill="#DEECF1"/><path d="M29.285 6.46H18V3.69L21.776 0h.886l.316.308 6.307 6.152z" fill="#C6E2E7"/><path d="M28.146 30.762L27.492 35H8.508l-.654-4.238h20.292z" fill="#825B43"/><path d="M18 30.762h10.146L27.492 35H18v-4.238z" fill="#BB7C56"/><path d="M33.82 6.152H2.18v4.102h31.64V6.152z" fill="#825B43"/><path d="M33.82 6.152H18v4.102h15.82V6.152z" fill="#BB7C56"/></svg>