<svg width="36" height="35" viewBox="0 0 36 35" fill="none" xmlns="http://www.w3.org/2000/svg">
<path d="M26.8454 31.7871L31.0513 9.22852H4.94867L9.15462 31.7871H26.8454Z" fill="#DEECF1"/>
<path d="M18 31.7871H26.8454L31.0513 9.22852H18V31.7871Z" fill="#C6E2E7"/>
<path d="M30.0135 9.04565L28.6284 16.4746H24.8033L25.6185 9.34172L23.5221 9.11524L22.681 16.4746H19.0547V9.22852H16.9453V16.4746H13.319L12.4779 9.11531L10.3815 9.34179L11.1966 16.4746H7.37154L5.98645 9.04565L3.91083 9.41145L8.11678 31.97L10.1924 31.6043L8.90098 24.6777H12.1342L12.9596 31.9003L15.0561 31.6738L14.2565 24.6777H16.9453V31.7871H19.0547V24.6777H21.7435L20.9439 31.6739L23.0403 31.9004L23.8658 24.6777H27.099L25.8075 31.6043L27.8832 31.97L32.0891 9.41145L30.0135 9.04565ZM8.51862 22.627L7.7539 18.5254H11.431L11.8998 22.627H8.51862ZM14.0221 22.627L13.5533 18.5254H16.9453V22.627H14.0221ZM19.0547 22.627V18.5254H22.4466L21.9778 22.627H19.0547ZM24.1002 22.627L24.569 18.5254H28.2461L27.4814 22.627H24.1002Z" fill="#A8D3D8"/>
<path d="M28.6284 16.4746H24.8034L25.6186 9.34172L23.5221 9.11524L22.681 16.4746H19.0547V9.22852H18V31.7871H19.0547V24.6777H21.7435L20.9439 31.6739L23.0404 31.9004L23.8658 24.6777H27.099L25.8076 31.6043L27.8832 31.97L32.0891 9.41145L30.0135 9.04565L28.6284 16.4746ZM21.9779 22.627H19.0547V18.5254H22.4466L21.9779 22.627ZM27.4814 22.627H24.1002L24.569 18.5254H28.2461L27.4814 22.627Z" fill="#8EBAC5"/>
<path d="M14.5486 0.301396L14.219 0H13.3445L6.70746 6.45278L8.19879 7.90269L13.7905 8.61868L18.7498 4.39995L14.5486 0.301396Z" fill="#A8D3D8"/>
<path d="M29.2851 6.45989H15.1524L18 3.69141L21.7757 0H22.6618L22.9781 0.307549L29.2851 6.45989Z" fill="#DEECF1"/>
<path d="M29.2851 6.45989H18V3.69141L21.7757 0H22.6618L22.9781 0.307549L29.2851 6.45989Z" fill="#C6E2E7"/>
<path d="M28.1461 30.7617L27.4922 35H8.50779L7.85388 30.7617H28.1461Z" fill="#825B43"/>
<path d="M18 30.7617H28.1461L27.4922 35H18V30.7617Z" fill="#BB7C56"/>
<path d="M33.8203 6.15234H2.17969V10.2539H33.8203V6.15234Z" fill="#825B43"/>
<path d="M33.8203 6.15234H18V10.2539H33.8203V6.15234Z" fill="#BB7C56"/>
</svg>
