<svg xmlns="http://www.w3.org/2000/svg" viewBox="0 0 512 512"><path d="M81.929 501.747l-.154.257a69.916 69.916 0 01-3.706-2.532c-25.797-18.9-25.21-43.626-25.375-60.209.175-128.623 88.271-218.489 210.377-257.503 27.351-8.74 77.76-28.319 125.555-74.044l.278-.278c30.058-32.56 47.898-58.789 53.786-100.448A8.137 8.137 0 01450.73 0v49.583l-47.527 95.08L187.03 289.088 81.929 501.747z" fill="#a47c64"/><path d="M458.883 7.607c3.181 48.176-11.838 84.204-36.883 125.792-56.658 83.412-115.879 107.757-163.231 137.898 2.821 11.529-7.422 32.344-25.951 50.801-12.631 12.6-26.363 21.339-37.491 24.736-6.156 1.884-11.087 6.578-13.351 12.59-10.767 28.535-11.231 60.065-6.918 78.285 12.291 51.923-47.414 93.438-93.284 64.296l.154-.257a384.742 384.742 0 01-.504-19.939c0-53.673 10.603-158.959 87.344-217.82 66.993-51.377 150.662-57.687 204.88-109.6 0 0 76.402-76.68 77.081-154.389h.01c4.304 0 7.866 3.325 8.144 7.607z" fill="#825b43"/><path d="M143.636 512a7.722 7.722 0 01-7.58-6.302c-21.966-117.436 2.088-157.935 3.123-159.601a7.72 7.72 0 0113.159 8.079c-.409.71-21.627 38.966-1.104 148.684a7.72 7.72 0 01-7.598 9.14zm83.901-236.208a7.72 7.72 0 01-6.902-4.25 7.72 7.72 0 013.423-10.367c16.26-8.19 29.495-8.433 37.268-.69a7.722 7.722 0 01.02 10.918 7.723 7.723 0 01-10.919.02c-1.673-1.666-8.225-2.098-19.424 3.542a7.682 7.682 0 01-3.466.827zm-26.961 41.794a7.722 7.722 0 01-5.284-13.352l16.67-15.639a7.722 7.722 0 0110.565 11.262l-16.67 15.639a7.7 7.7 0 01-5.281 2.09z" fill="#5f422f"/><path d="M305.661 46.36c-14.125-2.7-28.951-3.673-45.144-2.613-4.292.281-7.635 3.828-7.631 8.114.004 4.041 2.997 7.46 7.013 8.024 19.592 2.75 35.784 8.113 50.822 16.12l13.787-14.694-18.847-14.951z" fill="#a47c64"/><path d="M375.509 119.586c-30.068-32.566-47.9-58.791-53.788-100.451a8.135 8.135 0 00-8.053-6.988 8.149 8.149 0 00-8.143 7.604c-3.154 47.841 11.626 83.7 36.352 124.913h8.553c13.852-.001 25.079-11.229 25.079-25.078z" fill="#825b43"/></svg>