<svg xmlns="http://www.w3.org/2000/svg" viewBox="0 0 512 512"><path d="M430.071 501.747l.154.257a69.916 69.916 0 003.706-2.532c25.797-18.9 25.21-43.626 25.375-60.209-.175-128.623-88.271-218.489-210.377-257.503-27.351-8.74-77.76-28.319-125.555-74.044l-.278-.278C93.038 74.878 75.198 48.649 69.31 6.99A8.137 8.137 0 0061.27 0v49.583l47.527 95.08L324.97 289.088l105.101 212.659z" fill="#a47c64"/><path d="M53.117 7.607C49.936 55.783 64.955 91.811 90 133.399c56.658 83.412 115.879 107.757 163.231 137.898-2.821 11.529 7.422 32.344 25.951 50.801 12.631 12.6 26.363 21.339 37.491 24.736 6.156 1.884 11.087 6.578 13.351 12.59 10.767 28.535 11.231 60.065 6.918 78.285-12.291 51.923 47.414 93.438 93.284 64.296l-.154-.257c.278-5.332.504-12.085.504-19.939 0-53.673-10.603-158.959-87.344-217.82-66.993-51.377-150.662-57.687-204.88-109.6 0 0-76.402-76.68-77.081-154.389h-.01c-4.304 0-7.866 3.325-8.144 7.607z" fill="#825b43"/><path d="M368.364 512a7.722 7.722 0 007.58-6.302c21.966-117.436-2.088-157.935-3.123-159.601a7.72 7.72 0 00-13.159 8.079c.409.71 21.627 38.966 1.104 148.684a7.72 7.72 0 007.598 9.14zm-83.901-236.208a7.72 7.72 0 006.902-4.25 7.72 7.72 0 00-3.423-10.367c-16.26-8.19-29.495-8.433-37.268-.69a7.722 7.722 0 00-.02 10.918 7.723 7.723 0 0010.919.02c1.673-1.666 8.225-2.098 19.424 3.542a7.682 7.682 0 003.466.827zm26.961 41.794a7.722 7.722 0 005.284-13.352l-16.67-15.639a7.722 7.722 0 00-10.565 11.262l16.67 15.639a7.7 7.7 0 005.281 2.09z" fill="#5f422f"/><path d="M206.339 46.36c14.125-2.7 28.951-3.673 45.144-2.613 4.292.281 7.635 3.828 7.631 8.114-.004 4.041-2.997 7.46-7.013 8.024-19.592 2.75-35.784 8.113-50.822 16.12l-13.787-14.694 18.847-14.951z" fill="#a47c64"/><path d="M136.491 119.586c30.068-32.566 47.9-58.791 53.788-100.451a8.135 8.135 0 018.053-6.988 8.149 8.149 0 018.143 7.604c3.154 47.841-11.626 83.7-36.352 124.913h-8.553c-13.852-.001-25.079-11.229-25.079-25.078z" fill="#825b43"/></svg>