<svg xmlns="http://www.w3.org/2000/svg" width="512" height="512"><path d="M436.813 75.188C388.327 26.703 324.113 0 256 0S123.672 26.703 75.187 75.188 0 187.887 0 256s26.703 132.328 75.188 180.813S187.887 512 256 512s132.328-26.703 180.813-75.188S512 324.113 512 256s-26.703-132.328-75.188-180.813zM256 482C131.383 482 30 380.617 30 256S131.383 30 256 30s226 101.383 226 226-101.383 226-226 226zm0 0" data-original="#000000" class="active-path" data-old_color="#000000" fill="#FFF"/><path d="M286 237.25L151 136v240l135-101.25V361h90V151h-90zM181 316V196l80 60zm135-135h30v150h-30zm0 0" data-original="#000000" class="active-path" data-old_color="#000000" fill="#FFF"/></svg>