<svg width="325" height="315" fill="none" xmlns="http://www.w3.org/2000/svg"><path d="M41.218 14.91c0-6.011-3.8-9.34-8.683-9.34-4.9 0-8.674 3.329-8.674 9.34 0 5.983 3.773 9.339 8.674 9.339 4.883 0 8.683-3.33 8.683-9.34zm-4.493 0c0 3.56-1.562 5.486-4.19 5.486-2.619 0-4.19-1.927-4.19-5.487s1.571-5.486 4.19-5.486c2.628 0 4.19 1.926 4.19 5.486zM43.783 24h4.057V13.684h4.146V24h4.11V10.364H43.784V24zm21.438.258c3.578 0 5.93-1.732 6.428-4.413l-3.987-.115c-.337.905-1.225 1.394-2.361 1.394-1.67 0-2.699-1.11-2.699-2.78v-.115h9.091v-1.083c0-4.492-2.734-6.96-6.605-6.96-4.12 0-6.765 2.823-6.765 7.05 0 4.367 2.61 7.021 6.898 7.021zm-2.619-8.55c.062-1.358 1.137-2.388 2.575-2.388 1.429 0 2.459.994 2.477 2.388h-5.052zM73.91 29.114h4.341v-7.325h.09c.55 1.261 1.775 2.406 3.835 2.406 3.018 0 5.45-2.361 5.45-7.004 0-4.812-2.574-7.005-5.424-7.005-2.157 0-3.338 1.26-3.862 2.512h-.133v-2.334H73.91v18.75zm4.253-11.932c0-2.228.923-3.605 2.512-3.605 1.607 0 2.495 1.412 2.495 3.605 0 2.202-.888 3.63-2.495 3.63-1.589 0-2.512-1.42-2.512-3.63zm15.583 7.049c1.9 0 3.213-.737 3.96-2.13h.106V24h4.083v-9.268c0-2.886-2.565-4.546-6.036-4.546-3.667 0-5.744 1.847-6.09 4.332l4.003.143c.187-.87.906-1.403 2.051-1.403 1.065 0 1.74.515 1.74 1.43v.043c0 .835-.906 1.013-3.231 1.217-2.761.23-5.07 1.252-5.07 4.27 0 2.699 1.873 4.013 4.484 4.013zm1.34-2.841c-1.003 0-1.713-.48-1.713-1.385 0-.879.692-1.412 1.926-1.598.808-.116 1.802-.293 2.29-.55v1.296c0 1.331-1.118 2.237-2.503 2.237zm21.786-11.026h-4.057V20.68h-4.146V10.364h-4.11V24h12.313v4.377h4.191v-7.209h-4.191V10.364zm10.319 8.016v-8.016h-4.111V24h4.182l4.35-8.043V24h4.11V10.364h-4.172l-4.359 8.016zM146.404 24h4.04V10.364h-6.241c-3.729 0-6.082 1.9-6.055 4.616-.018 1.607.914 2.894 2.539 3.631L137.882 24h4.066l2.459-4.714h1.997V24zm0-7.466h-2.166c-1.34 0-1.997-.666-1.979-1.412-.018-.719.63-1.447 1.944-1.447h2.201v2.859zM158.456 24h6.801c3.622 0 5.601-1.332 5.601-3.746 0-1.678-1.349-3.188-4.119-3.338 2.095-.356 3.285-1.43 3.285-2.841 0-2.424-2.166-3.711-5.682-3.711h-5.886V24zm4.04-3.143v-2.566h2.761c.914 0 1.482.507 1.482 1.332 0 .773-.568 1.234-1.482 1.234h-2.761zm0-4.918v-2.353h1.846c1.003 0 1.625.444 1.625 1.163 0 .746-.568 1.19-1.509 1.19h-1.962zm16.876 8.319c3.836 0 6.215-2.229 6.33-5.602h-4.057c-.16 1.447-1.03 2.237-2.219 2.237-1.527 0-2.522-1.288-2.522-3.711 0-2.406 1.003-3.693 2.522-3.693 1.243 0 2.05.843 2.219 2.237h4.057c-.097-3.356-2.548-5.54-6.339-5.54-4.288 0-6.88 2.859-6.88 7.04 0 4.164 2.575 7.032 6.889 7.032zm7.689-10.574h4.305V24h4.12V13.684h4.359v-3.32h-12.784v3.32zm18.281 10.547c1.9 0 3.214-.737 3.96-2.13h.106V24h4.084v-9.268c0-2.886-2.566-4.546-6.037-4.546-3.666 0-5.744 1.847-6.09 4.332l4.004.143c.186-.87.905-1.403 2.051-1.403 1.065 0 1.74.515 1.74 1.43v.043c0 .835-.906 1.013-3.232 1.217-2.761.23-5.069 1.252-5.069 4.27 0 2.699 1.873 4.013 4.483 4.013zm1.341-2.841c-1.003 0-1.714-.48-1.714-1.385 0-.879.693-1.412 1.927-1.598.808-.116 1.802-.293 2.29-.55v1.296c0 1.331-1.118 2.237-2.503 2.237zm9.464 2.61h6.8c3.622 0 5.602-1.332 5.602-3.746 0-1.678-1.35-3.188-4.119-3.338 2.095-.356 3.284-1.43 3.284-2.841 0-2.424-2.166-3.711-5.681-3.711h-5.886V24zm4.039-3.143v-2.566h2.761c.914 0 1.483.507 1.483 1.332 0 .773-.569 1.234-1.483 1.234h-2.761zm0-4.918v-2.353h1.847c1.003 0 1.624.444 1.624 1.163 0 .746-.568 1.19-1.509 1.19h-1.962zM230.697 24h4.342v-4.528h1.26L239.291 24h5.087l-4.634-6.81 4.59-6.826h-5.025l-3.312 5.078h-.958v-5.078h-4.342V24zm19.15-5.62v-8.016h-4.111V24h4.182l4.35-8.043V24h4.11V10.364h-4.172l-4.359 8.016zm17.527-3.47c0 4.385 1.154 8.025 3.658 11.185h4.208c-1.909-2.344-3.338-6.996-3.338-11.186 0-4.2 1.429-8.851 3.338-11.195h-4.208c-2.504 3.16-3.658 6.8-3.658 11.195zm9.723 9.09h13.459v-3.542h-7.368v-.116l2.175-2.006c3.941-3.436 4.971-5.185 4.971-7.271 0-3.276-2.672-5.495-6.8-5.495-4.022 0-6.712 2.317-6.703 6.019h4.164c0-1.643 1.012-2.593 2.521-2.593 1.483 0 2.557.915 2.557 2.415 0 1.359-.852 2.282-2.344 3.622l-6.632 5.807V24zm22.983-9.1c0-4.385-1.154-8.025-3.658-11.186h-4.208c1.909 2.344 3.338 6.996 3.338 11.186 0 4.2-1.429 8.851-3.338 11.195h4.208c2.504-3.16 3.658-6.8 3.658-11.195zM10.91 61h7.113v-1.25h-5.705v-3.955h5.25v-1.25h-5.25v-3.931h5.614v-1.25h-7.023V61zm12.925.182c1.932 0 3.205-1.182 3.432-2.727h-1.34c-.25.954-1.046 1.522-2.092 1.522-1.59 0-2.613-1.318-2.613-3.34 0-1.978 1.045-3.273 2.613-3.273 1.182 0 1.887.727 2.091 1.522h1.341c-.227-1.636-1.614-2.727-3.454-2.727-2.364 0-3.932 1.864-3.932 4.523 0 2.613 1.5 4.5 3.954 4.5zm4.62-.182h.454c1.932 0 2.489-1.5 2.614-4.364l.136-3.113h3.205V61h1.34v-8.727h-5.818l-.159 3.863c-.113 2.932-.409 3.614-1.454 3.614h-.319V61zm11.55-1.977v-6.75h-1.34V61h1.568l4.182-6.75V61h1.34v-8.727H44.21l-4.204 6.75zM52.895 61h1.409v-3.773l1.454-1.636L59.803 61h1.704l-4.886-6.386 4.886-5.25h-1.84l-5.228 5.772h-.136v-5.772h-1.41V61zm15.142-5.182l7.318 3.727v-1.454l-5.569-2.682v-.09l5.569-2.683v-1.454l-7.319 3.727v.91zm15.524-6.454H81.9l3.75 5.818L81.9 61h1.66l3-4.75h.09l3 4.75h1.66l-3.66-5.818 3.66-5.818h-1.66l-3 4.84h-.09l-3-4.84zM93.939 59.51c.562 0 1.023-.46 1.023-1.022 0-.563-.46-1.023-1.023-1.023s-1.023.46-1.023 1.023c0 .562.46 1.022 1.023 1.022zm0-5.886c.562 0 1.023-.46 1.023-1.023 0-.562-.46-1.022-1.023-1.022s-1.023.46-1.023 1.022c0 .563.46 1.023 1.023 1.023zM9.5 269.682a2.5 2.5 0 100-5 2.5 2.5 0 000 5zM19.91 273h7.113v-1.25h-5.705v-3.955h5.25v-1.25h-5.25v-3.931h5.614v-1.25h-7.023V273zm12.925.182c1.932 0 3.205-1.182 3.432-2.727h-1.34c-.25.954-1.046 1.522-2.092 1.522-1.59 0-2.613-1.318-2.613-3.341 0-1.977 1.045-3.272 2.613-3.272 1.182 0 1.887.727 2.091 1.522h1.341c-.227-1.636-1.614-2.727-3.455-2.727-2.363 0-3.931 1.864-3.931 4.523 0 2.613 1.5 4.5 3.954 4.5zm4.62-.182h.454c1.932 0 2.489-1.5 2.614-4.364l.136-3.113h3.205V273h1.34v-8.727h-5.818l-.159 3.863c-.113 2.932-.409 3.614-1.454 3.614h-.319V273zm11.55-1.977v-6.75h-1.34V273h1.568l4.182-6.75V273h1.34v-8.727H53.21l-4.204 6.75zM61.895 273h1.409v-3.773l1.454-1.636L68.803 273h1.704l-4.886-6.386 4.886-5.25h-1.84l-5.228 5.772h-.136v-5.772h-1.41V273zm15.3-3.523h7v-1.227h-7v1.227zm0-3.363h7v-1.228h-7v1.228zm15.366-4.75H90.9l3.75 5.818L90.9 273h1.66l3-4.75h.09l3 4.75h1.66l-3.66-5.818 3.66-5.818h-1.66l-3 4.841h-.09l-3-4.841zm11.402 10.045h-1.455l-.068.636c-.165 1.54-.489 3.074-.636 3.796h1.022c.273-.773.853-2.523 1.046-3.818l.091-.614zm10.529 1.773c1.932 0 3.205-1.182 3.432-2.727h-1.341c-.25.954-1.045 1.522-2.091 1.522-1.59 0-2.613-1.318-2.613-3.341 0-1.977 1.045-3.272 2.613-3.272 1.182 0 1.887.727 2.091 1.522h1.341c-.227-1.636-1.613-2.727-3.454-2.727-2.364 0-3.932 1.864-3.932 4.523 0 2.613 1.5 4.5 3.954 4.5zm8.938 0c2.364 0 3.955-1.796 3.955-4.5 0-2.727-1.591-4.523-3.955-4.523s-3.955 1.796-3.955 4.523c0 2.704 1.591 4.5 3.955 4.5zm0-1.205c-1.795 0-2.614-1.545-2.614-3.295s.819-3.318 2.614-3.318 2.614 1.568 2.614 3.318-.819 3.295-2.614 3.295zm9.547 1.205c2.363 0 3.954-1.796 3.954-4.5 0-2.727-1.591-4.523-3.954-4.523-2.364 0-3.955 1.796-3.955 4.523 0 2.704 1.591 4.5 3.955 4.5zm0-1.205c-1.796 0-2.614-1.545-2.614-3.295s.818-3.318 2.614-3.318c1.795 0 2.613 1.568 2.613 3.318s-.818 3.295-2.613 3.295zM145.455 261c-.427.358-1.063.358-1.955.352-.29 0-.608 0-.955.012-2.659.068-3.977 2.091-3.977 5.977v.932c0 3.227 1.568 4.909 3.909 4.909 2.335 0 3.887-1.693 3.887-4.432 0-2.75-1.574-4.205-3.614-4.205-1.199 0-2.318.5-2.909 1.591h-.114c.182-2.25 1.023-3.454 2.841-3.522 1.614-.069 2.773-.023 3.568-.796l-.681-.818zm-2.978 10.977c-1.591 0-2.568-1.272-2.568-3.227.029-1.909.989-3 2.546-3 1.596 0 2.568 1.091 2.568 3 0 1.966-.966 3.227-2.546 3.227zm17.847-.227h-1.296v-7.477h-1.34v7.477h-3.296v-7.477h-1.341v7.477h-3.295v-7.477h-1.341V273h10.363v2.5h1.387l.159-3.75zm3.291-.727v-6.75h-1.341V273h1.568l4.182-6.75V273h1.341v-8.727h-1.545l-4.205 6.75zm7.019-5.5h2.886V273h1.341v-7.477h2.863v-1.25h-7.09v1.25zm10.387 1.909v-3.159h-1.341V273h3.659c2.046 0 3.16-1.25 3.16-2.818 0-1.591-1.114-2.75-3.16-2.75h-2.318zm0 1.25h2.318c1.063 0 1.819.648 1.819 1.568 0 .881-.756 1.5-1.819 1.5h-2.318v-3.068zm9.519 2.727h-1.455l-.068.636c-.165 1.54-.489 3.074-.636 3.796h1.022c.273-.773.853-2.523 1.046-3.818l.091-.614zm13.711-7.136h-1.34v4.426a7.378 7.378 0 01-2.114.301c-1.091 0-1.932-.614-1.932-1.955v-2.795h-1.341v2.795c0 2.137 1.296 3.205 3.273 3.205.824 0 1.483-.108 2.114-.295V273h1.34v-8.727zm1.273 1.25h2.887V273h1.34v-7.477h2.864v-1.25h-7.091v1.25zm12.139 7.659c2.364 0 3.955-1.796 3.955-4.5 0-2.727-1.591-4.523-3.955-4.523-2.363 0-3.954 1.796-3.954 4.523 0 2.704 1.591 4.5 3.954 4.5zm0-1.205c-1.795 0-2.613-1.545-2.613-3.295s.818-3.318 2.613-3.318c1.796 0 2.614 1.568 2.614 3.318s-.818 3.295-2.614 3.295zM228.165 273h4.113c1.773 0 2.841-1 2.841-2.341 0-1.369-1.039-2.108-2-2.25.983-.204 1.682-.756 1.682-1.818 0-1.392-1.193-2.318-3.068-2.318h-3.568V273zm1.273-1.227v-2.682h2.84c.921 0 1.478.551 1.478 1.454 0 .762-.557 1.228-1.478 1.228h-2.84zm0-3.841V265.5h2.295c1.074 0 1.727.449 1.727 1.182 0 .778-.653 1.25-1.727 1.25h-2.295zm11.37 5.25c1.773 0 3.068-.887 3.478-2.205l-1.296-.363c-.341.909-1.131 1.363-2.182 1.363-1.574 0-2.659-1.017-2.721-2.886h6.335v-.568c0-3.25-1.932-4.364-3.75-4.364-2.364 0-3.932 1.864-3.932 4.546 0 2.681 1.546 4.477 4.068 4.477zm-2.721-5.25c.091-1.358 1.051-2.568 2.585-2.568 1.454 0 2.386 1.091 2.386 2.568h-4.971zm8.375 8.341h1.341v-4.614h.113c.296.477.864 1.523 2.546 1.523 2.181 0 3.704-1.75 3.704-4.523 0-2.75-1.523-4.5-3.727-4.5-1.705 0-2.227 1.046-2.523 1.5h-.159v-1.386h-1.295v12zm1.318-7.637c0-1.954.863-3.272 2.5-3.272 1.704 0 2.545 1.431 2.545 3.272 0 1.864-.863 3.341-2.545 3.341-1.614 0-2.5-1.363-2.5-3.341zm8.432-4.363V273h10.613v-8.727h-1.341v7.477h-3.295v-7.477h-1.341v7.477h-3.295v-7.477h-1.341zm14.403 6.75v-6.75h-1.341V273h1.568l4.182-6.75V273h1.341v-8.727h-1.545l-4.205 6.75zm9.547-6.75h-1.341V273h1.341v-3.727h4.182V273h1.341v-8.727h-1.341v3.75h-4.182v-3.75zm10.54 8.932c1.522 0 2.318-.819 2.591-1.387h.068V273h1.341v-5.75c0-2.773-2.114-3.091-3.228-3.091-1.318 0-2.818.455-3.5 2.046l1.273.454c.296-.636.994-1.318 2.273-1.318 1.233 0 1.841.653 1.841 1.773v.045c0 .648-.659.591-2.25.796-1.62.21-3.387.568-3.387 2.568 0 1.704 1.319 2.682 2.978 2.682zm.204-1.205c-1.068 0-1.841-.477-1.841-1.409 0-1.023.932-1.341 1.978-1.477.568-.069 2.091-.228 2.318-.5v1.227c0 1.091-.864 2.159-2.455 2.159zM7.091 295.25c1.21 0 2.068-.642 2.568-1.977l3.716-9.978-1.466-.022-2.409 6.954h-.09L7 283.273H5.545l3.228 8.772-.25.682c-.478 1.307-1.091 1.432-2.068 1.182l-.341 1.182c.136.068.522.159.977.159zm7.513-3.25h1.613l2.978-3.75h.681V292h1.341v-3.75h.682l2.955 3.75h1.613l-3.522-4.432 3.477-4.295H24.83L21.921 287h-.704v-3.727h-1.34V287h-.728l-2.909-3.727h-1.59l3.5 4.295L14.603 292zm17.08.182c1.772 0 3.067-.887 3.476-2.205l-1.295-.363c-.34.909-1.13 1.363-2.182 1.363-1.574 0-2.659-1.017-2.721-2.886h6.335v-.568c0-3.25-1.932-4.364-3.75-4.364-2.364 0-3.932 1.864-3.932 4.546 0 2.681 1.546 4.477 4.068 4.477zm-2.722-5.25c.09-1.358 1.05-2.568 2.585-2.568 1.454 0 2.386 1.091 2.386 2.568h-4.971zm16.534 5.25c1.773 0 3.068-.887 3.477-2.205l-1.295-.363c-.341.909-1.131 1.363-2.182 1.363-1.574 0-2.66-1.017-2.722-2.886h6.335v-.568c0-3.25-1.931-4.364-3.75-4.364-2.363 0-3.931 1.864-3.931 4.546 0 2.681 1.545 4.477 4.068 4.477zm-2.722-5.25c.091-1.358 1.051-2.568 2.585-2.568 1.455 0 2.387 1.091 2.387 2.568h-4.972zm11.92 5.25c1.932 0 3.205-1.182 3.432-2.727h-1.34c-.25.954-1.046 1.522-2.091 1.522-1.591 0-2.614-1.318-2.614-3.341 0-1.977 1.045-3.272 2.614-3.272 1.181 0 1.886.727 2.09 1.522h1.341c-.227-1.636-1.613-2.727-3.454-2.727-2.364 0-3.932 1.864-3.932 4.523 0 2.613 1.5 4.5 3.955 4.5zm4.705-7.659h2.886V292h1.341v-7.477h2.864v-1.25H59.4v1.25zm10.388 1.909v-3.159h-1.341V292h3.66c2.045 0 3.158-1.25 3.158-2.818 0-1.591-1.113-2.75-3.159-2.75h-2.318zm0 1.25h2.318c1.063 0 1.818.648 1.818 1.568 0 .881-.755 1.5-1.818 1.5h-2.318v-3.068zM81.805 292h4.114c1.773 0 2.84-1 2.84-2.341 0-1.369-1.039-2.108-2-2.25.984-.204 1.683-.756 1.683-1.818 0-1.392-1.193-2.318-3.068-2.318h-3.569V292zm1.273-1.227v-2.682h2.841c.92 0 1.477.551 1.477 1.454 0 .762-.556 1.228-1.477 1.228h-2.84zm0-3.841V284.5h2.296c1.073 0 1.727.449 1.727 1.182 0 .778-.654 1.25-1.727 1.25h-2.296zm11.28 7.568h1.34V292h6.455v2.5h1.341v-3.75h-1.341v-7.477h-5.545l-.296 3.454c-.21 2.443-.522 3.284-1.227 4.023h-.727v3.75zm2.25-3.75c.614-.807.835-2.199 1.023-4.023l.227-2.204h2.954v6.227h-4.204zm12.325 1.432c1.773 0 3.068-.887 3.478-2.205l-1.296-.363c-.341.909-1.131 1.363-2.182 1.363-1.574 0-2.659-1.017-2.721-2.886h6.335v-.568c0-3.25-1.932-4.364-3.75-4.364-2.364 0-3.932 1.864-3.932 4.546 0 2.681 1.546 4.477 4.068 4.477zm-2.721-5.25c.091-1.358 1.051-2.568 2.585-2.568 1.454 0 2.386 1.091 2.386 2.568h-4.971zm8.375 8.341h1.341v-4.614h.113c.296.477.864 1.523 2.546 1.523 2.181 0 3.704-1.75 3.704-4.523 0-2.75-1.523-4.5-3.727-4.5-1.705 0-2.227 1.046-2.523 1.5h-.159v-1.386h-1.295v12zm1.318-7.637c0-1.954.863-3.272 2.5-3.272 1.704 0 2.545 1.431 2.545 3.272 0 1.864-.863 3.341-2.545 3.341-1.614 0-2.5-1.363-2.5-3.341zm12.091 4.546c1.772 0 3.068-.887 3.477-2.205l-1.295-.363c-.341.909-1.131 1.363-2.182 1.363-1.574 0-2.659-1.017-2.722-2.886h6.335v-.568c0-3.25-1.931-4.364-3.75-4.364-2.363 0-3.931 1.864-3.931 4.546 0 2.681 1.545 4.477 4.068 4.477zm-2.722-5.25c.091-1.358 1.051-2.568 2.585-2.568 1.455 0 2.387 1.091 2.387 2.568h-4.972zm8.375 5.068h4.114c1.773 0 2.841-1 2.841-2.341 0-1.369-1.04-2.108-2-2.25.983-.204 1.682-.756 1.682-1.818 0-1.392-1.194-2.318-3.069-2.318h-3.568V292zm1.273-1.227v-2.682h2.841c.92 0 1.477.551 1.477 1.454 0 .762-.557 1.228-1.477 1.228h-2.841zm0-3.841V284.5h2.295c1.074 0 1.728.449 1.728 1.182 0 .778-.654 1.25-1.728 1.25h-2.295zm11.371 5.25c1.772 0 3.068-.887 3.477-2.205l-1.296-.363c-.34.909-1.13 1.363-2.181 1.363-1.574 0-2.659-1.017-2.722-2.886h6.335v-.568c0-3.25-1.932-4.364-3.75-4.364-2.363 0-3.932 1.864-3.932 4.546 0 2.681 1.546 4.477 4.069 4.477zm-2.722-5.25c.091-1.358 1.051-2.568 2.585-2.568 1.455 0 2.387 1.091 2.387 2.568h-4.972zm10.375 3.477h-1.455l-.068.636c-.164 1.54-.488 3.074-.636 3.796h1.023c.272-.773.852-2.523 1.045-3.818l.091-.614zm8.325-.386v-6.75h-1.341V292h1.569l4.181-6.75V292h1.341v-8.727h-1.545l-4.205 6.75zm16.252 2.159c2.363 0 3.954-1.796 3.954-4.5 0-2.727-1.591-4.523-3.954-4.523-2.364 0-3.955 1.796-3.955 4.523 0 2.704 1.591 4.5 3.955 4.5zm0-1.205c-1.796 0-2.614-1.545-2.614-3.295s.818-3.318 2.614-3.318c1.795 0 2.613 1.568 2.613 3.318s-.818 3.295-2.613 3.295zm9.547 1.205c1.931 0 3.204-1.182 3.431-2.727h-1.34c-.25.954-1.046 1.522-2.091 1.522-1.591 0-2.614-1.318-2.614-3.341 0-1.977 1.045-3.272 2.614-3.272 1.181 0 1.886.727 2.091 1.522h1.34c-.227-1.636-1.613-2.727-3.454-2.727-2.364 0-3.932 1.864-3.932 4.523 0 2.613 1.5 4.5 3.955 4.5zm4.704-7.659h2.887V292h1.34v-7.477h2.864v-1.25h-7.091v1.25zm11.162 7.682c1.523 0 2.318-.819 2.591-1.387h.068V292h1.341v-5.75c0-2.773-2.114-3.091-3.227-3.091-1.318 0-2.818.455-3.5 2.046l1.273.454c.295-.636.994-1.318 2.272-1.318 1.233 0 1.841.653 1.841 1.773v.045c0 .648-.659.591-2.25.796-1.619.21-3.386.568-3.386 2.568 0 1.704 1.318 2.682 2.977 2.682zm.205-1.205c-1.069 0-1.841-.477-1.841-1.409 0-1.023.932-1.341 1.977-1.477.568-.069 2.091-.228 2.318-.5v1.227c0 1.091-.863 2.159-2.454 2.159zm7.583-7.727h-1.34V292h1.34v-3.727h4.182V292h1.341v-8.727h-1.341v3.75h-4.182v-3.75zm11.517 8.909c2.364 0 3.955-1.796 3.955-4.5 0-2.727-1.591-4.523-3.955-4.523-2.363 0-3.954 1.796-3.954 4.523 0 2.704 1.591 4.5 3.954 4.5zm0-1.205c-1.795 0-2.613-1.545-2.613-3.295s.818-3.318 2.613-3.318c1.796 0 2.614 1.568 2.614 3.318s-.818 3.295-2.614 3.295zm6.002 1.023h4.114c1.772 0 2.84-1 2.84-2.341 0-1.369-1.039-2.108-2-2.25.983-.204 1.682-.756 1.682-1.818 0-1.392-1.193-2.318-3.068-2.318h-3.568V292zm1.273-1.227v-2.682h2.841c.92 0 1.477.551 1.477 1.454 0 .762-.557 1.228-1.477 1.228h-2.841zm0-3.841V284.5h2.295c1.074 0 1.727.449 1.727 1.182 0 .778-.653 1.25-1.727 1.25h-2.295zm9.052 3.091v-6.75h-1.341V292h1.568l4.182-6.75V292h1.341v-8.727h-1.545l-4.205 6.75zm7.019-5.5h2.886V292h1.341v-7.477h2.864v-1.25h-7.091v1.25zm10.387 1.909v-3.159h-1.34V292h3.659c2.045 0 3.159-1.25 3.159-2.818 0-1.591-1.114-2.75-3.159-2.75h-2.319zm0 1.25h2.319c1.062 0 1.818.648 1.818 1.568 0 .881-.756 1.5-1.818 1.5h-2.319v-3.068zm11.064 4.5c1.932 0 3.205-1.182 3.432-2.727h-1.341c-.25.954-1.045 1.522-2.091 1.522-1.591 0-2.613-1.318-2.613-3.341 0-1.977 1.045-3.272 2.613-3.272 1.182 0 1.887.727 2.091 1.522h1.341c-.227-1.636-1.613-2.727-3.454-2.727-2.364 0-3.932 1.864-3.932 4.523 0 2.613 1.5 4.5 3.954 4.5zM278.68 292h1.273v-8.727h-3.591c-1.88 0-3.023.983-3.023 2.591 0 1.198.603 2.051 1.654 2.409L272.862 292h1.455l2.022-3.545h2.341V292zm0-4.795h-2.477c-.949 0-1.523-.506-1.523-1.341 0-.847.637-1.364 1.682-1.364h2.318v2.705zm4.712 4.886c.563 0 1.023-.46 1.023-1.023 0-.562-.46-1.023-1.023-1.023-.562 0-1.023.461-1.023 1.023 0 .563.461 1.023 1.023 1.023zM57.5 84.682a2.5 2.5 0 100-5 2.5 2.5 0 000 5zM67.91 88h7.113v-1.25h-5.705v-3.954h5.25v-1.25h-5.25v-3.932h5.614v-1.25h-7.023V88zm12.925.182c1.932 0 3.205-1.182 3.432-2.728h-1.34c-.25.955-1.046 1.523-2.092 1.523-1.59 0-2.613-1.318-2.613-3.34 0-1.978 1.045-3.273 2.613-3.273 1.182 0 1.887.727 2.091 1.522h1.341c-.227-1.636-1.614-2.727-3.454-2.727-2.364 0-3.932 1.864-3.932 4.523 0 2.614 1.5 4.5 3.954 4.5zm4.62-.182h.454c1.932 0 2.489-1.5 2.614-4.364l.136-3.113h3.205V88h1.34v-8.727h-5.818l-.159 3.863c-.113 2.932-.409 3.614-1.454 3.614h-.319V88zm11.55-1.977v-6.75h-1.34V88h1.568l4.182-6.75V88h1.341v-8.727h-1.546l-4.204 6.75zm13.57 5.227c1.211 0 2.068-.642 2.568-1.977l3.716-9.977-1.466-.023-2.409 6.954h-.091l-2.409-6.954h-1.454l3.227 8.773-.25.681c-.477 1.307-1.091 1.432-2.068 1.182l-.341 1.182c.136.068.523.159.977.159zm11.627-.75h1.341V88h6.454v2.5h1.341v-3.75h-1.341v-7.477h-5.545l-.296 3.454c-.21 2.444-.522 3.284-1.227 4.023h-.727v3.75zm2.25-3.75c.613-.807.835-2.199 1.022-4.023l.228-2.204h2.954v6.227h-4.204zm12.325 1.432c1.773 0 3.068-.886 3.477-2.205l-1.295-.363c-.341.909-1.131 1.363-2.182 1.363-1.574 0-2.659-1.017-2.722-2.886h6.336v-.568c0-3.25-1.932-4.364-3.75-4.364-2.364 0-3.932 1.864-3.932 4.545 0 2.682 1.545 4.478 4.068 4.478zm-2.722-5.25c.091-1.358 1.052-2.568 2.586-2.568 1.454 0 2.386 1.09 2.386 2.568h-4.972zm8.375 8.34h1.341V86.66h.114c.295.477.864 1.523 2.545 1.523 2.182 0 3.705-1.75 3.705-4.523 0-2.75-1.523-4.5-3.727-4.5-1.705 0-2.228 1.045-2.523 1.5h-.159v-1.386h-1.296v12zm1.319-7.636c0-1.954.863-3.272 2.5-3.272 1.704 0 2.545 1.431 2.545 3.272 0 1.864-.864 3.341-2.545 3.341-1.614 0-2.5-1.363-2.5-3.34zm12.09 4.546c1.773 0 3.069-.886 3.478-2.205l-1.296-.363c-.341.909-1.13 1.363-2.182 1.363-1.573 0-2.659-1.017-2.721-2.886h6.335v-.568c0-3.25-1.932-4.364-3.75-4.364-2.364 0-3.932 1.864-3.932 4.545 0 2.682 1.546 4.478 4.068 4.478zm-2.721-5.25c.091-1.358 1.051-2.568 2.585-2.568 1.455 0 2.386 1.09 2.386 2.568h-4.971zM161.493 88h4.114c1.772 0 2.84-1 2.84-2.34 0-1.37-1.039-2.109-2-2.25.983-.206 1.682-.757 1.682-1.82 0-1.391-1.193-2.317-3.068-2.317h-3.568V88zm1.273-1.227V84.09h2.841c.92 0 1.477.551 1.477 1.455 0 .76-.557 1.227-1.477 1.227h-2.841zm0-3.841V80.5h2.295c1.074 0 1.727.449 1.727 1.182 0 .778-.653 1.25-1.727 1.25h-2.295zm10.279 5.272c1.523 0 2.319-.818 2.591-1.386h.069V88h1.34v-5.75c0-2.773-2.113-3.09-3.227-3.09-1.318 0-2.818.454-3.5 2.044l1.273.455c.295-.636.994-1.318 2.273-1.318 1.233 0 1.841.653 1.841 1.773v.045c0 .648-.66.591-2.25.795-1.62.21-3.387.569-3.387 2.569 0 1.704 1.318 2.681 2.977 2.681zM173.25 87c-1.068 0-1.841-.477-1.841-1.41 0-1.022.932-1.34 1.977-1.476.569-.069 2.091-.228 2.319-.5v1.227c0 1.09-.864 2.159-2.455 2.159zm14.288 1.182c1.932 0 3.205-1.182 3.432-2.728h-1.341c-.25.955-1.045 1.523-2.091 1.523-1.591 0-2.613-1.318-2.613-3.34 0-1.978 1.045-3.273 2.613-3.273 1.182 0 1.887.727 2.091 1.522h1.341c-.227-1.636-1.613-2.727-3.454-2.727-2.364 0-3.932 1.864-3.932 4.523 0 2.614 1.5 4.5 3.954 4.5zM197.43 88h1.341v-3.682h1.205L202.839 88h1.728l-3.568-4.523 3.522-4.204h-1.727l-3.136 3.795h-.887v-3.795h-1.341V88zm7.821 0h.455c1.932 0 2.489-1.5 2.614-4.364l.136-3.113h3.205V88h1.34v-8.727h-5.818l-.159 3.863c-.113 2.932-.409 3.614-1.454 3.614h-.319V88zm10.915-8.727h-1.341V88h1.341v-3.66h2.239c.238 2.336 1.756 3.842 3.92 3.842 2.364 0 3.955-1.796 3.955-4.5 0-2.728-1.591-4.523-3.955-4.523-2.187 0-3.716 1.54-3.926 3.932h-2.233v-3.818zm6.159 7.704c-1.795 0-2.613-1.545-2.613-3.295s.818-3.318 2.613-3.318c1.796 0 2.614 1.568 2.614 3.318s-.818 3.295-2.614 3.295zm12.864-7.704h-1.341v4.426a7.355 7.355 0 01-2.114.301c-1.091 0-1.931-.614-1.931-1.954V79.25h-1.341v2.796c0 2.136 1.295 3.204 3.272 3.204.824 0 1.483-.108 2.114-.296V88h1.341v-8.727zm6.006 8.909c2.363 0 3.954-1.796 3.954-4.5 0-2.728-1.591-4.523-3.954-4.523-2.364 0-3.955 1.795-3.955 4.523 0 2.704 1.591 4.5 3.955 4.5zm0-1.205c-1.796 0-2.614-1.545-2.614-3.295s.818-3.318 2.614-3.318c1.795 0 2.613 1.568 2.613 3.318s-.818 3.295-2.613 3.295zm10.774-.795l-3-6.91h-1.773V88h1.341v-6.801L251.423 88h1.091l2.887-6.676V88h1.34v-8.727h-1.727l-3.045 6.909zm12.591-9.818h-1.659l3.75 5.818-3.75 5.818h1.659l3-4.75h.091l3 4.75h1.659l-3.659-5.818 3.659-5.818h-1.659l-3 4.84h-.091l-3-4.84zM278.462 88h4.113c1.773 0 2.841-1 2.841-2.34 0-1.37-1.04-2.109-2-2.25.983-.206 1.682-.757 1.682-1.82 0-1.391-1.193-2.317-3.068-2.317h-3.568V88zm1.272-1.227V84.09h2.841c.921 0 1.478.551 1.478 1.455 0 .76-.557 1.227-1.478 1.227h-2.841zm0-3.841V80.5h2.296c1.074 0 1.727.449 1.727 1.182 0 .778-.653 1.25-1.727 1.25h-2.296zm15.871 5.25c1.773 0 3.068-.886 3.477-2.205l-1.295-.363c-.341.909-1.131 1.363-2.182 1.363-1.574 0-2.659-1.017-2.721-2.886h6.335v-.568c0-3.25-1.932-4.364-3.75-4.364-2.364 0-3.932 1.864-3.932 4.545 0 2.682 1.545 4.478 4.068 4.478zm-2.721-5.25c.09-1.358 1.051-2.568 2.585-2.568 1.454 0 2.386 1.09 2.386 2.568h-4.971zm13.761-3.66h-5.386V88h1.34v-7.477h4.046v-1.25zm5.05 8.91c2.363 0 3.954-1.796 3.954-4.5 0-2.728-1.591-4.523-3.954-4.523-2.364 0-3.955 1.795-3.955 4.523 0 2.704 1.591 4.5 3.955 4.5zm0-1.205c-1.796 0-2.614-1.545-2.614-3.295s.818-3.318 2.614-3.318c1.795 0 2.613 1.568 2.613 3.318s-.818 3.295-2.613 3.295zM54.227 107h1.341v-3.682h1.205L59.636 107h1.728l-3.569-4.523 3.523-4.204h-1.727l-3.136 3.795h-.887v-3.795h-1.34V107zm11.78.182c2.364 0 3.955-1.796 3.955-4.5 0-2.728-1.591-4.523-3.955-4.523s-3.954 1.795-3.954 4.523c0 2.704 1.59 4.5 3.954 4.5zm0-1.205c-1.795 0-2.614-1.545-2.614-3.295s.819-3.318 2.614-3.318c1.796 0 2.614 1.568 2.614 3.318s-.818 3.295-2.614 3.295zm6.001 4.296h1.341v-4.614h.114c.296.477.864 1.523 2.546 1.523 2.181 0 3.704-1.75 3.704-4.523 0-2.75-1.523-4.5-3.727-4.5-1.705 0-2.228 1.045-2.523 1.5h-.159v-1.386h-1.296v12zm1.319-7.637c0-1.954.863-3.272 2.5-3.272 1.704 0 2.545 1.431 2.545 3.272 0 1.864-.864 3.341-2.545 3.341-1.614 0-2.5-1.363-2.5-3.341zm9.772-4.363h-1.34V107h1.34v-3.727h4.182V107h1.341v-8.727h-1.34v3.75h-4.183v-3.75zm11.631 8.909c1.773 0 3.068-.887 3.477-2.205l-1.295-.363c-.341.909-1.13 1.363-2.182 1.363-1.574 0-2.659-1.017-2.722-2.886h6.336v-.568c0-3.25-1.932-4.364-3.75-4.364-2.364 0-3.932 1.864-3.932 4.546 0 2.681 1.545 4.477 4.068 4.477zm-2.722-5.25c.091-1.358 1.052-2.568 2.586-2.568 1.454 0 2.386 1.091 2.386 2.568h-4.972zm14.216-3.66h-1.34V107h1.34v-3.727h4.182V107h1.341v-8.727h-1.341v3.75h-4.182v-3.75zm11.631 8.91c1.773 0 3.068-.887 3.477-2.205l-1.295-.363c-.341.909-1.131 1.363-2.182 1.363-1.574 0-2.659-1.017-2.721-2.886h6.335v-.568c0-3.25-1.932-4.364-3.75-4.364-2.364 0-3.932 1.864-3.932 4.546 0 2.681 1.545 4.477 4.068 4.477zm-2.721-5.25c.09-1.358 1.051-2.568 2.585-2.568 1.454 0 2.386 1.091 2.386 2.568h-4.971zm7.562-2.41h2.886V107h1.341v-7.477h2.864v-1.25h-7.091v1.25zM135.47 107h.455c1.932 0 2.488-1.5 2.613-4.364l.137-3.113h3.204V107h1.341v-8.727h-5.818l-.159 3.863c-.114 2.932-.409 3.614-1.455 3.614h-.318V107zm13.869.182c1.773 0 3.069-.887 3.478-2.205l-1.296-.363c-.341.909-1.13 1.363-2.182 1.363-1.573 0-2.659-1.017-2.721-2.886h6.335v-.568c0-3.25-1.932-4.364-3.75-4.364-2.364 0-3.932 1.864-3.932 4.546 0 2.681 1.546 4.477 4.068 4.477zm-2.721-5.25c.091-1.358 1.051-2.568 2.585-2.568 1.455 0 2.386 1.091 2.386 2.568h-4.971zm8.375 5.068h4.114c1.772 0 2.84-1 2.84-2.341 0-1.369-1.039-2.108-2-2.25.983-.204 1.682-.756 1.682-1.818 0-1.392-1.193-2.318-3.068-2.318h-3.568V107zm1.273-1.227v-2.682h2.841c.92 0 1.477.551 1.477 1.454 0 .762-.557 1.228-1.477 1.228h-2.841zm0-3.841V99.5h2.295c1.074 0 1.727.449 1.727 1.182 0 .778-.653 1.25-1.727 1.25h-2.295zm11.257 5.25c2.363 0 3.954-1.796 3.954-4.5 0-2.728-1.591-4.523-3.954-4.523-2.364 0-3.955 1.795-3.955 4.523 0 2.704 1.591 4.5 3.955 4.5zm0-1.205c-1.796 0-2.614-1.545-2.614-3.295s.818-3.318 2.614-3.318c1.795 0 2.613 1.568 2.613 3.318s-.818 3.295-2.613 3.295zm11.388-7.704h-5.387V107h1.341v-7.477h4.046v-1.25zm5.049 8.909c2.364 0 3.955-1.796 3.955-4.5 0-2.728-1.591-4.523-3.955-4.523-2.363 0-3.954 1.795-3.954 4.523 0 2.704 1.591 4.5 3.954 4.5zm0-1.205c-1.795 0-2.613-1.545-2.613-3.295s.818-3.318 2.613-3.318c1.796 0 2.614 1.568 2.614 3.318s-.818 3.295-2.614 3.295zm10.502 4.296h1.341v-4.614h.113c.296.477.864 1.523 2.546 1.523 2.181 0 3.704-1.75 3.704-4.523 0-2.75-1.523-4.5-3.727-4.5-1.705 0-2.227 1.045-2.523 1.5h-.159v-1.386h-1.295v12zm1.318-7.637c0-1.954.863-3.272 2.5-3.272 1.704 0 2.545 1.431 2.545 3.272 0 1.864-.863 3.341-2.545 3.341-1.614 0-2.5-1.363-2.5-3.341zm12.091 4.546c1.772 0 3.068-.887 3.477-2.205l-1.295-.363c-.341.909-1.131 1.363-2.182 1.363-1.574 0-2.659-1.017-2.722-2.886h6.335v-.568c0-3.25-1.931-4.364-3.75-4.364-2.363 0-3.931 1.864-3.931 4.546 0 2.681 1.545 4.477 4.068 4.477zm-2.722-5.25c.091-1.358 1.051-2.568 2.585-2.568 1.455 0 2.387 1.091 2.387 2.568h-4.972zM220.001 95c-.426.358-1.062.358-1.954.352-.29 0-.608 0-.955.012-2.659.068-3.977 2.09-3.977 5.977v.932c0 3.227 1.568 4.909 3.909 4.909 2.335 0 3.887-1.693 3.887-4.432 0-2.75-1.574-4.204-3.614-4.204-1.199 0-2.318.5-2.909 1.59h-.114c.182-2.25 1.023-3.454 2.841-3.522 1.614-.069 2.773-.023 3.568-.796l-.682-.818zm-2.977 10.977c-1.591 0-2.568-1.272-2.568-3.227.028-1.909.989-3 2.545-3 1.597 0 2.569 1.091 2.569 3 0 1.966-.966 3.227-2.546 3.227zm9.597 1.205c1.772 0 3.068-.887 3.477-2.205l-1.295-.363c-.341.909-1.131 1.363-2.182 1.363-1.574 0-2.659-1.017-2.722-2.886h6.335v-.568c0-3.25-1.931-4.364-3.75-4.364-2.363 0-3.931 1.864-3.931 4.546 0 2.681 1.545 4.477 4.068 4.477zm-2.722-5.25c.091-1.358 1.051-2.568 2.585-2.568 1.455 0 2.387 1.091 2.387 2.568h-4.972zm.881-5.114a.911.911 0 00.909-.909.884.884 0 00-.909-.909.912.912 0 00-.909.91c0 .476.432.908.909.908zm3.273 0a.912.912 0 00.909-.909.884.884 0 00-.909-.909.912.912 0 00-.91.91c0 .476.432.908.91.908zm5.562 1.455h-1.341V107h1.341v-3.727h4.182V107h1.341v-8.727h-1.341v3.75h-4.182v-3.75zm7.972 8.727h1.341v-3.682h1.204l2.864 3.682h1.727l-3.568-4.523 3.523-4.204h-1.728l-3.136 3.795h-.886v-3.795h-1.341V107zm11.162.205c1.522 0 2.318-.819 2.59-1.387h.069V107h1.341v-5.75c0-2.773-2.114-3.09-3.228-3.09-1.318 0-2.818.454-3.5 2.045l1.273.454c.295-.636.994-1.318 2.273-1.318 1.233 0 1.841.653 1.841 1.773v.045c0 .648-.659.591-2.25.796-1.62.21-3.387.568-3.387 2.568 0 1.704 1.318 2.682 2.978 2.682zm.204-1.205c-1.068 0-1.841-.477-1.841-1.409 0-1.023.932-1.341 1.977-1.477.569-.069 2.091-.228 2.319-.5v1.227c0 1.091-.864 2.159-2.455 2.159zm8.243-.591h-1.455l-.068.636c-.164 1.54-.488 3.074-.636 3.796h1.023c.272-.773.852-2.523 1.045-3.818l.091-.614zm6.484-5.886h2.887V107h1.341v-7.477h2.863v-1.25h-7.091v1.25zm12.14 7.659c2.363 0 3.954-1.796 3.954-4.5 0-2.728-1.591-4.523-3.954-4.523-2.364 0-3.955 1.795-3.955 4.523 0 2.704 1.591 4.5 3.955 4.5zm0-1.205c-1.796 0-2.614-1.545-2.614-3.295s.818-3.318 2.614-3.318c1.795 0 2.613 1.568 2.613 3.318s-.818 3.295-2.613 3.295zM54.227 126h4.114c1.773 0 2.84-1 2.84-2.341 0-1.369-1.039-2.108-2-2.25.984-.204 1.683-.756 1.683-1.818 0-1.392-1.194-2.318-3.069-2.318h-3.568V126zm1.273-1.227v-2.682h2.84c.921 0 1.478.551 1.478 1.454 0 .762-.557 1.228-1.477 1.228H55.5zm0-3.841V118.5h2.295c1.074 0 1.728.449 1.728 1.182 0 .778-.654 1.25-1.728 1.25H55.5zm11.257 5.25c1.932 0 3.205-1.182 3.432-2.727h-1.341c-.25.954-1.045 1.522-2.09 1.522-1.592 0-2.614-1.318-2.614-3.341 0-1.977 1.045-3.272 2.613-3.272 1.182 0 1.886.727 2.091 1.522h1.34c-.226-1.636-1.613-2.727-3.454-2.727-2.363 0-3.931 1.864-3.931 4.523 0 2.613 1.5 4.5 3.954 4.5zm4.705-7.659h2.886V126h1.34v-7.477h2.865v-1.25h-7.091v1.25zm11.162 7.682c1.522 0 2.318-.819 2.59-1.387h.069V126h1.34v-5.75c0-2.773-2.113-3.091-3.227-3.091-1.318 0-2.818.455-3.5 2.046l1.273.454c.296-.636.994-1.318 2.273-1.318 1.233 0 1.84.653 1.84 1.773v.045c0 .648-.658.591-2.25.796-1.619.21-3.386.568-3.386 2.568 0 1.704 1.319 2.682 2.978 2.682zm.204-1.205c-1.068 0-1.84-.477-1.84-1.409 0-1.023.931-1.341 1.977-1.477.568-.069 2.09-.228 2.318-.5v1.227c0 1.091-.864 2.159-2.455 2.159zm6.243 1h4.114c1.772 0 2.84-1 2.84-2.341 0-1.369-1.04-2.108-2-2.25.983-.204 1.682-.756 1.682-1.818 0-1.392-1.193-2.318-3.068-2.318h-3.568V126zm1.273-1.227v-2.682h2.84c.921 0 1.478.551 1.478 1.454 0 .762-.557 1.228-1.477 1.228h-2.841zm0-3.841V118.5h2.295c1.074 0 1.728.449 1.728 1.182 0 .778-.654 1.25-1.728 1.25h-2.295zm9.052 3.091v-6.75h-1.34V126h1.568l4.181-6.75V126h1.341v-8.727h-1.545l-4.205 6.75zm7.019-5.5h2.886V126h1.341v-7.477h2.864v-1.25h-7.091v1.25zm10.388 1.909v-3.159h-1.341V126h3.659c2.045 0 3.159-1.25 3.159-2.818 0-1.591-1.114-2.75-3.159-2.75h-2.318zm0 1.25h2.318c1.062 0 1.818.648 1.818 1.568 0 .881-.756 1.5-1.818 1.5h-2.318v-3.068zm11.086 6.818h1.341V126h6.455v2.5h1.341v-3.75h-1.341v-7.477h-5.546l-.295 3.454c-.21 2.443-.523 3.284-1.228 4.023h-.727v3.75zm2.25-3.75c.614-.807.835-2.199 1.023-4.023l.227-2.204h2.955v6.227h-4.205zm11.235 1.455c1.522 0 2.318-.819 2.59-1.387h.069V126h1.341v-5.75c0-2.773-2.114-3.091-3.228-3.091-1.318 0-2.818.455-3.5 2.046l1.273.454c.295-.636.994-1.318 2.273-1.318 1.233 0 1.841.653 1.841 1.773v.045c0 .648-.659.591-2.25.796-1.62.21-3.387.568-3.387 2.568 0 1.704 1.318 2.682 2.978 2.682zm.204-1.205c-1.068 0-1.841-.477-1.841-1.409 0-1.023.932-1.341 1.977-1.477.569-.069 2.091-.228 2.319-.5v1.227c0 1.091-.864 2.159-2.455 2.159zm7.584-7.727h-1.341V126h1.341v-3.727h4.182V126h1.341v-8.727h-1.341v3.75h-4.182v-3.75zm9.312 0h-1.34V126h1.34v-3.727h4.182V126h1.341v-8.727h-1.341v3.75h-4.182v-3.75zm8.523 11.977c1.21 0 2.068-.642 2.568-1.977l3.716-9.978-1.466-.022-2.409 6.954h-.091l-2.409-6.954h-1.454l3.227 8.772-.25.682c-.477 1.307-1.091 1.432-2.068 1.182l-.341 1.182c.136.068.523.159.977.159zm8.763-11.977h-1.341V126h1.341v-3.659h2.239c.238 2.335 1.755 3.841 3.92 3.841 2.364 0 3.955-1.796 3.955-4.5 0-2.727-1.591-4.523-3.955-4.523-2.187 0-3.716 1.54-3.926 3.932h-2.233v-3.818zm6.159 7.704c-1.795 0-2.614-1.545-2.614-3.295s.819-3.318 2.614-3.318 2.614 1.568 2.614 3.318-.819 3.295-2.614 3.295zM192.555 126h4.114c1.773 0 2.841-1 2.841-2.341 0-1.369-1.04-2.108-2-2.25.983-.204 1.682-.756 1.682-1.818 0-1.392-1.193-2.318-3.068-2.318h-3.569V126zm1.273-1.227v-2.682h2.841c.92 0 1.477.551 1.477 1.454 0 .762-.557 1.228-1.477 1.228h-2.841zm0-3.841V118.5h2.296c1.073 0 1.727.449 1.727 1.182 0 .778-.654 1.25-1.727 1.25h-2.296zm11.371 5.25c1.773 0 3.068-.887 3.477-2.205l-1.295-.363c-.341.909-1.131 1.363-2.182 1.363-1.574 0-2.659-1.017-2.722-2.886h6.335v-.568c0-3.25-1.931-4.364-3.75-4.364-2.363 0-3.931 1.864-3.931 4.546 0 2.681 1.545 4.477 4.068 4.477zm-2.722-5.25c.091-1.358 1.051-2.568 2.585-2.568 1.455 0 2.387 1.091 2.387 2.568h-4.972zm8.375 8.341h1.341v-4.614h.114c.295.477.863 1.523 2.545 1.523 2.182 0 3.705-1.75 3.705-4.523 0-2.75-1.523-4.5-3.727-4.5-1.705 0-2.228 1.046-2.523 1.5h-.159v-1.386h-1.296v12zm1.318-7.637c0-1.954.864-3.272 2.5-3.272 1.705 0 2.546 1.431 2.546 3.272 0 1.864-.864 3.341-2.546 3.341-1.613 0-2.5-1.363-2.5-3.341zm8.432-4.363V126h10.614v-8.727h-1.341v7.477h-3.295v-7.477h-1.341v7.477h-3.296v-7.477h-1.341zm14.404 6.75v-6.75h-1.341V126h1.568l4.182-6.75V126h1.341v-8.727h-1.546l-4.204 6.75zm9.547-6.75h-1.341V126h1.341v-3.727h4.181V126h1.341v-8.727h-1.341v3.75h-4.181v-3.75zm8.522 11.977c1.211 0 2.068-.642 2.568-1.977l3.716-9.978-1.466-.022-2.409 6.954h-.091l-2.409-6.954h-1.454l3.227 8.772-.25.682c-.477 1.307-1.091 1.432-2.068 1.182l-.341 1.182c.136.068.523.159.977.159zm12.559-3.25h4.113c1.773 0 2.841-1 2.841-2.341 0-1.369-1.04-2.108-2-2.25.983-.204 1.682-.756 1.682-1.818 0-1.392-1.193-2.318-3.068-2.318h-3.568V126zm1.272-1.227v-2.682h2.841c.921 0 1.477.551 1.477 1.454 0 .762-.556 1.228-1.477 1.228h-2.841zm0-3.841V118.5h2.296c1.074 0 1.727.449 1.727 1.182 0 .778-.653 1.25-1.727 1.25h-2.296zM54.227 145h1.341v-3.682h1.205L59.636 145h1.728l-3.569-4.523 3.523-4.204h-1.727l-3.136 3.795h-.887v-3.795h-1.34V145zm11.162.205c1.523 0 2.318-.819 2.591-1.387h.068V145h1.341v-5.75c0-2.773-2.113-3.091-3.227-3.091-1.318 0-2.818.455-3.5 2.046l1.273.454c.295-.636.994-1.318 2.272-1.318 1.233 0 1.841.653 1.841 1.773v.045c0 .648-.659.591-2.25.796-1.619.21-3.386.568-3.386 2.568 0 1.704 1.318 2.682 2.977 2.682zm.205-1.205c-1.068 0-1.841-.477-1.841-1.409 0-1.023.932-1.341 1.977-1.477.568-.069 2.091-.228 2.318-.5v1.227c0 1.091-.863 2.159-2.454 2.159zm12.97-7.727h-1.341v4.426a7.373 7.373 0 01-2.114.301c-1.09 0-1.931-.614-1.931-1.955v-2.795h-1.341v2.795c0 2.137 1.295 3.205 3.272 3.205a7.18 7.18 0 002.114-.295V145h1.34v-8.727zm6.12 8.909c1.772 0 3.067-.887 3.477-2.205l-1.296-.363c-.34.909-1.13 1.363-2.182 1.363-1.574 0-2.659-1.017-2.721-2.886h6.335v-.568c0-3.25-1.932-4.364-3.75-4.364-2.364 0-3.932 1.864-3.932 4.546 0 2.681 1.546 4.477 4.068 4.477zm-2.722-5.25c.09-1.358 1.05-2.568 2.585-2.568 1.454 0 2.386 1.091 2.386 2.568h-4.971zm11.92 5.25c1.932 0 3.205-1.182 3.432-2.727h-1.341c-.25.954-1.045 1.522-2.09 1.522-1.592 0-2.614-1.318-2.614-3.341 0-1.977 1.045-3.272 2.613-3.272 1.182 0 1.886.727 2.091 1.522h1.34c-.226-1.636-1.613-2.727-3.454-2.727-2.363 0-3.931 1.864-3.931 4.523 0 2.613 1.5 4.5 3.954 4.5zm4.705-7.659h2.886V145h1.341v-7.477h2.864v-1.25h-7.091v1.25zm9.047 7.477h4.113c1.773 0 2.841-1 2.841-2.341 0-1.369-1.04-2.108-2-2.25.983-.204 1.682-.756 1.682-1.818 0-1.392-1.193-2.318-3.068-2.318h-3.568V145zm1.272-1.227v-2.682h2.841c.921 0 1.477.551 1.477 1.454 0 .762-.556 1.228-1.477 1.228h-2.841zm0-3.841V137.5h2.296c1.074 0 1.727.449 1.727 1.182 0 .778-.653 1.25-1.727 1.25h-2.296zm11.371 5.25c1.773 0 3.068-.887 3.477-2.205l-1.295-.363c-.341.909-1.131 1.363-2.182 1.363-1.574 0-2.659-1.017-2.722-2.886h6.336v-.568c0-3.25-1.932-4.364-3.75-4.364-2.364 0-3.932 1.864-3.932 4.546 0 2.681 1.545 4.477 4.068 4.477zm-2.722-5.25c.091-1.358 1.052-2.568 2.586-2.568 1.454 0 2.386 1.091 2.386 2.568h-4.972zM129.658 145h.454c1.932 0 2.489-1.5 2.614-4.364l.136-3.113h3.205V145h1.341v-8.727h-5.819l-.159 3.863c-.113 2.932-.409 3.614-1.454 3.614h-.318V145zm13.869.182c1.773 0 3.068-.887 3.477-2.205l-1.295-.363c-.341.909-1.131 1.363-2.182 1.363-1.574 0-2.659-1.017-2.722-2.886h6.336v-.568c0-3.25-1.932-4.364-3.75-4.364-2.364 0-3.932 1.864-3.932 4.546 0 2.681 1.545 4.477 4.068 4.477zm-2.722-5.25c.091-1.358 1.052-2.568 2.586-2.568 1.454 0 2.386 1.091 2.386 2.568h-4.972zM149.18 145h4.114c1.773 0 2.841-1 2.841-2.341 0-1.369-1.04-2.108-2-2.25.983-.204 1.682-.756 1.682-1.818 0-1.392-1.193-2.318-3.068-2.318h-3.569V145zm1.273-1.227v-2.682h2.841c.92 0 1.477.551 1.477 1.454 0 .762-.557 1.228-1.477 1.228h-2.841zm0-3.841V137.5h2.296c1.073 0 1.727.449 1.727 1.182 0 .778-.654 1.25-1.727 1.25h-2.296zm11.257 5.25c2.364 0 3.955-1.796 3.955-4.5 0-2.727-1.591-4.523-3.955-4.523-2.363 0-3.954 1.796-3.954 4.523 0 2.704 1.591 4.5 3.954 4.5zm0-1.205c-1.795 0-2.613-1.545-2.613-3.295s.818-3.318 2.613-3.318c1.796 0 2.614 1.568 2.614 3.318s-.818 3.295-2.614 3.295zm11.388-7.704h-5.386V145h1.341v-7.477h4.045v-1.25zm5.05 8.909c2.363 0 3.954-1.796 3.954-4.5 0-2.727-1.591-4.523-3.954-4.523-2.364 0-3.955 1.796-3.955 4.523 0 2.704 1.591 4.5 3.955 4.5zm0-1.205c-1.796 0-2.614-1.545-2.614-3.295s.818-3.318 2.614-3.318c1.795 0 2.613 1.568 2.613 3.318s-.818 3.295-2.613 3.295zm10.501 4.296h1.341v-4.614h.114c.295.477.863 1.523 2.545 1.523 2.182 0 3.705-1.75 3.705-4.523 0-2.75-1.523-4.5-3.728-4.5-1.704 0-2.227 1.046-2.522 1.5h-.159v-1.386h-1.296v12zm1.318-7.637c0-1.954.864-3.272 2.5-3.272 1.705 0 2.546 1.431 2.546 3.272 0 1.864-.864 3.341-2.546 3.341-1.613 0-2.5-1.363-2.5-3.341zm12.091 4.546c1.773 0 3.068-.887 3.478-2.205l-1.296-.363c-.341.909-1.131 1.363-2.182 1.363-1.574 0-2.659-1.017-2.721-2.886h6.335v-.568c0-3.25-1.932-4.364-3.75-4.364-2.364 0-3.932 1.864-3.932 4.546 0 2.681 1.546 4.477 4.068 4.477zm-2.721-5.25c.091-1.358 1.051-2.568 2.585-2.568 1.454 0 2.386 1.091 2.386 2.568h-4.971zM214.189 133c-.426.358-1.063.358-1.955.352-.289 0-.608 0-.954.012-2.659.068-3.977 2.091-3.977 5.977v.932c0 3.227 1.568 4.909 3.909 4.909 2.335 0 3.886-1.693 3.886-4.432 0-2.75-1.574-4.205-3.614-4.205-1.198 0-2.318.5-2.909 1.591h-.113c.181-2.25 1.022-3.454 2.841-3.522 1.613-.069 2.772-.023 3.568-.796l-.682-.818zm-2.977 10.977c-1.591 0-2.569-1.272-2.569-3.227.029-1.909.989-3 2.546-3 1.597 0 2.568 1.091 2.568 3 0 1.966-.966 3.227-2.545 3.227zm9.596 1.205c1.773 0 3.068-.887 3.478-2.205l-1.296-.363c-.341.909-1.131 1.363-2.182 1.363-1.574 0-2.659-1.017-2.721-2.886h6.335v-.568c0-3.25-1.932-4.364-3.75-4.364-2.364 0-3.932 1.864-3.932 4.546 0 2.681 1.546 4.477 4.068 4.477zm-2.721-5.25c.091-1.358 1.051-2.568 2.585-2.568 1.454 0 2.386 1.091 2.386 2.568h-4.971zm9.716-3.659h-1.341V145h1.341v-3.727h4.181V145h1.341v-8.727h-1.341v3.75h-4.181v-3.75zm7.971 8.727h1.341v-3.682h1.205l2.863 3.682h1.728l-3.569-4.523 3.523-4.204h-1.727l-3.137 3.795h-.886v-3.795h-1.341V145zm11.162.205c1.523 0 2.318-.819 2.591-1.387h.068V145h1.341v-5.75c0-2.773-2.114-3.091-3.227-3.091-1.318 0-2.818.455-3.5 2.046l1.273.454c.295-.636.994-1.318 2.272-1.318 1.233 0 1.841.653 1.841 1.773v.045c0 .648-.659.591-2.25.796-1.619.21-3.386.568-3.386 2.568 0 1.704 1.318 2.682 2.977 2.682zm.205-1.205c-1.069 0-1.841-.477-1.841-1.409 0-1.023.932-1.341 1.977-1.477.568-.069 2.091-.228 2.318-.5v1.227c0 1.091-.863 2.159-2.454 2.159zM54.227 164h1.341v-7.477h4.182V164h1.34v-8.727h-6.863V164zm12.858.182c2.364 0 3.955-1.796 3.955-4.5 0-2.727-1.591-4.523-3.955-4.523-2.363 0-3.954 1.796-3.954 4.523 0 2.704 1.59 4.5 3.954 4.5zm0-1.205c-1.795 0-2.613-1.545-2.613-3.295s.818-3.318 2.613-3.318c1.796 0 2.614 1.568 2.614 3.318s-.818 3.295-2.614 3.295zm5.07 3.523h1.34V164h6.455v2.5h1.341v-3.75h-1.34v-7.477h-5.546l-.296 3.454c-.21 2.443-.522 3.284-1.227 4.023h-.727v3.75zm2.25-3.75c.614-.807.835-2.199 1.023-4.023l.227-2.204h2.954v6.227h-4.204zm7.734 3.75h1.341V164h6.455v2.5h1.34v-3.75h-1.34v-7.477h-5.546l-.295 3.454c-.21 2.443-.523 3.284-1.227 4.023h-.728v3.75zm2.25-3.75c.614-.807.835-2.199 1.023-4.023l.227-2.204h2.955v6.227h-4.205zm12.326 1.432c1.772 0 3.068-.887 3.477-2.205l-1.296-.363c-.34.909-1.13 1.363-2.181 1.363-1.574 0-2.66-1.017-2.722-2.886h6.335v-.568c0-3.25-1.932-4.364-3.75-4.364-2.364 0-3.932 1.864-3.932 4.546 0 2.681 1.546 4.477 4.069 4.477zm-2.722-5.25c.09-1.358 1.051-2.568 2.585-2.568 1.455 0 2.386 1.091 2.386 2.568h-4.971zm8.375 8.341h1.341v-4.614h.113c.296.477.864 1.523 2.546 1.523 2.182 0 3.704-1.75 3.704-4.523 0-2.75-1.522-4.5-3.727-4.5-1.704 0-2.227 1.046-2.523 1.5h-.159v-1.386h-1.295v12zm1.318-7.637c0-1.954.864-3.272 2.5-3.272 1.705 0 2.546 1.431 2.546 3.272 0 1.864-.864 3.341-2.546 3.341-1.614 0-2.5-1.363-2.5-3.341zm12.091 4.546c1.773 0 3.068-.887 3.477-2.205l-1.295-.363c-.341.909-1.131 1.363-2.182 1.363-1.574 0-2.659-1.017-2.722-2.886h6.336v-.568c0-3.25-1.932-4.364-3.75-4.364-2.364 0-3.932 1.864-3.932 4.546 0 2.681 1.545 4.477 4.068 4.477zm-2.722-5.25c.091-1.358 1.052-2.568 2.586-2.568 1.454 0 2.386 1.091 2.386 2.568h-4.972zM121.43 164h4.114c1.773 0 2.841-1 2.841-2.341 0-1.369-1.04-2.108-2-2.25.983-.204 1.682-.756 1.682-1.818 0-1.392-1.193-2.318-3.068-2.318h-3.569V164zm1.273-1.227v-2.682h2.841c.92 0 1.477.551 1.477 1.454 0 .762-.557 1.228-1.477 1.228h-2.841zm0-3.841V156.5h2.296c1.073 0 1.727.449 1.727 1.182 0 .778-.654 1.25-1.727 1.25h-2.296zm10.28 5.273c1.523 0 2.318-.819 2.591-1.387h.068V164h1.341v-5.75c0-2.773-2.114-3.091-3.227-3.091-1.318 0-2.818.455-3.5 2.046l1.272.454c.296-.636.995-1.318 2.273-1.318 1.233 0 1.841.653 1.841 1.773v.045c0 .648-.659.591-2.25.796-1.619.21-3.386.568-3.386 2.568 0 1.704 1.318 2.682 2.977 2.682zm.205-1.205c-1.069 0-1.841-.477-1.841-1.409 0-1.023.931-1.341 1.977-1.477.568-.069 2.091-.228 2.318-.5v1.227c0 1.091-.864 2.159-2.454 2.159zm7.22 1.091c.562 0 1.022-.46 1.022-1.023 0-.562-.46-1.023-1.022-1.023-.563 0-1.023.461-1.023 1.023 0 .563.46 1.023 1.023 1.023zM57.5 179.682a2.5 2.5 0 100-5 2.5 2.5 0 000 5zm10.41-8.318V183h1.363l6.34-9.136h.114V183h1.41v-11.636h-1.364l-6.364 9.159h-.114v-9.159H67.91zm13.205 2.909h-1.34V183h1.34v-3.727h4.182V183h1.34v-8.727h-1.34v3.75h-4.182v-3.75zm10.54 8.932c1.523 0 2.318-.819 2.59-1.387h.069V183h1.34v-5.75c0-2.773-2.113-3.091-3.226-3.091-1.319 0-2.819.455-3.5 2.046l1.272.454c.296-.636.995-1.318 2.273-1.318 1.233 0 1.84.653 1.84 1.773v.045c0 .648-.658.591-2.25.796-1.618.21-3.385.568-3.385 2.568 0 1.704 1.318 2.682 2.977 2.682zm.204-1.205c-1.068 0-1.84-.477-1.84-1.409 0-1.023.931-1.341 1.977-1.477.568-.069 2.09-.228 2.318-.5v1.227c0 1.091-.864 2.159-2.455 2.159zm12.971-7.727h-1.341v4.426a7.378 7.378 0 01-2.114.301c-1.091 0-1.932-.614-1.932-1.955v-2.795h-1.34v2.795c0 2.137 1.295 3.205 3.272 3.205.824 0 1.483-.108 2.114-.295V183h1.341v-8.727zm6.119 8.909c1.773 0 3.068-.887 3.477-2.205l-1.295-.363c-.341.909-1.131 1.363-2.182 1.363-1.574 0-2.659-1.017-2.722-2.886h6.335v-.568c0-3.25-1.931-4.364-3.75-4.364-2.363 0-3.931 1.864-3.931 4.546 0 2.681 1.545 4.477 4.068 4.477zm-2.722-5.25c.091-1.358 1.051-2.568 2.585-2.568 1.455 0 2.387 1.091 2.387 2.568h-4.972zm12.875 8.341h1.341v-4.614h.114c.295.477.863 1.523 2.545 1.523 2.182 0 3.705-1.75 3.705-4.523 0-2.75-1.523-4.5-3.727-4.5-1.705 0-2.228 1.046-2.523 1.5h-.159v-1.386h-1.296v12zm1.318-7.637c0-1.954.864-3.272 2.5-3.272 1.705 0 2.546 1.431 2.546 3.272 0 1.864-.864 3.341-2.546 3.341-1.613 0-2.5-1.363-2.5-3.341zm12.091 4.546c1.773 0 3.069-.887 3.478-2.205l-1.296-.363c-.341.909-1.131 1.363-2.182 1.363-1.573 0-2.659-1.017-2.721-2.886h6.335v-.568c0-3.25-1.932-4.364-3.75-4.364-2.364 0-3.932 1.864-3.932 4.546 0 2.681 1.546 4.477 4.068 4.477zm-2.721-5.25c.091-1.358 1.051-2.568 2.585-2.568 1.455 0 2.386 1.091 2.386 2.568h-4.971zm8.375 5.068h1.341v-3.682h1.204l2.864 3.682h1.727l-3.568-4.523 3.523-4.204h-1.728l-3.136 3.795h-.886v-3.795h-1.341V183zm9.457 3.25c1.21 0 2.068-.642 2.568-1.977l3.716-9.978-1.466-.022-2.409 6.954h-.091l-2.409-6.954h-1.454l3.227 8.772-.25.682c-.477 1.307-1.091 1.432-2.068 1.182l-.341 1.182c.136.068.523.159.977.159zm8.058.023h1.341v-4.614h.114c.295.477.864 1.523 2.545 1.523 2.182 0 3.705-1.75 3.705-4.523 0-2.75-1.523-4.5-3.727-4.5-1.705 0-2.228 1.046-2.523 1.5h-.159v-1.386h-1.296v12zm1.319-7.637c0-1.954.863-3.272 2.5-3.272 1.704 0 2.545 1.431 2.545 3.272 0 1.864-.864 3.341-2.545 3.341-1.614 0-2.5-1.363-2.5-3.341zm11.977 4.546c1.932 0 3.204-1.182 3.432-2.727h-1.341c-.25.954-1.046 1.522-2.091 1.522-1.591 0-2.614-1.318-2.614-3.341 0-1.977 1.046-3.272 2.614-3.272 1.182 0 1.886.727 2.091 1.522h1.341c-.228-1.636-1.614-2.727-3.455-2.727-2.364 0-3.932 1.864-3.932 4.523 0 2.613 1.5 4.5 3.955 4.5zm6.733-2.159v-6.75h-1.341V183h1.568l4.182-6.75V183h1.341v-8.727h-1.546l-4.204 6.75zm8.206 1.977h4.113c1.773 0 2.841-1 2.841-2.341 0-1.369-1.039-2.108-2-2.25.983-.204 1.682-.756 1.682-1.818 0-1.392-1.193-2.318-3.068-2.318h-3.568V183zm1.273-1.227v-2.682h2.84c.921 0 1.478.551 1.478 1.454 0 .762-.557 1.228-1.478 1.228h-2.84zm0-3.841V175.5h2.295c1.074 0 1.727.449 1.727 1.182 0 .778-.653 1.25-1.727 1.25h-2.295zm9.052-3.659h-1.341V183h1.341v-3.727h4.182V183h1.341v-8.727h-1.341v3.75h-4.182v-3.75zm11.517 8.909c2.364 0 3.955-1.796 3.955-4.5 0-2.727-1.591-4.523-3.955-4.523s-3.954 1.796-3.954 4.523c0 2.704 1.59 4.5 3.954 4.5zm0-1.205c-1.795 0-2.614-1.545-2.614-3.295s.819-3.318 2.614-3.318c1.796 0 2.614 1.568 2.614 3.318s-.818 3.295-2.614 3.295zm9.57 3.523h1.341V183h6.454v2.5h1.341v-3.75h-1.341v-7.477h-5.545l-.296 3.454c-.21 2.443-.522 3.284-1.227 4.023h-.727v3.75zm2.25-3.75c.613-.807.835-2.199 1.022-4.023l.228-2.204h2.954v6.227h-4.204zm12.211 1.432c2.364 0 3.955-1.796 3.955-4.5 0-2.727-1.591-4.523-3.955-4.523-2.363 0-3.954 1.796-3.954 4.523 0 2.704 1.591 4.5 3.954 4.5zm0-1.205c-1.795 0-2.613-1.545-2.613-3.295s.818-3.318 2.613-3.318c1.796 0 2.614 1.568 2.614 3.318s-.818 3.295-2.614 3.295zM244.267 171c-.426.358-1.062.358-1.955.352-.289 0-.607 0-.954.012-2.659.068-3.977 2.091-3.977 5.977v.932c0 3.227 1.568 4.909 3.909 4.909 2.335 0 3.886-1.693 3.886-4.432 0-2.75-1.574-4.205-3.614-4.205-1.198 0-2.318.5-2.909 1.591h-.113c.182-2.25 1.022-3.454 2.841-3.522 1.613-.069 2.772-.023 3.568-.796l-.682-.818zm-2.977 10.977c-1.591 0-2.568-1.272-2.568-3.227.028-1.909.988-3 2.545-3 1.597 0 2.568 1.091 2.568 3 0 1.966-.966 3.227-2.545 3.227zm8.505 1.228c1.523 0 2.319-.819 2.591-1.387h.069V183h1.34v-5.75c0-2.773-2.113-3.091-3.227-3.091-1.318 0-2.818.455-3.5 2.046l1.273.454c.295-.636.994-1.318 2.273-1.318 1.233 0 1.841.653 1.841 1.773v.045c0 .648-.66.591-2.25.796-1.62.21-3.387.568-3.387 2.568 0 1.704 1.318 2.682 2.977 2.682zM250 182c-1.068 0-1.841-.477-1.841-1.409 0-1.023.932-1.341 1.977-1.477.569-.069 2.091-.228 2.319-.5v1.227c0 1.091-.864 2.159-2.455 2.159zm6.243 1h4.114c1.772 0 2.84-1 2.84-2.341 0-1.369-1.039-2.108-2-2.25.983-.204 1.682-.756 1.682-1.818 0-1.392-1.193-2.318-3.068-2.318h-3.568V183zm1.273-1.227v-2.682h2.841c.92 0 1.477.551 1.477 1.454 0 .762-.557 1.228-1.477 1.228h-2.841zm0-3.841V175.5h2.295c1.074 0 1.727.449 1.727 1.182 0 .778-.653 1.25-1.727 1.25h-2.295zm9.052 3.091v-6.75h-1.341V183h1.568l4.182-6.75V183h1.341v-8.727h-1.545l-4.205 6.75zm7.019-5.5h2.886V183h1.341v-7.477h2.864v-1.25h-7.091v1.25zm10.387 1.909v-3.159h-1.34V183h3.659c2.045 0 3.159-1.25 3.159-2.818 0-1.591-1.114-2.75-3.159-2.75h-2.319zm0 1.25h2.319c1.062 0 1.818.648 1.818 1.568 0 .881-.756 1.5-1.818 1.5h-2.319v-3.068zM54.227 202h4.114c1.773 0 2.84-1 2.84-2.341 0-1.369-1.039-2.108-2-2.25.984-.204 1.683-.756 1.683-1.818 0-1.392-1.194-2.318-3.069-2.318h-3.568V202zm1.273-1.227v-2.682h2.84c.921 0 1.478.551 1.478 1.454 0 .762-.557 1.228-1.477 1.228H55.5zm0-3.841V194.5h2.295c1.074 0 1.728.449 1.728 1.182 0 .778-.654 1.25-1.728 1.25H55.5zm11.37 5.25c1.773 0 3.069-.887 3.478-2.205l-1.295-.363c-.341.909-1.131 1.363-2.182 1.363-1.574 0-2.66-1.017-2.722-2.886h6.335v-.568c0-3.25-1.931-4.364-3.75-4.364-2.363 0-3.931 1.864-3.931 4.546 0 2.681 1.545 4.477 4.068 4.477zm-2.72-5.25c.09-1.358 1.05-2.568 2.584-2.568 1.455 0 2.387 1.091 2.387 2.568h-4.972zm8.374 8.341h1.341v-4.614h.114c.295.477.863 1.523 2.545 1.523 2.182 0 3.705-1.75 3.705-4.523 0-2.75-1.523-4.5-3.728-4.5-1.704 0-2.227 1.046-2.522 1.5h-.16v-1.386h-1.295v12zm1.318-7.637c0-1.954.864-3.272 2.5-3.272 1.705 0 2.546 1.431 2.546 3.272 0 1.864-.864 3.341-2.546 3.341-1.613 0-2.5-1.363-2.5-3.341zm8.432-4.363V202h10.614v-8.727h-1.341v7.477H88.25v-7.477h-1.34v7.477h-3.296v-7.477h-1.34zm14.404 6.75v-6.75h-1.341V202h1.568l4.182-6.75V202h1.341v-8.727h-1.546l-4.204 6.75zm9.546-6.75h-1.34V202h1.34v-3.727h4.182V202h1.341v-8.727h-1.341v3.75h-4.182v-3.75zm8.523 11.977c1.21 0 2.068-.642 2.568-1.977l3.716-9.978-1.466-.022-2.409 6.954h-.091l-2.409-6.954h-1.454l3.227 8.772-.25.682c-.477 1.307-1.091 1.432-2.068 1.182l-.341 1.182c.136.068.523.159.977.159zm16.104-3.068c1.932 0 3.204-1.182 3.432-2.727h-1.341c-.25.954-1.046 1.522-2.091 1.522-1.591 0-2.614-1.318-2.614-3.341 0-1.977 1.046-3.272 2.614-3.272 1.182 0 1.886.727 2.091 1.522h1.341c-.228-1.636-1.614-2.727-3.455-2.727-2.364 0-3.932 1.864-3.932 4.523 0 2.613 1.5 4.5 3.955 4.5zm9.892-.182h1.341v-3.682h1.204l2.864 3.682h1.727l-3.568-4.523 3.523-4.204h-1.727l-3.137 3.795h-.886v-3.795h-1.341V202zm7.821 0h.454c1.932 0 2.489-1.5 2.614-4.364l.136-3.113h3.205V202h1.341v-8.727h-5.818l-.159 3.863c-.114 2.932-.409 3.614-1.455 3.614h-.318V202zm10.915-8.727h-1.341V202h1.341v-3.659h2.238c.239 2.335 1.756 3.841 3.921 3.841 2.363 0 3.954-1.796 3.954-4.5 0-2.727-1.591-4.523-3.954-4.523-2.188 0-3.716 1.54-3.926 3.932h-2.233v-3.818zm6.159 7.704c-1.796 0-2.614-1.545-2.614-3.295s.818-3.318 2.614-3.318c1.795 0 2.613 1.568 2.613 3.318s-.818 3.295-2.613 3.295zm12.863-7.704h-1.34v4.426a7.378 7.378 0 01-2.114.301c-1.091 0-1.932-.614-1.932-1.955v-2.795h-1.341v2.795c0 2.137 1.296 3.205 3.273 3.205.824 0 1.483-.108 2.114-.295V202h1.34v-8.727zm6.006 8.909c2.364 0 3.955-1.796 3.955-4.5 0-2.727-1.591-4.523-3.955-4.523s-3.954 1.796-3.954 4.523c0 2.704 1.59 4.5 3.954 4.5zm0-1.205c-1.795 0-2.614-1.545-2.614-3.295s.819-3.318 2.614-3.318c1.796 0 2.614 1.568 2.614 3.318s-.818 3.295-2.614 3.295zm10.774-.795l-3-6.909h-1.772V202h1.34v-6.801l2.887 6.801h1.091l2.886-6.676V202h1.341v-8.727h-1.727l-3.046 6.909zM207.19 202h1.409v-3.773l1.455-1.636 4.045 5.409h1.705l-4.886-6.386 4.886-5.25h-1.841l-5.227 5.772h-.137v-5.772h-1.409V202zm14.756 0h4.114c1.772 0 2.841-1 2.841-2.341 0-1.369-1.04-2.108-2-2.25.983-.204 1.681-.756 1.681-1.818 0-1.392-1.193-2.318-3.068-2.318h-3.568V202zm1.273-1.227v-2.682h2.841c.92 0 1.477.551 1.477 1.454 0 .762-.557 1.228-1.477 1.228h-2.841zm0-3.841V194.5h2.295c1.074 0 1.727.449 1.727 1.182 0 .778-.653 1.25-1.727 1.25h-2.295zM234.658 202h.454c1.932 0 2.489-1.5 2.614-4.364l.136-3.113h3.205V202h1.341v-8.727h-5.819l-.159 3.863c-.113 2.932-.409 3.614-1.454 3.614h-.318V202zm13.869.182c1.773 0 3.068-.887 3.477-2.205l-1.295-.363c-.341.909-1.131 1.363-2.182 1.363-1.574 0-2.659-1.017-2.722-2.886h6.336v-.568c0-3.25-1.932-4.364-3.75-4.364-2.364 0-3.932 1.864-3.932 4.546 0 2.681 1.545 4.477 4.068 4.477zm-2.722-5.25c.091-1.358 1.052-2.568 2.586-2.568 1.454 0 2.386 1.091 2.386 2.568h-4.972zM254.18 202h4.114c1.773 0 2.841-1 2.841-2.341 0-1.369-1.04-2.108-2-2.25.983-.204 1.682-.756 1.682-1.818 0-1.392-1.193-2.318-3.068-2.318h-3.569V202zm1.273-1.227v-2.682h2.841c.92 0 1.477.551 1.477 1.454 0 .762-.557 1.228-1.477 1.228h-2.841zm0-3.841V194.5h2.296c1.073 0 1.727.449 1.727 1.182 0 .778-.654 1.25-1.727 1.25h-2.296zm11.257 5.25c2.364 0 3.955-1.796 3.955-4.5 0-2.727-1.591-4.523-3.955-4.523-2.363 0-3.954 1.796-3.954 4.523 0 2.704 1.591 4.5 3.954 4.5zm0-1.205c-1.795 0-2.613-1.545-2.613-3.295s.818-3.318 2.613-3.318c1.796 0 2.614 1.568 2.614 3.318s-.818 3.295-2.614 3.295zm9.661 1.205c1.772 0 3.068-.887 3.477-2.205l-1.295-.363c-.341.909-1.131 1.363-2.182 1.363-1.574 0-2.659-1.017-2.722-2.886h6.335v-.568c0-3.25-1.931-4.364-3.75-4.364-2.363 0-3.931 1.864-3.931 4.546 0 2.681 1.545 4.477 4.068 4.477zm-2.722-5.25c.091-1.358 1.051-2.568 2.585-2.568 1.455 0 2.387 1.091 2.387 2.568h-4.972zM54.227 221h1.341v-7.477h4.182V221h1.34v-8.727h-6.863V221zm12.858.182c2.364 0 3.955-1.796 3.955-4.5 0-2.727-1.591-4.523-3.955-4.523-2.363 0-3.954 1.796-3.954 4.523 0 2.704 1.59 4.5 3.954 4.5zm0-1.205c-1.795 0-2.613-1.545-2.613-3.295s.818-3.318 2.613-3.318c1.796 0 2.614 1.568 2.614 3.318s-.818 3.295-2.614 3.295zm5.07 3.523h1.34V221h6.455v2.5h1.341v-3.75h-1.34v-7.477h-5.546l-.296 3.454c-.21 2.443-.522 3.284-1.227 4.023h-.727v3.75zm2.25-3.75c.614-.807.835-2.199 1.023-4.023l.227-2.204h2.954v6.227h-4.204zm7.734 3.75h1.341V221h6.455v2.5h1.34v-3.75h-1.34v-7.477h-5.546l-.295 3.454c-.21 2.443-.523 3.284-1.227 4.023h-.728v3.75zm2.25-3.75c.614-.807.835-2.199 1.023-4.023l.227-2.204h2.955v6.227h-4.205zm12.326 1.432c1.772 0 3.068-.887 3.477-2.205l-1.296-.363c-.34.909-1.13 1.363-2.181 1.363-1.574 0-2.66-1.017-2.722-2.886h6.335v-.568c0-3.25-1.932-4.364-3.75-4.364-2.364 0-3.932 1.864-3.932 4.546 0 2.681 1.546 4.477 4.069 4.477zm-2.722-5.25c.09-1.358 1.051-2.568 2.585-2.568 1.455 0 2.386 1.091 2.386 2.568h-4.971zm8.375 8.341h1.341v-4.614h.113c.296.477.864 1.523 2.546 1.523 2.182 0 3.704-1.75 3.704-4.523 0-2.75-1.522-4.5-3.727-4.5-1.704 0-2.227 1.046-2.523 1.5h-.159v-1.386h-1.295v12zm1.318-7.637c0-1.954.864-3.272 2.5-3.272 1.705 0 2.546 1.431 2.546 3.272 0 1.864-.864 3.341-2.546 3.341-1.614 0-2.5-1.363-2.5-3.341zm12.091 4.546c1.773 0 3.068-.887 3.477-2.205l-1.295-.363c-.341.909-1.131 1.363-2.182 1.363-1.574 0-2.659-1.017-2.722-2.886h6.336v-.568c0-3.25-1.932-4.364-3.75-4.364-2.364 0-3.932 1.864-3.932 4.546 0 2.681 1.545 4.477 4.068 4.477zm-2.722-5.25c.091-1.358 1.052-2.568 2.586-2.568 1.454 0 2.386 1.091 2.386 2.568h-4.972zM121.43 221h4.114c1.773 0 2.841-1 2.841-2.341 0-1.369-1.04-2.108-2-2.25.983-.204 1.682-.756 1.682-1.818 0-1.392-1.193-2.318-3.068-2.318h-3.569V221zm1.273-1.227v-2.682h2.841c.92 0 1.477.551 1.477 1.454 0 .762-.557 1.228-1.477 1.228h-2.841zm0-3.841V213.5h2.296c1.073 0 1.727.449 1.727 1.182 0 .778-.654 1.25-1.727 1.25h-2.296zm11.257 5.25c2.364 0 3.955-1.796 3.955-4.5 0-2.727-1.591-4.523-3.955-4.523-2.363 0-3.954 1.796-3.954 4.523 0 2.704 1.591 4.5 3.954 4.5zm0-1.205c-1.795 0-2.613-1.545-2.613-3.295s.818-3.318 2.613-3.318c1.796 0 2.614 1.568 2.614 3.318s-.818 3.295-2.614 3.295zm9.57 3.523h1.341V221h6.454v2.5h1.341v-3.75h-1.341v-7.477h-5.545l-.296 3.454c-.21 2.443-.522 3.284-1.227 4.023h-.727v3.75zm2.25-3.75c.613-.807.835-2.199 1.023-4.023l.227-2.204h2.954v6.227h-4.204zm12.325 1.432c1.773 0 3.068-.887 3.477-2.205l-1.295-.363c-.341.909-1.131 1.363-2.182 1.363-1.574 0-2.659-1.017-2.721-2.886h6.335v-.568c0-3.25-1.932-4.364-3.75-4.364-2.364 0-3.932 1.864-3.932 4.546 0 2.681 1.545 4.477 4.068 4.477zm-2.721-5.25c.09-1.358 1.051-2.568 2.585-2.568 1.454 0 2.386 1.091 2.386 2.568h-4.971zm8.375 8.341h1.34v-4.614h.114c.296.477.864 1.523 2.546 1.523 2.181 0 3.704-1.75 3.704-4.523 0-2.75-1.523-4.5-3.727-4.5-1.705 0-2.227 1.046-2.523 1.5h-.159v-1.386h-1.295v12zm1.318-7.637c0-1.954.863-3.272 2.5-3.272 1.704 0 2.545 1.431 2.545 3.272 0 1.864-.863 3.341-2.545 3.341-1.614 0-2.5-1.363-2.5-3.341zm12.091 4.546c1.772 0 3.068-.887 3.477-2.205l-1.296-.363c-.34.909-1.13 1.363-2.181 1.363-1.574 0-2.659-1.017-2.722-2.886h6.335v-.568c0-3.25-1.932-4.364-3.75-4.364-2.363 0-3.932 1.864-3.932 4.546 0 2.681 1.546 4.477 4.069 4.477zm-2.722-5.25c.091-1.358 1.051-2.568 2.585-2.568 1.455 0 2.387 1.091 2.387 2.568h-4.972zm8.375 5.068h4.114c1.772 0 2.841-1 2.841-2.341 0-1.369-1.04-2.108-2-2.25.983-.204 1.681-.756 1.681-1.818 0-1.392-1.193-2.318-3.068-2.318h-3.568V221zm1.273-1.227v-2.682h2.841c.92 0 1.477.551 1.477 1.454 0 .762-.557 1.228-1.477 1.228h-2.841zm0-3.841V213.5h2.295c1.074 0 1.727.449 1.727 1.182 0 .778-.653 1.25-1.727 1.25h-2.295zm10.28 5.273c1.522 0 2.318-.819 2.59-1.387h.069V221h1.341v-5.75c0-2.773-2.114-3.091-3.228-3.091-1.318 0-2.818.455-3.5 2.046l1.273.454c.295-.636.994-1.318 2.273-1.318 1.233 0 1.841.653 1.841 1.773v.045c0 .648-.659.591-2.25.796-1.62.21-3.387.568-3.387 2.568 0 1.704 1.318 2.682 2.978 2.682zm.204-1.205c-1.068 0-1.841-.477-1.841-1.409 0-1.023.932-1.341 1.977-1.477.569-.069 2.091-.228 2.319-.5v1.227c0 1.091-.864 2.159-2.455 2.159zm14.288 1.182c1.932 0 3.205-1.182 3.432-2.727h-1.341c-.25.954-1.045 1.522-2.091 1.522-1.59 0-2.613-1.318-2.613-3.341 0-1.977 1.045-3.272 2.613-3.272 1.182 0 1.887.727 2.091 1.522h1.341c-.227-1.636-1.613-2.727-3.454-2.727-2.364 0-3.932 1.864-3.932 4.523 0 2.613 1.5 4.5 3.954 4.5zm9.893-.182h1.34v-3.682h1.205l2.864 3.682h1.727l-3.568-4.523 3.522-4.204h-1.727l-3.136 3.795h-.887v-3.795h-1.34V221zm7.821 0h.454c1.932 0 2.489-1.5 2.614-4.364l.136-3.113h3.205V221h1.341v-8.727h-5.819l-.159 3.863c-.113 2.932-.409 3.614-1.454 3.614h-.318V221zm10.914-8.727h-1.341V221h1.341v-3.659h2.239c.239 2.335 1.756 3.841 3.92 3.841 2.364 0 3.955-1.796 3.955-4.5 0-2.727-1.591-4.523-3.955-4.523-2.187 0-3.715 1.54-3.926 3.932h-2.233v-3.818zm6.159 7.704c-1.795 0-2.613-1.545-2.613-3.295s.818-3.318 2.613-3.318c1.796 0 2.614 1.568 2.614 3.318s-.818 3.295-2.614 3.295zm12.864-7.704h-1.341v4.426a7.373 7.373 0 01-2.114.301c-1.09 0-1.931-.614-1.931-1.955v-2.795h-1.341v2.795c0 2.137 1.295 3.205 3.272 3.205.824 0 1.483-.108 2.114-.295V221h1.341v-8.727zm6.006 8.909c2.363 0 3.954-1.796 3.954-4.5 0-2.727-1.591-4.523-3.954-4.523-2.364 0-3.955 1.796-3.955 4.523 0 2.704 1.591 4.5 3.955 4.5zm0-1.205c-1.796 0-2.614-1.545-2.614-3.295s.818-3.318 2.614-3.318c1.795 0 2.613 1.568 2.613 3.318s-.818 3.295-2.613 3.295zm10.774-.795l-3-6.909h-1.773V221h1.341v-6.801l2.886 6.801h1.091l2.887-6.676V221h1.341v-8.727h-1.728l-3.045 6.909zm-218.206 9.182h-1.66l3.75 5.818-3.75 5.818h1.66l3-4.75h.09l3 4.75h1.66l-3.66-5.818 3.66-5.818h-1.66l-3 4.841h-.09l-3-4.841zm10.38 11.727c.562 0 1.022-.46 1.022-1.023 0-.562-.46-1.023-1.023-1.023-.562 0-1.023.461-1.023 1.023 0 .563.46 1.023 1.023 1.023z" fill="#000"/></svg>