<svg width="325" height="429" fill="none" xmlns="http://www.w3.org/2000/svg"><path d="M68.561 14.91c0-6.011-3.8-9.34-8.682-9.34-4.9 0-8.674 3.329-8.674 9.34 0 5.983 3.773 9.339 8.674 9.339 4.883 0 8.682-3.33 8.682-9.34zm-4.492 0c0 3.56-1.562 5.486-4.19 5.486-2.62 0-4.19-1.927-4.19-5.487s1.57-5.486 4.19-5.486c2.628 0 4.19 1.926 4.19 5.486zM71.127 24h4.057V13.684h4.146V24h4.11V10.364H71.128V24zm21.438.258c3.578 0 5.93-1.732 6.427-4.413l-3.986-.115c-.337.905-1.225 1.394-2.361 1.394-1.67 0-2.7-1.11-2.7-2.78v-.115h9.092v-1.083c0-4.492-2.735-6.96-6.605-6.96-4.12 0-6.765 2.823-6.765 7.05 0 4.367 2.61 7.021 6.898 7.021zm-2.62-8.55c.063-1.358 1.137-2.388 2.575-2.388 1.43 0 2.46.994 2.477 2.388h-5.051zm11.309 13.406h4.341v-7.325h.089c.55 1.261 1.776 2.406 3.835 2.406 3.019 0 5.451-2.361 5.451-7.004 0-4.812-2.574-7.005-5.424-7.005-2.157 0-3.338 1.26-3.862 2.512h-.133v-2.334h-4.297v18.75zm4.252-11.932c0-2.228.924-3.605 2.513-3.605 1.607 0 2.495 1.412 2.495 3.605 0 2.202-.888 3.63-2.495 3.63-1.589 0-2.513-1.42-2.513-3.63zm15.583 7.049c1.9 0 3.214-.737 3.96-2.13h.106V24h4.084v-9.268c0-2.886-2.566-4.546-6.037-4.546-3.666 0-5.744 1.847-6.09 4.332l4.004.143c.186-.87.905-1.403 2.051-1.403 1.065 0 1.74.515 1.74 1.43v.043c0 .835-.906 1.013-3.232 1.217-2.761.23-5.069 1.252-5.069 4.27 0 2.699 1.873 4.013 4.483 4.013zm1.341-2.841c-1.003 0-1.714-.48-1.714-1.385 0-.879.693-1.412 1.927-1.598.808-.116 1.802-.293 2.29-.55v1.296c0 1.331-1.118 2.237-2.503 2.237zm21.786-11.026h-4.057V20.68h-4.146V10.364h-4.11V24h12.313v4.377h4.19v-7.209h-4.19V10.364zm10.318 8.016v-8.016h-4.11V24h4.181l4.351-8.043V24h4.11V10.364h-4.173l-4.359 8.016zM173.748 24h4.04V10.364h-6.241c-3.729 0-6.082 1.9-6.055 4.616-.018 1.607.914 2.894 2.539 3.631L165.225 24h4.067l2.459-4.714h1.997V24zm0-7.466h-2.166c-1.341 0-1.997-.666-1.98-1.412-.017-.719.631-1.447 1.945-1.447h2.201v2.859zM185.8 24h4.057V13.684h4.146V24h4.11V10.364H185.8V24zm21.429.258c4.288 0 6.889-2.833 6.889-7.032 0-4.208-2.601-7.04-6.889-7.04s-6.889 2.832-6.889 7.04c0 4.2 2.601 7.032 6.889 7.032zm.026-3.276c-1.606 0-2.494-1.527-2.494-3.782 0-2.264.888-3.8 2.494-3.8 1.554 0 2.442 1.536 2.442 3.8 0 2.255-.888 3.782-2.442 3.782zm13.197-2.602v-8.016h-4.11V24h4.181l4.35-8.043V24h4.111V10.364h-4.173l-4.359 8.016zm17.661 5.878c3.835 0 6.214-2.229 6.329-5.602h-4.057c-.16 1.447-1.03 2.237-2.219 2.237-1.527 0-2.521-1.288-2.521-3.711 0-2.406 1.003-3.693 2.521-3.693 1.243 0 2.051.843 2.219 2.237h4.057c-.097-3.356-2.547-5.54-6.338-5.54-4.288 0-6.881 2.859-6.881 7.04 0 4.164 2.575 7.032 6.89 7.032zm8.551-.258h4.341v-4.528h1.261L255.258 24h5.087l-4.634-6.81 4.59-6.826h-5.025l-3.312 5.078h-.959v-5.078h-4.341V24zm18.883.23c1.9 0 3.214-.736 3.96-2.13h.106V24h4.084v-9.268c0-2.886-2.566-4.546-6.037-4.546-3.666 0-5.744 1.847-6.09 4.332l4.004.143c.186-.87.905-1.403 2.051-1.403 1.065 0 1.74.515 1.74 1.43v.043c0 .835-.906 1.013-3.232 1.217-2.761.23-5.069 1.252-5.069 4.27 0 2.699 1.873 4.013 4.483 4.013zm1.341-2.84c-1.003 0-1.714-.48-1.714-1.385 0-.879.693-1.412 1.927-1.598.808-.116 1.802-.293 2.29-.55v1.296c0 1.331-1.118 2.237-2.503 2.237zM5.41 66.818h1.34V64h8.204v2.796h1.341V62.75h-1.34V52.364h-6.91l-.25 4.909c-.159 3.34-.863 4.772-1.636 5.477h-.75v4.068zm2.43-4.068c.705-1.114 1.16-2.932 1.296-5.477l.182-3.66h4.296v9.137H7.84zm12.971 1.454c1.523 0 2.318-.818 2.591-1.386h.068V64h1.341v-5.75c0-2.773-2.114-3.09-3.227-3.09-1.318 0-2.818.454-3.5 2.045l1.273.454c.295-.636.994-1.318 2.272-1.318 1.233 0 1.841.653 1.841 1.773v.045c0 .648-.659.591-2.25.796-1.62.21-3.386.568-3.386 2.568 0 1.704 1.318 2.681 2.977 2.681zM21.016 63c-1.069 0-1.841-.477-1.841-1.41 0-1.022.931-1.34 1.977-1.476.568-.069 2.09-.228 2.318-.5v1.227c0 1.09-.863 2.159-2.454 2.159zm7.583-7.727h-1.34V64h1.34v-3.727h4.182V64h1.341v-8.727h-1.34v3.75h-4.183v-3.75zm11.518 8.909c2.363 0 3.954-1.796 3.954-4.5 0-2.727-1.59-4.523-3.954-4.523s-3.955 1.796-3.955 4.523c0 2.704 1.59 4.5 3.955 4.5zm0-1.205c-1.796 0-2.614-1.545-2.614-3.295s.818-3.318 2.614-3.318c1.795 0 2.613 1.568 2.613 3.318s-.818 3.295-2.613 3.295zm6.978 1.114c.563 0 1.023-.46 1.023-1.023 0-.562-.46-1.023-1.023-1.023-.562 0-1.023.46-1.023 1.023s.46 1.023 1.023 1.023zm0-6.477c.563 0 1.023-.46 1.023-1.023s-.46-1.023-1.023-1.023c-.562 0-1.023.46-1.023 1.023 0 .562.46 1.023 1.023 1.023zm11.588 6.568c1.773 0 3.068-.887 3.477-2.205l-1.295-.363c-.34.909-1.13 1.363-2.182 1.363-1.574 0-2.659-1.017-2.721-2.886h6.335v-.568c0-3.25-1.932-4.364-3.75-4.364-2.364 0-3.932 1.864-3.932 4.546 0 2.681 1.545 4.477 4.068 4.477zm-2.721-5.25c.09-1.358 1.05-2.568 2.585-2.568 1.454 0 2.386 1.09 2.386 2.568h-4.971zm11.92 5.25c1.932 0 3.205-1.182 3.432-2.727h-1.341c-.25.954-1.045 1.522-2.09 1.522-1.592 0-2.614-1.318-2.614-3.34 0-1.978 1.045-3.273 2.613-3.273 1.182 0 1.886.727 2.091 1.522h1.34c-.226-1.636-1.613-2.727-3.454-2.727-2.363 0-3.931 1.864-3.931 4.523 0 2.613 1.5 4.5 3.954 4.5zm4.705-7.66h2.886V64h1.34v-7.477h2.865v-1.25h-7.091v1.25zm10.387 1.91v-3.16h-1.34V64h3.659c2.045 0 3.159-1.25 3.159-2.818 0-1.591-1.114-2.75-3.16-2.75h-2.318zm0 1.25h2.319c1.062 0 1.818.648 1.818 1.568 0 .88-.756 1.5-1.818 1.5h-2.319v-3.068zM94.061 66.5h1.341V64h6.455v2.5h1.34v-3.75h-1.34v-7.477h-5.546l-.295 3.454c-.21 2.444-.523 3.284-1.228 4.023h-.727v3.75zm2.25-3.75c.614-.807.835-2.199 1.023-4.023l.227-2.204h2.955v6.227h-4.205zm12.325 1.432c1.773 0 3.069-.887 3.478-2.205l-1.296-.363c-.341.909-1.13 1.363-2.182 1.363-1.574 0-2.659-1.017-2.721-2.886h6.335v-.568c0-3.25-1.932-4.364-3.75-4.364-2.364 0-3.932 1.864-3.932 4.546 0 2.681 1.546 4.477 4.068 4.477zm-2.721-5.25c.091-1.358 1.051-2.568 2.585-2.568 1.455 0 2.386 1.09 2.386 2.568h-4.971zm8.375 8.34h1.341V62.66h.113c.296.477.864 1.523 2.546 1.523 2.182 0 3.704-1.75 3.704-4.523 0-2.75-1.522-4.5-3.727-4.5-1.705 0-2.227 1.046-2.523 1.5h-.159v-1.386h-1.295v12zm1.318-7.636c0-1.954.864-3.272 2.5-3.272 1.704 0 2.545 1.431 2.545 3.272 0 1.864-.863 3.341-2.545 3.341-1.614 0-2.5-1.363-2.5-3.34zm12.091 4.546c1.773 0 3.068-.887 3.477-2.205l-1.295-.363c-.341.909-1.131 1.363-2.182 1.363-1.574 0-2.659-1.017-2.722-2.886h6.335v-.568c0-3.25-1.931-4.364-3.75-4.364-2.363 0-3.931 1.864-3.931 4.546 0 2.681 1.545 4.477 4.068 4.477zm-2.722-5.25c.091-1.358 1.051-2.568 2.585-2.568 1.455 0 2.387 1.09 2.387 2.568h-4.972zM133.352 64h4.114c1.773 0 2.841-1 2.841-2.34 0-1.37-1.04-2.109-2-2.25.983-.205 1.682-.757 1.682-1.82 0-1.391-1.194-2.317-3.069-2.317h-3.568V64zm1.273-1.227V60.09h2.841c.92 0 1.477.551 1.477 1.454 0 .762-.557 1.228-1.477 1.228h-2.841zm0-3.841V56.5h2.295c1.074 0 1.728.449 1.728 1.182 0 .778-.654 1.25-1.728 1.25h-2.295zm11.257 5.25c2.364 0 3.955-1.796 3.955-4.5 0-2.727-1.591-4.523-3.955-4.523s-3.954 1.796-3.954 4.523c0 2.704 1.59 4.5 3.954 4.5zm0-1.205c-1.795 0-2.614-1.545-2.614-3.295s.819-3.318 2.614-3.318c1.796 0 2.614 1.568 2.614 3.318s-.818 3.295-2.614 3.295zm10.047-9.363h3.659V64h1.409V53.614h3.659v-1.25h-8.727v1.25zm16.561 8.409v-6.75h-1.341V64h1.568l4.182-6.75V64h1.341v-8.727h-1.545l-4.205 6.75zM185.196 64h4.114c1.772 0 2.841-1 2.841-2.34 0-1.37-1.04-2.109-2-2.25.983-.205 1.681-.757 1.681-1.82 0-1.391-1.193-2.317-3.068-2.317h-3.568V64zm1.273-1.227V60.09h2.841c.92 0 1.477.551 1.477 1.454 0 .762-.557 1.228-1.477 1.228h-2.841zm0-3.841V56.5h2.295c1.074 0 1.727.449 1.727 1.182 0 .778-.653 1.25-1.727 1.25h-2.295zm11.37 5.25c1.773 0 3.069-.887 3.478-2.205l-1.296-.363c-.341.909-1.13 1.363-2.182 1.363-1.573 0-2.659-1.017-2.721-2.886h6.335v-.568c0-3.25-1.932-4.364-3.75-4.364-2.364 0-3.932 1.864-3.932 4.546 0 2.681 1.546 4.477 4.068 4.477zm-2.721-5.25c.091-1.358 1.051-2.568 2.585-2.568 1.455 0 2.386 1.09 2.386 2.568h-4.971zm8.375 8.34h1.341V62.66h.113c.296.477.864 1.523 2.546 1.523 2.182 0 3.704-1.75 3.704-4.523 0-2.75-1.522-4.5-3.727-4.5-1.704 0-2.227 1.046-2.523 1.5h-.159v-1.386h-1.295v12zm1.318-7.636c0-1.954.864-3.272 2.5-3.272 1.705 0 2.546 1.431 2.546 3.272 0 1.864-.864 3.341-2.546 3.341-1.614 0-2.5-1.363-2.5-3.34zm8.432-4.363V64h10.614v-8.727h-1.341v7.477h-3.296v-7.477h-1.341v7.477h-3.295v-7.477h-1.341zm14.403 6.75v-6.75h-1.341V64h1.569l4.181-6.75V64h1.341v-8.727h-1.545l-4.205 6.75zm9.547-6.75h-1.341V64h1.341v-3.727h4.182V64h1.341v-8.727h-1.341v3.75h-4.182v-3.75zm10.54 8.931c1.523 0 2.318-.818 2.591-1.386h.068V64h1.341v-5.75c0-2.773-2.114-3.09-3.227-3.09-1.318 0-2.818.454-3.5 2.045l1.272.454c.296-.636.995-1.318 2.273-1.318 1.233 0 1.841.653 1.841 1.773v.045c0 .648-.659.591-2.25.796-1.619.21-3.386.568-3.386 2.568 0 1.704 1.318 2.681 2.977 2.681zm.205-1.204c-1.069 0-1.841-.477-1.841-1.41 0-1.022.931-1.34 1.977-1.476.568-.069 2.091-.228 2.318-.5v1.227c0 1.09-.864 2.159-2.454 2.159zm14.288 1.182c1.932 0 3.204-1.182 3.432-2.727h-1.341c-.25.954-1.046 1.522-2.091 1.522-1.591 0-2.614-1.318-2.614-3.34 0-1.978 1.046-3.273 2.614-3.273 1.182 0 1.886.727 2.091 1.522h1.341c-.228-1.636-1.614-2.727-3.455-2.727-2.364 0-3.932 1.864-3.932 4.523 0 2.613 1.5 4.5 3.955 4.5zM6.227 83h1.341v-3.682h1.205L11.636 83h1.728l-3.569-4.523 3.523-4.204h-1.727l-3.136 3.795h-.887v-3.795h-1.34V83zm7.821 0h.455c1.932 0 2.488-1.5 2.613-4.364l.137-3.113h3.204V83h1.341v-8.727H15.98l-.159 3.863c-.114 2.932-.41 3.614-1.454 3.614h-.319V83zm10.915-8.727h-1.34V83h1.34v-3.66h2.239c.238 2.336 1.755 3.842 3.92 3.842 2.364 0 3.955-1.796 3.955-4.5 0-2.728-1.591-4.523-3.955-4.523-2.187 0-3.716 1.54-3.926 3.932h-2.233v-3.818zm6.16 7.704c-1.796 0-2.614-1.545-2.614-3.295s.818-3.318 2.613-3.318c1.796 0 2.614 1.568 2.614 3.318s-.818 3.295-2.614 3.295zm12.863-7.704h-1.341v4.426A7.355 7.355 0 0140.53 79c-1.09 0-1.932-.614-1.932-1.954V74.25h-1.34v2.796c0 2.136 1.295 3.204 3.272 3.204.824 0 1.483-.108 2.114-.296V83h1.34v-8.727zm6.006 8.909c2.363 0 3.954-1.796 3.954-4.5 0-2.728-1.59-4.523-3.954-4.523s-3.955 1.795-3.955 4.523c0 2.704 1.59 4.5 3.955 4.5zm0-1.205c-1.796 0-2.614-1.545-2.614-3.295s.818-3.318 2.614-3.318c1.795 0 2.613 1.568 2.613 3.318s-.818 3.295-2.613 3.295zm10.774-.795l-3-6.91h-1.773V83h1.34v-6.801L60.22 83h1.091l2.886-6.676V83h1.341v-8.727h-1.727l-3.045 6.909zM72.675 83h1.409v-3.773l1.454-1.636L79.584 83h1.704l-4.886-6.386 4.886-5.25h-1.84l-5.228 5.772h-.136v-5.772h-1.41V83zm11.233.09c.562 0 1.022-.46 1.022-1.022s-.46-1.022-1.022-1.022c-.563 0-1.023.46-1.023 1.022 0 .563.46 1.023 1.023 1.023zm-73.772 19.07c2.256 0 3.932-1.415 3.932-3.318 0-1.477-.875-2.551-2.34-2.795v-.092c1.175-.357 1.908-1.323 1.908-2.636 0-1.647-1.3-3.114-3.454-3.114-2.012 0-3.682 1.24-3.75 3.069h1.363c.052-1.16 1.154-1.841 2.364-1.841 1.284 0 2.114.778 2.114 1.954 0 1.228-.96 2.023-2.341 2.023H9v1.25h.932c1.767 0 2.75.898 2.75 2.182 0 1.233-1.074 2.068-2.568 2.068-1.347 0-2.415-.693-2.5-1.818H6.182c.085 1.829 1.699 3.068 3.954 3.068zm8.847.046c1.523 0 2.318-.819 2.59-1.387h.069V102h1.341v-5.75c0-2.773-2.114-3.09-3.227-3.09-1.319 0-2.819.454-3.5 2.044l1.272.455c.296-.636.995-1.318 2.273-1.318 1.233 0 1.841.653 1.841 1.773v.045c0 .648-.659.591-2.25.795-1.62.21-3.386.569-3.386 2.569 0 1.704 1.318 2.682 2.977 2.682zm.204-1.205c-1.068 0-1.84-.477-1.84-1.41 0-1.022.931-1.34 1.977-1.476.568-.069 2.09-.228 2.318-.5v1.227c0 1.09-.864 2.159-2.454 2.159zm5.312 3.5h1.34V102h6.455v2.5h1.34v-3.75h-1.34v-7.477h-5.545l-.296 3.454c-.21 2.444-.523 3.284-1.227 4.023h-.727v3.75zm2.25-3.75c.613-.807.835-2.199 1.022-4.023L28 94.523h2.954v6.227H26.75zm11.234 1.455c1.523 0 2.318-.819 2.59-1.387h.069V102h1.341v-5.75c0-2.773-2.114-3.09-3.227-3.09-1.319 0-2.819.454-3.5 2.044l1.272.455c.296-.636.995-1.318 2.273-1.318 1.233 0 1.841.653 1.841 1.773v.045c0 .648-.659.591-2.25.795-1.62.21-3.386.569-3.386 2.569 0 1.704 1.318 2.682 2.977 2.682zm.205-1.205c-1.069 0-1.841-.477-1.841-1.41 0-1.022.931-1.34 1.977-1.476.568-.069 2.09-.228 2.318-.5v1.227c0 1.09-.864 2.159-2.455 2.159zm12.97-7.727h-1.341V97.7a7.356 7.356 0 01-2.114.301c-1.09 0-1.932-.614-1.932-1.954V93.25h-1.34v2.796c0 2.136 1.295 3.204 3.272 3.204.824 0 1.483-.108 2.114-.296V102h1.34v-8.727zm5.028 8.932c1.523 0 2.318-.819 2.591-1.387h.068V102h1.341v-5.75c0-2.773-2.114-3.09-3.227-3.09-1.318 0-2.818.454-3.5 2.044l1.272.455c.296-.636.995-1.318 2.273-1.318 1.233 0 1.841.653 1.841 1.773v.045c0 .648-.659.591-2.25.795-1.62.21-3.386.569-3.386 2.569 0 1.704 1.318 2.682 2.977 2.682zm.205-1.205c-1.069 0-1.841-.477-1.841-1.41 0-1.022.931-1.34 1.977-1.476.568-.069 2.09-.228 2.318-.5v1.227c0 1.09-.864 2.159-2.454 2.159zm7.22 1.091c.562 0 1.023-.46 1.023-1.023 0-.562-.46-1.023-1.023-1.023s-1.023.461-1.023 1.023c0 .563.46 1.023 1.023 1.023zm0-6.477c.562 0 1.023-.46 1.023-1.023s-.46-1.023-1.023-1.023-1.023.46-1.023 1.023c0 .562.46 1.023 1.023 1.023zM71.54 102h1.34v-7.477h4.183V102h1.34v-8.727H71.54V102zm9.312 3.273h1.341v-4.614h.114c.295.477.864 1.523 2.545 1.523 2.182 0 3.705-1.75 3.705-4.523 0-2.75-1.523-4.5-3.728-4.5-1.704 0-2.227 1.045-2.522 1.5h-.16v-1.386h-1.295v12zm1.319-7.637c0-1.954.863-3.272 2.5-3.272 1.704 0 2.545 1.431 2.545 3.272 0 1.864-.864 3.341-2.545 3.341-1.614 0-2.5-1.363-2.5-3.34zm11.977 4.546c2.363 0 3.954-1.796 3.954-4.5 0-2.728-1.59-4.523-3.954-4.523s-3.955 1.795-3.955 4.523c0 2.704 1.591 4.5 3.955 4.5zm0-1.205c-1.796 0-2.614-1.545-2.614-3.295s.818-3.318 2.614-3.318c1.795 0 2.613 1.568 2.613 3.318s-.818 3.295-2.613 3.295zm6.001 1.023h4.114c1.773 0 2.841-1 2.841-2.34 0-1.37-1.04-2.109-2-2.25.983-.206 1.682-.757 1.682-1.82 0-1.391-1.194-2.317-3.069-2.317h-3.568V102zm1.273-1.227v-2.682h2.841c.92 0 1.477.551 1.477 1.455 0 .761-.557 1.227-1.477 1.227h-2.841zm0-3.841V94.5h2.295c1.074 0 1.728.449 1.728 1.182 0 .778-.654 1.25-1.728 1.25h-2.295zm11.371 5.25c1.772 0 3.068-.887 3.477-2.205l-1.296-.363c-.34.909-1.13 1.363-2.181 1.363-1.574 0-2.659-1.017-2.722-2.886h6.335v-.568c0-3.25-1.932-4.364-3.75-4.364-2.363 0-3.932 1.864-3.932 4.545 0 2.682 1.546 4.478 4.069 4.478zm-2.722-5.25c.091-1.358 1.051-2.568 2.585-2.568 1.455 0 2.387 1.09 2.387 2.568h-4.972zm8.375 8.341h1.341v-4.614h.114c.295.477.863 1.523 2.545 1.523 2.182 0 3.705-1.75 3.705-4.523 0-2.75-1.523-4.5-3.728-4.5-1.704 0-2.227 1.045-2.522 1.5h-.16v-1.386h-1.295v12zm1.318-7.637c0-1.954.864-3.272 2.5-3.272 1.705 0 2.546 1.431 2.546 3.272 0 1.864-.864 3.341-2.546 3.341-1.613 0-2.5-1.363-2.5-3.34zm9.773 2.387v-6.75h-1.341V102h1.568l4.182-6.75V102h1.341v-8.727h-1.546l-4.204 6.75zm7.018-5.5h2.887V102h1.341v-7.477h2.863v-1.25h-7.091v1.25zm10.388 1.909v-3.16h-1.341V102h3.659c2.046 0 3.159-1.25 3.159-2.818 0-1.591-1.113-2.75-3.159-2.75h-2.318zm0 1.25h2.318c1.063 0 1.819.647 1.819 1.568 0 .881-.756 1.5-1.819 1.5h-2.318v-3.068zm9.519 2.727h-1.455l-.068.636c-.165 1.54-.489 3.074-.636 3.796h1.022c.273-.773.853-2.523 1.046-3.818l.091-.614zM168.696 102h1.273v-8.727h-3.591c-1.881 0-3.023.983-3.023 2.59 0 1.2.602 2.052 1.654 2.41L162.878 102h1.454l2.023-3.546h2.341V102zm0-4.796h-2.477c-.949 0-1.523-.505-1.523-1.34 0-.847.636-1.364 1.682-1.364h2.318v2.704zM172.43 102h4.114c1.773 0 2.841-1 2.841-2.34 0-1.37-1.04-2.109-2-2.25.983-.206 1.682-.757 1.682-1.82 0-1.391-1.193-2.317-3.068-2.317h-3.569V102zm1.273-1.227v-2.682h2.841c.92 0 1.477.551 1.477 1.455 0 .761-.557 1.227-1.477 1.227h-2.841zm0-3.841V94.5h2.296c1.073 0 1.727.449 1.727 1.182 0 .778-.654 1.25-1.727 1.25h-2.296zm6.939 5.068h.455c1.931 0 2.488-1.5 2.613-4.364l.137-3.113h3.204V102h1.341v-8.727h-5.818l-.159 3.863c-.114 2.932-.409 3.614-1.455 3.614h-.318V102zm15.46 0h1.273v-8.727h-3.591c-1.881 0-3.023.983-3.023 2.59 0 1.2.603 2.052 1.654 2.41L190.284 102h1.455l2.022-3.546h2.341V102zm0-4.796h-2.477c-.949 0-1.523-.505-1.523-1.34 0-.847.637-1.364 1.682-1.364h2.318v2.704zm7.394 4.978c1.772 0 3.068-.887 3.477-2.205l-1.295-.363c-.341.909-1.131 1.363-2.182 1.363-1.574 0-2.659-1.017-2.722-2.886h6.335v-.568c0-3.25-1.931-4.364-3.75-4.364-2.363 0-3.931 1.864-3.931 4.545 0 2.682 1.545 4.478 4.068 4.478zm-2.722-5.25c.091-1.358 1.051-2.568 2.585-2.568 1.455 0 2.387 1.09 2.387 2.568h-4.972zm7.563-2.41h2.886V102h1.341v-7.477h2.864v-1.25h-7.091v1.25zm12.139 7.66c1.932 0 3.204-1.182 3.432-2.728h-1.341c-.25.955-1.046 1.523-2.091 1.523-1.591 0-2.614-1.318-2.614-3.34 0-1.978 1.046-3.273 2.614-3.273 1.182 0 1.886.727 2.091 1.522h1.341c-.228-1.636-1.614-2.727-3.455-2.727-2.364 0-3.932 1.864-3.932 4.523 0 2.613 1.5 4.5 3.955 4.5zm10.642-.182h1.273v-8.727H228.8c-1.881 0-3.023.983-3.023 2.59 0 1.2.602 2.052 1.653 2.41L225.3 102h1.454l2.023-3.546h2.341V102zm0-4.796h-2.477c-.949 0-1.523-.505-1.523-1.34 0-.847.636-1.364 1.682-1.364h2.318v2.704zM238.58 102h.454c1.932 0 2.489-1.5 2.614-4.364l.136-3.113h3.205V102h1.341v-8.727h-5.819l-.159 3.863c-.113 2.932-.409 3.614-1.454 3.614h-.318V102zm11.551-1.977v-6.75h-1.341V102h1.568l4.182-6.75V102h1.341v-8.727h-1.546l-4.204 6.75zM6.227 121h4.114c1.773 0 2.84-1 2.84-2.341 0-1.369-1.039-2.108-2-2.25.984-.204 1.683-.756 1.683-1.818 0-1.392-1.194-2.318-3.069-2.318H6.227V121zm1.273-1.227v-2.682h2.84c.921 0 1.478.551 1.478 1.454 0 .762-.557 1.228-1.477 1.228H7.5zm0-3.841V113.5h2.295c1.074 0 1.728.449 1.728 1.182 0 .778-.654 1.25-1.728 1.25H7.5zm11.37 5.25c1.773 0 3.069-.887 3.478-2.205l-1.295-.363c-.341.909-1.131 1.363-2.182 1.363-1.574 0-2.66-1.017-2.722-2.886h6.335v-.568c0-3.25-1.931-4.364-3.75-4.364-2.363 0-3.931 1.864-3.931 4.546 0 2.681 1.545 4.477 4.068 4.477zm-2.72-5.25c.09-1.358 1.05-2.568 2.584-2.568 1.455 0 2.387 1.091 2.387 2.568h-4.972zm8.374 8.341h1.341v-4.614h.114c.295.477.863 1.523 2.545 1.523 2.182 0 3.705-1.75 3.705-4.523 0-2.75-1.523-4.5-3.728-4.5-1.704 0-2.227 1.046-2.522 1.5h-.16v-1.386h-1.295v12zm1.318-7.637c0-1.954.864-3.272 2.5-3.272 1.705 0 2.546 1.431 2.546 3.272 0 1.864-.864 3.341-2.546 3.341-1.613 0-2.5-1.363-2.5-3.341zm8.432-4.363V121h10.614v-8.727h-1.341v7.477H40.25v-7.477h-1.34v7.477h-3.296v-7.477h-1.34zm14.404 6.75v-6.75h-1.341V121h1.568l4.182-6.75V121h1.34v-8.727h-1.545l-4.204 6.75zm9.546-6.75h-1.34V121h1.34v-3.727h4.182V121h1.341v-8.727h-1.34v3.75h-4.183v-3.75zm10.54 8.932c1.523 0 2.318-.819 2.591-1.387h.068V121h1.341v-5.75c0-2.773-2.113-3.091-3.227-3.091-1.318 0-2.818.455-3.5 2.046l1.273.454c.295-.636.994-1.318 2.272-1.318 1.233 0 1.841.653 1.841 1.773v.045c0 .648-.659.591-2.25.796-1.619.21-3.386.568-3.386 2.568 0 1.704 1.318 2.682 2.977 2.682zM68.97 120c-1.068 0-1.841-.477-1.841-1.409 0-1.023.932-1.341 1.977-1.477.568-.069 2.091-.228 2.318-.5v1.227c0 1.091-.863 2.159-2.454 2.159zm14.288 1.182c1.932 0 3.205-1.182 3.432-2.727h-1.341c-.25.954-1.045 1.522-2.09 1.522-1.592 0-2.614-1.318-2.614-3.341 0-1.977 1.045-3.272 2.613-3.272 1.182 0 1.886.727 2.091 1.522h1.34c-.226-1.636-1.613-2.727-3.454-2.727-2.363 0-3.931 1.864-3.931 4.523 0 2.613 1.5 4.5 3.954 4.5zM93.15 121h1.341v-3.682h1.205L98.558 121h1.728l-3.569-4.523 3.523-4.204h-1.727l-3.137 3.795h-.886v-3.795h-1.34V121zm7.821 0h.455c1.932 0 2.488-1.5 2.613-4.364l.137-3.113h3.204V121h1.341v-8.727h-5.818l-.159 3.863c-.114 2.932-.409 3.614-1.455 3.614h-.318V121zm10.915-8.727h-1.341V121h1.341v-3.659h2.239c.238 2.335 1.755 3.841 3.92 3.841 2.364 0 3.955-1.796 3.955-4.5 0-2.727-1.591-4.523-3.955-4.523-2.187 0-3.716 1.54-3.926 3.932h-2.233v-3.818zm6.159 7.704c-1.795 0-2.614-1.545-2.614-3.295s.819-3.318 2.614-3.318 2.614 1.568 2.614 3.318-.819 3.295-2.614 3.295zm12.864-7.704h-1.341v4.426a7.378 7.378 0 01-2.114.301c-1.091 0-1.932-.614-1.932-1.955v-2.795h-1.341v2.795c0 2.137 1.296 3.205 3.273 3.205.824 0 1.483-.108 2.114-.295V121h1.341v-8.727zm6.005 8.909c2.364 0 3.955-1.796 3.955-4.5 0-2.727-1.591-4.523-3.955-4.523-2.363 0-3.954 1.796-3.954 4.523 0 2.704 1.591 4.5 3.954 4.5zm0-1.205c-1.795 0-2.613-1.545-2.613-3.295s.818-3.318 2.613-3.318c1.796 0 2.614 1.568 2.614 3.318s-.818 3.295-2.614 3.295zm10.775-.795l-3-6.909h-1.773V121h1.341v-6.801l2.886 6.801h1.091l2.886-6.676V121h1.341v-8.727h-1.727l-3.045 6.909zM159.597 121h1.409v-3.773l1.454-1.636 4.046 5.409h1.704l-4.886-6.386 4.886-5.25h-1.841l-5.227 5.772h-.136v-5.772h-1.409V121zm17.642-7.591c1.363.011 2.176 1.261 2.352 2.568h-3.239v1.25h3.25c-.142 1.33-.983 2.671-2.363 2.682-1.023-.011-1.978-.898-1.978-1.886h-1.318c0 1.738 1.387 3.136 3.296 3.136 2.386 0 3.727-2.028 3.727-4.341v-.318c0-2.312-1.341-4.341-3.727-4.341-1.705 0-3.296 1.398-3.296 2.909h1.318c0-.903 1.069-1.648 1.978-1.659zm4.997 7.591h.454c1.932 0 2.489-1.5 2.614-4.364l.136-3.113h3.205V121h1.341v-8.727h-5.818l-.159 3.863c-.114 2.932-.41 3.614-1.455 3.614h-.318V121zm13.869.182c1.773 0 3.068-.887 3.477-2.205l-1.295-.363c-.341.909-1.131 1.363-2.182 1.363-1.574 0-2.659-1.017-2.721-2.886h6.335v-.568c0-3.25-1.932-4.364-3.75-4.364-2.364 0-3.932 1.864-3.932 4.546 0 2.681 1.545 4.477 4.068 4.477zm-2.721-5.25c.09-1.358 1.051-2.568 2.585-2.568 1.454 0 2.386 1.091 2.386 2.568h-4.971zm13.147 3.25l-3-6.909h-1.772V121h1.34v-6.801l2.887 6.801h1.091l2.886-6.676V121h1.341v-8.727h-1.727l-3.046 6.909zm10.887 2c1.772 0 3.068-.887 3.477-2.205l-1.296-.363c-.34.909-1.13 1.363-2.181 1.363-1.574 0-2.659-1.017-2.722-2.886h6.335v-.568c0-3.25-1.932-4.364-3.75-4.364-2.363 0-3.932 1.864-3.932 4.546 0 2.681 1.546 4.477 4.069 4.477zm-2.722-5.25c.091-1.358 1.051-2.568 2.585-2.568 1.455 0 2.387 1.091 2.387 2.568h-4.972zm9.716-3.659h-1.341V121h1.341v-3.727h4.182V121h1.341v-8.727h-1.341v3.75h-4.182v-3.75zm6.784 1.25h2.886V121h1.341v-7.477h2.864v-1.25h-7.091v1.25zm12.139 7.659c2.364 0 3.955-1.796 3.955-4.5 0-2.727-1.591-4.523-3.955-4.523-2.363 0-3.954 1.796-3.954 4.523 0 2.704 1.591 4.5 3.954 4.5zm0-1.205c-1.795 0-2.613-1.545-2.613-3.295s.818-3.318 2.613-3.318c1.796 0 2.614 1.568 2.614 3.318s-.818 3.295-2.614 3.295zm10.774-.795l-3-6.909h-1.772V121h1.341v-6.801l2.886 6.801h1.091l2.886-6.676V121h1.341v-8.727h-1.727l-3.046 6.909zM5.295 142.5h1.341V140h6.455v2.5h1.34v-3.75h-1.34v-7.477H7.545l-.295 3.454c-.21 2.443-.523 3.284-1.227 4.023h-.728v3.75zm2.25-3.75c.614-.807.836-2.199 1.023-4.023l.227-2.204h2.955v6.227H7.545zm12.326 1.432c1.773 0 3.068-.887 3.477-2.205l-1.295-.363c-.341.909-1.131 1.363-2.182 1.363-1.574 0-2.66-1.017-2.722-2.886h6.335v-.568c0-3.25-1.931-4.364-3.75-4.364-2.363 0-3.931 1.864-3.931 4.546 0 2.681 1.545 4.477 4.068 4.477zm-2.722-5.25c.091-1.358 1.051-2.568 2.585-2.568 1.455 0 2.387 1.091 2.387 2.568h-4.972zm8.375 8.341h1.341v-4.614h.114c.295.477.863 1.523 2.545 1.523 2.182 0 3.705-1.75 3.705-4.523 0-2.75-1.523-4.5-3.728-4.5-1.704 0-2.227 1.046-2.522 1.5h-.16v-1.386h-1.295v12zm1.318-7.637c0-1.954.864-3.272 2.5-3.272 1.705 0 2.546 1.431 2.546 3.272 0 1.864-.864 3.341-2.546 3.341-1.613 0-2.5-1.363-2.5-3.341zm12.091 4.546c1.773 0 3.068-.887 3.477-2.205l-1.295-.363c-.34.909-1.13 1.363-2.182 1.363-1.574 0-2.659-1.017-2.721-2.886h6.335v-.568c0-3.25-1.932-4.364-3.75-4.364-2.364 0-3.932 1.864-3.932 4.546 0 2.681 1.545 4.477 4.068 4.477zm-2.721-5.25c.09-1.358 1.05-2.568 2.585-2.568 1.454 0 2.386 1.091 2.386 2.568h-4.971zM44.587 140H48.7c1.773 0 2.841-1 2.841-2.341 0-1.369-1.04-2.108-2-2.25.983-.204 1.682-.756 1.682-1.818 0-1.392-1.193-2.318-3.068-2.318h-3.568V140zm1.272-1.227v-2.682H48.7c.92 0 1.478.551 1.478 1.454 0 .762-.557 1.228-1.478 1.228h-2.84zm0-3.841V132.5h2.296c1.074 0 1.727.449 1.727 1.182 0 .778-.653 1.25-1.727 1.25h-2.296zm10.28 5.273c1.523 0 2.318-.819 2.591-1.387h.068V140h1.341v-5.75c0-2.773-2.113-3.091-3.227-3.091-1.318 0-2.818.455-3.5 2.046l1.273.454c.295-.636.994-1.318 2.272-1.318 1.233 0 1.841.653 1.841 1.773v.045c0 .648-.659.591-2.25.796-1.619.21-3.386.568-3.386 2.568 0 1.704 1.318 2.682 2.977 2.682zm.205-1.205c-1.068 0-1.841-.477-1.841-1.409 0-1.023.932-1.341 1.977-1.477.568-.069 2.091-.228 2.318-.5v1.227c0 1.091-.863 2.159-2.454 2.159zm10.288-9.386h3.66V140H71.7v-10.386h3.66v-1.25h-8.728v1.25zm11.15 10.477c.563 0 1.023-.46 1.023-1.023 0-.562-.46-1.023-1.022-1.023-.563 0-1.023.461-1.023 1.023 0 .563.46 1.023 1.023 1.023zM6.887 159l1.17-3.295h4.705l1.17 3.295h1.478l-4.273-11.636H9.682L5.409 159h1.477zm1.614-4.545l1.864-5.25h.09l1.864 5.25H8.5zM16.267 159h.455c1.931 0 2.488-1.5 2.613-4.364l.137-3.113h3.204V159h1.341v-8.727h-5.818l-.16 3.863c-.113 2.932-.408 3.614-1.454 3.614h-.318V159zm15.597-8.727h-5.387V159h1.341v-7.477h4.046v-1.25zm5.05 8.909c2.363 0 3.954-1.796 3.954-4.5 0-2.727-1.591-4.523-3.955-4.523-2.363 0-3.954 1.796-3.954 4.523 0 2.704 1.59 4.5 3.954 4.5zm0-1.205c-1.796 0-2.614-1.545-2.614-3.295s.818-3.318 2.613-3.318c1.796 0 2.614 1.568 2.614 3.318s-.818 3.295-2.614 3.295zm6 4.296h1.342v-4.614h.113c.296.477.864 1.523 2.546 1.523 2.182 0 3.704-1.75 3.704-4.523 0-2.75-1.522-4.5-3.727-4.5-1.705 0-2.227 1.046-2.523 1.5h-.159v-1.386h-1.295v12zm1.319-7.637c0-1.954.864-3.272 2.5-3.272 1.705 0 2.545 1.431 2.545 3.272 0 1.864-.863 3.341-2.545 3.341-1.614 0-2.5-1.363-2.5-3.341zm9.773 2.387v-6.75h-1.341V159h1.568l4.182-6.75V159h1.34v-8.727H58.21l-4.204 6.75zm7.018-5.5h2.886V159h1.341v-7.477h2.864v-1.25h-7.09v1.25zm13.82 5.659l-3-6.909H70.07V159h1.34v-6.801L74.299 159h1.091l2.887-6.676V159h1.34v-8.727H77.89l-3.045 6.909zm8.204 1.909c.563 0 1.023-.46 1.023-1.023 0-.562-.46-1.023-1.023-1.023-.562 0-1.022.461-1.022 1.023 0 .563.46 1.023 1.022 1.023zm0-6.477c.563 0 1.023-.461 1.023-1.023 0-.563-.46-1.023-1.023-1.023-.562 0-1.022.46-1.022 1.023 0 .562.46 1.023 1.022 1.023zM9.5 174.682a2.5 2.5 0 100-5 2.5 2.5 0 000 5zM19.91 178h7.113v-1.25h-5.705v-3.955h5.25v-1.25h-5.25v-3.931h5.614v-1.25h-7.023V178zm12.925.182c1.932 0 3.205-1.182 3.432-2.727h-1.34c-.25.954-1.046 1.522-2.092 1.522-1.59 0-2.613-1.318-2.613-3.341 0-1.977 1.045-3.272 2.613-3.272 1.182 0 1.887.727 2.091 1.522h1.341c-.227-1.636-1.614-2.727-3.455-2.727-2.363 0-3.931 1.864-3.931 4.523 0 2.613 1.5 4.5 3.954 4.5zm4.62-.182h.454c1.932 0 2.489-1.5 2.614-4.364l.136-3.113h3.205V178h1.34v-8.727h-5.818l-.159 3.863c-.113 2.932-.409 3.614-1.454 3.614h-.319V178zm11.55-1.977v-6.75h-1.34V178h1.568l4.182-6.75V178h1.34v-8.727H53.21l-4.204 6.75zM60.78 180.5h1.34V178h6.455v2.5h1.341v-3.75h-1.34v-7.477H63.03l-.296 3.454c-.21 2.443-.522 3.284-1.227 4.023h-.727v3.75zm2.25-3.75c.614-.807.835-2.199 1.023-4.023l.227-2.204h2.954v6.227H63.03zm12.325 1.432c1.773 0 3.068-.887 3.477-2.205l-1.295-.363c-.341.909-1.13 1.363-2.182 1.363-1.574 0-2.659-1.017-2.722-2.886h6.336v-.568c0-3.25-1.932-4.364-3.75-4.364-2.364 0-3.932 1.864-3.932 4.546 0 2.681 1.545 4.477 4.068 4.477zm-2.722-5.25c.091-1.358 1.052-2.568 2.586-2.568 1.454 0 2.386 1.091 2.386 2.568h-4.972zm8.376 8.341h1.34v-4.614h.114c.296.477.864 1.523 2.546 1.523 2.181 0 3.704-1.75 3.704-4.523 0-2.75-1.523-4.5-3.727-4.5-1.705 0-2.228 1.046-2.523 1.5h-.159v-1.386h-1.296v12zm1.318-7.637c0-1.954.863-3.272 2.5-3.272 1.704 0 2.545 1.431 2.545 3.272 0 1.864-.864 3.341-2.545 3.341-1.614 0-2.5-1.363-2.5-3.341zm12.09 4.546c1.773 0 3.069-.887 3.478-2.205l-1.296-.363c-.34.909-1.13 1.363-2.181 1.363-1.574 0-2.66-1.017-2.722-2.886h6.335v-.568c0-3.25-1.932-4.364-3.75-4.364-2.363 0-3.932 1.864-3.932 4.546 0 2.681 1.546 4.477 4.069 4.477zm-2.721-5.25c.09-1.358 1.051-2.568 2.585-2.568 1.455 0 2.387 1.091 2.387 2.568h-4.972zm8.375 5.068h4.114c1.772 0 2.841-1 2.841-2.341 0-1.369-1.04-2.108-2-2.25.983-.204 1.681-.756 1.681-1.818 0-1.392-1.193-2.318-3.068-2.318h-3.568V178zm1.273-1.227v-2.682h2.841c.92 0 1.477.551 1.477 1.454 0 .762-.557 1.228-1.477 1.228h-2.841zm0-3.841V170.5h2.295c1.074 0 1.727.449 1.727 1.182 0 .778-.653 1.25-1.727 1.25h-2.295zm11.257 5.25c2.363 0 3.954-1.796 3.954-4.5 0-2.727-1.591-4.523-3.954-4.523-2.364 0-3.955 1.796-3.955 4.523 0 2.704 1.591 4.5 3.955 4.5zm0-1.205c-1.796 0-2.614-1.545-2.614-3.295s.818-3.318 2.614-3.318c1.795 0 2.613 1.568 2.613 3.318s-.818 3.295-2.613 3.295zM123.102 178h1.341v-7.477h4.182V178h1.341v-8.727h-6.864V178zm9.864 3.25c1.21 0 2.068-.642 2.568-1.977l3.716-9.978-1.466-.022-2.409 6.954h-.091l-2.409-6.954h-1.455l3.228 8.772-.25.682c-.478 1.307-1.091 1.432-2.068 1.182l-.341 1.182c.136.068.522.159.977.159zm11.291-3.068c1.932 0 3.205-1.182 3.432-2.727h-1.341c-.25.954-1.045 1.522-2.091 1.522-1.591 0-2.614-1.318-2.614-3.341 0-1.977 1.046-3.272 2.614-3.272 1.182 0 1.886.727 2.091 1.522h1.341c-.227-1.636-1.614-2.727-3.455-2.727-2.363 0-3.931 1.864-3.931 4.523 0 2.613 1.5 4.5 3.954 4.5zm4.705-7.659h2.886V178h1.341v-7.477h2.864v-1.25h-7.091v1.25zm12.139 7.659c2.363 0 3.954-1.796 3.954-4.5 0-2.727-1.591-4.523-3.954-4.523-2.364 0-3.955 1.796-3.955 4.523 0 2.704 1.591 4.5 3.955 4.5zm0-1.205c-1.796 0-2.614-1.545-2.614-3.295s.818-3.318 2.614-3.318c1.795 0 2.613 1.568 2.613 3.318s-.818 3.295-2.613 3.295zm8.001-.568h-1.454l-.068.636c-.165 1.54-.489 3.074-.637 3.796h1.023c.273-.773.852-2.523 1.045-3.818l.091-.614zm10.53 1.773c1.932 0 3.205-1.182 3.432-2.727h-1.341c-.25.954-1.045 1.522-2.091 1.522-1.591 0-2.614-1.318-2.614-3.341 0-1.977 1.046-3.272 2.614-3.272 1.182 0 1.886.727 2.091 1.522h1.341c-.227-1.636-1.614-2.727-3.455-2.727-2.363 0-3.931 1.864-3.931 4.523 0 2.613 1.5 4.5 3.954 4.5zm8.938 0c2.363 0 3.954-1.796 3.954-4.5 0-2.727-1.591-4.523-3.954-4.523-2.364 0-3.955 1.796-3.955 4.523 0 2.704 1.591 4.5 3.955 4.5zm0-1.205c-1.796 0-2.614-1.545-2.614-3.295s.818-3.318 2.614-3.318c1.795 0 2.613 1.568 2.613 3.318s-.818 3.295-2.613 3.295zm9.546 1.205c2.364 0 3.955-1.796 3.955-4.5 0-2.727-1.591-4.523-3.955-4.523-2.363 0-3.954 1.796-3.954 4.523 0 2.704 1.591 4.5 3.954 4.5zm0-1.205c-1.795 0-2.613-1.545-2.613-3.295s.818-3.318 2.613-3.318c1.796 0 2.614 1.568 2.614 3.318s-.818 3.295-2.614 3.295zM210.595 166c-.426.358-1.062.358-1.954.352-.29 0-.608 0-.955.012-2.659.068-3.977 2.091-3.977 5.977v.932c0 3.227 1.568 4.909 3.909 4.909 2.335 0 3.886-1.693 3.886-4.432 0-2.75-1.574-4.205-3.613-4.205-1.199 0-2.319.5-2.909 1.591h-.114c.182-2.25 1.023-3.454 2.841-3.522 1.613-.069 2.773-.023 3.568-.796l-.682-.818zm-2.977 10.977c-1.591 0-2.568-1.272-2.568-3.227.028-1.909.988-3 2.545-3 1.597 0 2.568 1.091 2.568 3 0 1.966-.966 3.227-2.545 3.227zm17.846-.227h-1.295v-7.477h-1.341v7.477h-3.295v-7.477h-1.341v7.477h-3.296v-7.477h-1.341V178h10.364v2.5h1.386l.159-3.75zm3.292-.727v-6.75h-1.341V178h1.568l4.182-6.75V178h1.341v-8.727h-1.546l-4.204 6.75zm7.018-5.5h2.887V178h1.34v-7.477h2.864v-1.25h-7.091v1.25zm10.388 1.909v-3.159h-1.341V178h3.659c2.046 0 3.159-1.25 3.159-2.818 0-1.591-1.113-2.75-3.159-2.75h-2.318zm0 1.25h2.318c1.063 0 1.818.648 1.818 1.568 0 .881-.755 1.5-1.818 1.5h-2.318v-3.068zm9.518 2.727h-1.454l-.068.636c-.165 1.54-.489 3.074-.637 3.796h1.023c.273-.773.852-2.523 1.045-3.818l.091-.614zm13.712-7.136h-1.341v4.426a7.37 7.37 0 01-2.113.301c-1.091 0-1.932-.614-1.932-1.955v-2.795h-1.341v2.795c0 2.137 1.295 3.205 3.273 3.205.823 0 1.482-.108 2.113-.295V178h1.341v-8.727zm1.273 1.25h2.886V178h1.341v-7.477h2.864v-1.25h-7.091v1.25zm12.139 7.659c2.364 0 3.955-1.796 3.955-4.5 0-2.727-1.591-4.523-3.955-4.523s-3.955 1.796-3.955 4.523c0 2.704 1.591 4.5 3.955 4.5zm0-1.205c-1.795 0-2.614-1.545-2.614-3.295s.819-3.318 2.614-3.318 2.614 1.568 2.614 3.318-.819 3.295-2.614 3.295zM7.091 200.25c1.21 0 2.068-.642 2.568-1.977l3.716-9.978-1.466-.022-2.409 6.954h-.09L7 188.273H5.545l3.228 8.772-.25.682c-.478 1.307-1.091 1.432-2.068 1.182l-.341 1.182c.136.068.522.159.977.159zm7.513-5.477c.045 1.432 1.415 2.409 3.272 2.409 1.91 0 3.296-1.023 3.296-2.614 0-1.091-.654-1.977-1.637-2.045v-.091c.83-.256 1.455-.858 1.455-1.841 0-1.381-1.182-2.432-3.023-2.432-1.818 0-3.113 1-3.159 2.409h1.41c.04-.721.795-1.227 1.817-1.227 1.018 0 1.591.517 1.591 1.295 0 .728-.5 1.273-1.568 1.273h-1.5v1.205h1.5c1.068 0 1.75.585 1.75 1.454 0 .994-.88 1.409-1.954 1.409-1.051 0-1.756-.415-1.819-1.204h-1.431zm12.11 2.409c1.773 0 3.069-.887 3.478-2.205l-1.296-.363c-.34.909-1.13 1.363-2.181 1.363-1.574 0-2.66-1.017-2.722-2.886h6.335v-.568c0-3.25-1.932-4.364-3.75-4.364-2.363 0-3.932 1.864-3.932 4.546 0 2.681 1.546 4.477 4.069 4.477zm-2.721-5.25c.09-1.358 1.051-2.568 2.585-2.568 1.455 0 2.387 1.091 2.387 2.568h-4.972zM31.595 197h.455c1.931 0 2.488-1.5 2.613-4.364l.137-3.113h3.204V197h1.341v-8.727h-5.818l-.16 3.863c-.113 2.932-.408 3.614-1.454 3.614h-.318V197zm16.051-8.727h-1.34V197h1.34v-3.727h4.182V197h1.341v-8.727h-1.34v3.75h-4.183v-3.75zm11.631 8.909c1.773 0 3.068-.887 3.477-2.205l-1.295-.363c-.341.909-1.13 1.363-2.182 1.363-1.574 0-2.66-1.017-2.722-2.886h6.336v-.568c0-3.25-1.932-4.364-3.75-4.364-2.364 0-3.932 1.864-3.932 4.546 0 2.681 1.545 4.477 4.068 4.477zm-2.722-5.25c.091-1.358 1.051-2.568 2.586-2.568 1.454 0 2.386 1.091 2.386 2.568h-4.972zm14.216-3.659h-1.34V197h1.34v-3.727h4.182V197h1.341v-8.727h-1.34v3.75H70.77v-3.75zm10.54 8.932c1.523 0 2.318-.819 2.591-1.387h.068V197h1.341v-5.75c0-2.773-2.114-3.091-3.227-3.091-1.318 0-2.818.455-3.5 2.046l1.272.454c.296-.636.995-1.318 2.273-1.318 1.233 0 1.841.653 1.841 1.773v.045c0 .648-.659.591-2.25.796-1.62.21-3.386.568-3.386 2.568 0 1.704 1.318 2.682 2.977 2.682zm.205-1.205c-1.069 0-1.841-.477-1.841-1.409 0-1.023.931-1.341 1.977-1.477.568-.069 2.09-.228 2.318-.5v1.227c0 1.091-.864 2.159-2.454 2.159zm7.583-.977v-6.75h-1.34V197h1.568l4.181-6.75V197h1.341v-8.727h-1.545l-4.205 6.75zm3.319-9.659c0 .591-.319 1.113-1.114 1.113-.796 0-1.09-.522-1.09-1.113h-1.25c0 1.227.908 2.091 2.34 2.091 1.454 0 2.364-.864 2.364-2.091h-1.25zm3.956 14.136h1.34V197h6.455v2.5h1.341v-3.75h-1.341v-7.477h-5.545l-.296 3.454c-.21 2.443-.523 3.284-1.227 4.023h-.727v3.75zm2.25-3.75c.613-.807.835-2.199 1.022-4.023l.228-2.204h2.954v6.227h-4.204zm12.325 1.432c1.773 0 3.068-.887 3.477-2.205l-1.295-.363c-.341.909-1.131 1.363-2.182 1.363-1.574 0-2.659-1.017-2.722-2.886h6.335v-.568c0-3.25-1.931-4.364-3.75-4.364-2.363 0-3.931 1.864-3.931 4.546 0 2.681 1.545 4.477 4.068 4.477zm-2.722-5.25c.091-1.358 1.051-2.568 2.585-2.568 1.455 0 2.387 1.091 2.387 2.568h-4.972zm9.716-3.659h-1.341V197h1.341v-3.727h4.182V197h1.341v-8.727h-1.341v3.75h-4.182v-3.75zm9.972 7.136h-1.455l-.068.636c-.165 1.54-.489 3.074-.636 3.796h1.022c.273-.773.853-2.523 1.046-3.818l.091-.614zm8.325-.386v-6.75h-1.341V197h1.568l4.182-6.75V197h1.341v-8.727h-1.545l-4.205 6.75zm16.251 2.159c2.364 0 3.955-1.796 3.955-4.5 0-2.727-1.591-4.523-3.955-4.523-2.363 0-3.954 1.796-3.954 4.523 0 2.704 1.591 4.5 3.954 4.5zm0-1.205c-1.795 0-2.613-1.545-2.613-3.295s.818-3.318 2.613-3.318c1.796 0 2.614 1.568 2.614 3.318s-.818 3.295-2.614 3.295zm9.547 1.205c1.932 0 3.205-1.182 3.432-2.727h-1.341c-.25.954-1.045 1.522-2.091 1.522-1.591 0-2.613-1.318-2.613-3.341 0-1.977 1.045-3.272 2.613-3.272 1.182 0 1.887.727 2.091 1.522h1.341c-.227-1.636-1.613-2.727-3.454-2.727-2.364 0-3.932 1.864-3.932 4.523 0 2.613 1.5 4.5 3.954 4.5zm4.705-7.659h2.886V197h1.341v-7.477h2.864v-1.25h-7.091v1.25zm11.162 7.682c1.523 0 2.318-.819 2.591-1.387h.068V197h1.341v-5.75c0-2.773-2.114-3.091-3.227-3.091-1.319 0-2.819.455-3.5 2.046l1.272.454c.296-.636.995-1.318 2.273-1.318 1.233 0 1.841.653 1.841 1.773v.045c0 .648-.659.591-2.25.796-1.619.21-3.386.568-3.386 2.568 0 1.704 1.318 2.682 2.977 2.682zm.204-1.205c-1.068 0-1.841-.477-1.841-1.409 0-1.023.932-1.341 1.978-1.477.568-.069 2.091-.228 2.318-.5v1.227c0 1.091-.864 2.159-2.455 2.159zm7.584-7.727h-1.341V197h1.341v-3.727h4.182V197h1.341v-8.727h-1.341v3.75h-4.182v-3.75zm11.517 8.909c2.364 0 3.955-1.796 3.955-4.5 0-2.727-1.591-4.523-3.955-4.523-2.363 0-3.954 1.796-3.954 4.523 0 2.704 1.591 4.5 3.954 4.5zm0-1.205c-1.795 0-2.613-1.545-2.613-3.295s.818-3.318 2.613-3.318c1.796 0 2.614 1.568 2.614 3.318s-.818 3.295-2.614 3.295zm6.002 1.023h4.113c1.773 0 2.841-1 2.841-2.341 0-1.369-1.04-2.108-2-2.25.983-.204 1.682-.756 1.682-1.818 0-1.392-1.193-2.318-3.068-2.318h-3.568V197zm1.272-1.227v-2.682h2.841c.921 0 1.478.551 1.478 1.454 0 .762-.557 1.228-1.478 1.228h-2.841zm0-3.841V189.5h2.296c1.074 0 1.727.449 1.727 1.182 0 .778-.653 1.25-1.727 1.25h-2.296zm9.053 3.091v-6.75h-1.341V197h1.568l4.182-6.75V197h1.341v-8.727h-1.546l-4.204 6.75zm7.018-5.5h2.887V197h1.341v-7.477h2.863v-1.25h-7.091v1.25zm10.388 1.909v-3.159h-1.341V197h3.659c2.046 0 3.159-1.25 3.159-2.818 0-1.591-1.113-2.75-3.159-2.75h-2.318zm0 1.25h2.318c1.063 0 1.819.648 1.819 1.568 0 .881-.756 1.5-1.819 1.5h-2.318v-3.068zm11.064 4.5c1.932 0 3.205-1.182 3.432-2.727h-1.341c-.25.954-1.045 1.522-2.091 1.522-1.591 0-2.614-1.318-2.614-3.341 0-1.977 1.046-3.272 2.614-3.272 1.182 0 1.886.727 2.091 1.522h1.341c-.227-1.636-1.614-2.727-3.455-2.727-2.363 0-3.931 1.864-3.931 4.523 0 2.613 1.5 4.5 3.954 4.5zm10.642-.182h1.273v-8.727h-3.591c-1.881 0-3.023.983-3.023 2.591 0 1.198.603 2.051 1.654 2.409L246.831 197h1.455l2.022-3.545h2.341V197zm0-4.795h-2.477c-.949 0-1.523-.506-1.523-1.341 0-.847.637-1.364 1.682-1.364h2.318v2.705zm4.712 4.886c.562 0 1.023-.46 1.023-1.023 0-.562-.461-1.023-1.023-1.023-.563 0-1.023.461-1.023 1.023 0 .563.46 1.023 1.023 1.023zM9.5 212.682a2.5 2.5 0 100-5 2.5 2.5 0 000 5zm10.41-8.318V216h1.363l6.34-9.136h.114V216h1.41v-11.636h-1.364l-6.364 9.159h-.113v-9.159h-1.387zm13.205 2.909h-1.34V216h1.34v-3.727h4.182V216h1.34v-8.727h-1.34v3.75h-4.182v-3.75zm10.54 8.932c1.523 0 2.318-.819 2.59-1.387h.069V216h1.34v-5.75c0-2.773-2.113-3.091-3.226-3.091-1.319 0-2.819.455-3.5 2.046l1.272.454c.296-.636.995-1.318 2.273-1.318 1.233 0 1.84.653 1.84 1.773v.045c0 .648-.658.591-2.25.796-1.618.21-3.385.568-3.385 2.568 0 1.704 1.318 2.682 2.977 2.682zm.204-1.205c-1.068 0-1.84-.477-1.84-1.409 0-1.023.931-1.341 1.977-1.477.568-.069 2.09-.228 2.318-.5v1.227c0 1.091-.864 2.159-2.455 2.159zm12.97-7.727h-1.34v4.426a7.373 7.373 0 01-2.114.301c-1.09 0-1.932-.614-1.932-1.955v-2.795h-1.34v2.795c0 2.137 1.295 3.205 3.272 3.205a7.18 7.18 0 002.114-.295V216h1.34v-8.727zm6.12 8.909c1.773 0 3.068-.887 3.477-2.205l-1.295-.363c-.341.909-1.131 1.363-2.182 1.363-1.574 0-2.66-1.017-2.722-2.886h6.336v-.568c0-3.25-1.932-4.364-3.75-4.364-2.364 0-3.932 1.864-3.932 4.546 0 2.681 1.545 4.477 4.068 4.477zm-2.722-5.25c.091-1.358 1.051-2.568 2.586-2.568 1.454 0 2.386 1.091 2.386 2.568h-4.972zm16.42 5.25c1.932 0 3.205-1.182 3.432-2.727h-1.34c-.25.954-1.046 1.522-2.091 1.522-1.591 0-2.614-1.318-2.614-3.341 0-1.977 1.045-3.272 2.614-3.272 1.181 0 1.886.727 2.09 1.522h1.341c-.227-1.636-1.613-2.727-3.454-2.727-2.364 0-3.932 1.864-3.932 4.523 0 2.613 1.5 4.5 3.955 4.5zm5.393 3.091h1.34v-4.614h.114c.296.477.864 1.523 2.546 1.523 2.182 0 3.704-1.75 3.704-4.523 0-2.75-1.522-4.5-3.727-4.5-1.704 0-2.227 1.046-2.523 1.5h-.159v-1.386H82.04v12zm1.318-7.637c0-1.954.864-3.272 2.5-3.272 1.704 0 2.545 1.431 2.545 3.272 0 1.864-.863 3.341-2.545 3.341-1.614 0-2.5-1.363-2.5-3.341zm11 4.569c1.523 0 2.318-.819 2.59-1.387h.069V216h1.341v-5.75c0-2.773-2.114-3.091-3.227-3.091-1.319 0-2.819.455-3.5 2.046l1.272.454c.296-.636.995-1.318 2.273-1.318 1.233 0 1.841.653 1.841 1.773v.045c0 .648-.659.591-2.25.796-1.62.21-3.386.568-3.386 2.568 0 1.704 1.318 2.682 2.977 2.682zm.204-1.205c-1.068 0-1.84-.477-1.84-1.409 0-1.023.931-1.341 1.977-1.477.568-.069 2.09-.228 2.318-.5v1.227c0 1.091-.864 2.159-2.454 2.159zm6.243 1h4.114c1.773 0 2.841-1 2.841-2.341 0-1.369-1.04-2.108-2-2.25.983-.204 1.682-.756 1.682-1.818 0-1.392-1.193-2.318-3.068-2.318h-3.569V216zm1.273-1.227v-2.682h2.841c.92 0 1.477.551 1.477 1.454 0 .762-.557 1.228-1.477 1.228h-2.841zm0-3.841V208.5h2.296c1.073 0 1.727.449 1.727 1.182 0 .778-.654 1.25-1.727 1.25h-2.296zm9.053-3.659h-1.341V216h1.341v-3.727h4.181V216h1.341v-8.727h-1.341v3.75h-4.181v-3.75zm9.312 6.75v-6.75h-1.341V216h1.568l4.182-6.75V216h1.341v-8.727h-1.545l-4.205 6.75zm7.019-5.5h2.886V216h1.341v-7.477h2.864v-1.25h-7.091v1.25zm10.387 1.909v-3.159h-1.34V216h3.659c2.045 0 3.159-1.25 3.159-2.818 0-1.591-1.114-2.75-3.159-2.75h-2.319zm0 1.25h2.319c1.062 0 1.818.648 1.818 1.568 0 .881-.756 1.5-1.818 1.5h-2.319v-3.068zM150.05 216h1.409v-3.773l1.454-1.636 4.046 5.409h1.704l-4.886-6.386 4.886-5.25h-1.841l-5.227 5.772h-.136v-5.772h-1.409V216zm18.301.182c1.932 0 3.204-1.182 3.432-2.727h-1.341c-.25.954-1.046 1.522-2.091 1.522-1.591 0-2.614-1.318-2.614-3.341 0-1.977 1.046-3.272 2.614-3.272 1.182 0 1.886.727 2.091 1.522h1.341c-.228-1.636-1.614-2.727-3.455-2.727-2.364 0-3.932 1.864-3.932 4.523 0 2.613 1.5 4.5 3.955 4.5zm9.892-.182h1.341v-3.682h1.204l2.864 3.682h1.727l-3.568-4.523 3.523-4.204h-1.727l-3.137 3.795h-.886v-3.795h-1.341V216zm7.821 0h.454c1.932 0 2.489-1.5 2.614-4.364l.136-3.113h3.205V216h1.341v-8.727h-5.818l-.159 3.863c-.114 2.932-.409 3.614-1.455 3.614h-.318V216zm10.915-8.727h-1.341V216h1.341v-3.659h2.238c.239 2.335 1.756 3.841 3.921 3.841 2.363 0 3.954-1.796 3.954-4.5 0-2.727-1.591-4.523-3.954-4.523-2.188 0-3.716 1.54-3.926 3.932h-2.233v-3.818zm6.159 7.704c-1.796 0-2.614-1.545-2.614-3.295s.818-3.318 2.614-3.318c1.795 0 2.613 1.568 2.613 3.318s-.818 3.295-2.613 3.295zm12.863-7.704h-1.34v4.426a7.378 7.378 0 01-2.114.301c-1.091 0-1.932-.614-1.932-1.955v-2.795h-1.341v2.795c0 2.137 1.296 3.205 3.273 3.205.824 0 1.483-.108 2.114-.295V216h1.34v-8.727zm6.006 8.909c2.364 0 3.955-1.796 3.955-4.5 0-2.727-1.591-4.523-3.955-4.523s-3.954 1.796-3.954 4.523c0 2.704 1.59 4.5 3.954 4.5zm0-1.205c-1.795 0-2.614-1.545-2.614-3.295s.819-3.318 2.614-3.318c1.796 0 2.614 1.568 2.614 3.318s-.818 3.295-2.614 3.295zm10.774-.795l-3-6.909h-1.772V216h1.34v-6.801l2.887 6.801h1.091l2.886-6.676V216h1.341v-8.727h-1.727l-3.046 6.909zM6.227 235h1.341v-3.682h1.205L11.636 235h1.728l-3.569-4.523 3.523-4.204h-1.727l-3.136 3.795h-.887v-3.795h-1.34V235zm11.78.182c2.364 0 3.955-1.796 3.955-4.5 0-2.727-1.591-4.523-3.955-4.523s-3.954 1.796-3.954 4.523c0 2.704 1.59 4.5 3.954 4.5zm0-1.205c-1.795 0-2.614-1.545-2.614-3.295s.819-3.318 2.614-3.318c1.796 0 2.614 1.568 2.614 3.318s-.818 3.295-2.614 3.295zm6.002 4.296h1.34v-4.614h.114c.296.477.864 1.523 2.546 1.523 2.181 0 3.704-1.75 3.704-4.523 0-2.75-1.523-4.5-3.727-4.5-1.705 0-2.227 1.046-2.523 1.5h-.159v-1.386h-1.295v12zm1.318-7.637c0-1.954.863-3.272 2.5-3.272 1.704 0 2.545 1.431 2.545 3.272 0 1.864-.863 3.341-2.545 3.341-1.614 0-2.5-1.363-2.5-3.341zm9.772-4.363h-1.34V235h1.34v-3.727h4.182V235h1.341v-8.727h-1.34v3.75h-4.183v-3.75zm11.631 8.909c1.773 0 3.068-.887 3.477-2.205l-1.295-.363c-.341.909-1.13 1.363-2.182 1.363-1.574 0-2.659-1.017-2.721-2.886h6.335v-.568c0-3.25-1.932-4.364-3.75-4.364-2.364 0-3.932 1.864-3.932 4.546 0 2.681 1.545 4.477 4.068 4.477zm-2.721-5.25c.09-1.358 1.05-2.568 2.585-2.568 1.454 0 2.386 1.091 2.386 2.568h-4.97zM52.383 235h4.114c1.773 0 2.841-1 2.841-2.341 0-1.369-1.04-2.108-2-2.25.983-.204 1.682-.756 1.682-1.818 0-1.392-1.193-2.318-3.068-2.318h-3.569V235zm1.273-1.227v-2.682h2.841c.92 0 1.477.551 1.477 1.454 0 .762-.556 1.228-1.477 1.228h-2.84zm0-3.841V227.5h2.296c1.074 0 1.727.449 1.727 1.182 0 .778-.653 1.25-1.727 1.25h-2.296zm11.257 5.25c2.364 0 3.955-1.796 3.955-4.5 0-2.727-1.591-4.523-3.955-4.523-2.363 0-3.954 1.796-3.954 4.523 0 2.704 1.59 4.5 3.954 4.5zm0-1.205c-1.795 0-2.613-1.545-2.613-3.295s.818-3.318 2.613-3.318c1.796 0 2.614 1.568 2.614 3.318s-.818 3.295-2.614 3.295zm7.343-.954v-6.75h-1.341V235h1.568l4.182-6.75V235h1.34v-8.727H76.46l-4.204 6.75zm3.318-9.659c0 .591-.318 1.113-1.114 1.113-.795 0-1.09-.522-1.09-1.113h-1.25c0 1.227.908 2.091 2.34 2.091 1.455 0 2.364-.864 2.364-2.091h-1.25zM84.962 235h4.113c1.773 0 2.841-1 2.841-2.341 0-1.369-1.04-2.108-2-2.25.983-.204 1.682-.756 1.682-1.818 0-1.392-1.193-2.318-3.068-2.318h-3.568V235zm1.272-1.227v-2.682h2.841c.92 0 1.478.551 1.478 1.454 0 .762-.557 1.228-1.478 1.228h-2.84zm0-3.841V227.5h2.296c1.074 0 1.727.449 1.727 1.182 0 .778-.653 1.25-1.727 1.25h-2.296zm11.371 5.25c1.773 0 3.068-.887 3.477-2.205l-1.295-.363c-.341.909-1.13 1.363-2.182 1.363-1.574 0-2.659-1.017-2.722-2.886h6.336v-.568c0-3.25-1.932-4.364-3.75-4.364-2.364 0-3.932 1.864-3.932 4.546 0 2.681 1.545 4.477 4.068 4.477zm-2.722-5.25c.091-1.358 1.052-2.568 2.586-2.568 1.454 0 2.386 1.091 2.386 2.568h-4.972zm8.376 8.341h1.34v-4.614h.114c.296.477.864 1.523 2.546 1.523 2.181 0 3.704-1.75 3.704-4.523 0-2.75-1.523-4.5-3.727-4.5-1.705 0-2.227 1.046-2.523 1.5h-.159v-1.386h-1.295v12zm1.318-7.637c0-1.954.863-3.272 2.5-3.272 1.704 0 2.545 1.431 2.545 3.272 0 1.864-.863 3.341-2.545 3.341-1.614 0-2.5-1.363-2.5-3.341zm8.432-4.363V235h10.613v-8.727h-1.341v7.477h-3.295v-7.477h-1.341v7.477h-3.296v-7.477h-1.34zm14.403 6.75v-6.75h-1.341V235h1.568l4.182-6.75V235h1.341v-8.727h-1.546l-4.204 6.75zm9.547-6.75h-1.341V235h1.341v-3.727h4.182V235h1.341v-8.727h-1.341v3.75h-4.182v-3.75zm9.312 3.159v-3.159h-1.341V235h3.659c2.046 0 3.16-1.25 3.16-2.818 0-1.591-1.114-2.75-3.16-2.75h-2.318zm6.864 5.568h1.341v-8.727h-1.341V235zm-6.864-4.318h2.318c1.063 0 1.819.648 1.819 1.568 0 .881-.756 1.5-1.819 1.5h-2.318v-3.068zm16.023-7.318h-1.659l3.75 5.818-3.75 5.818h1.659l3-4.75h.091l3 4.75h1.659l-3.659-5.818 3.659-5.818h-1.659l-3 4.841h-.091l-3-4.841zm13.402 4.159h2.886V235h1.341v-7.477h2.864v-1.25h-7.091v1.25zm12.253 7.659c1.773 0 3.068-.887 3.477-2.205l-1.295-.363c-.341.909-1.131 1.363-2.182 1.363-1.574 0-2.659-1.017-2.722-2.886h6.335v-.568c0-3.25-1.931-4.364-3.75-4.364-2.363 0-3.931 1.864-3.931 4.546 0 2.681 1.545 4.477 4.068 4.477zm-2.722-5.25c.091-1.358 1.051-2.568 2.585-2.568 1.455 0 2.387 1.091 2.387 2.568h-4.972zm8.375 5.068h1.341v-3.682h1.205l2.863 3.682h1.728l-3.569-4.523 3.523-4.204h-1.727l-3.136 3.795h-.887v-3.795h-1.341V235zm9.458 3.25c1.21 0 2.068-.642 2.568-1.977l3.716-9.978-1.466-.022-2.409 6.954h-.091l-2.409-6.954h-1.455l3.227 8.772-.25.682c-.477 1.307-1.09 1.432-2.068 1.182l-.341 1.182c.137.068.523.159.978.159zm19.967-4.5h-1.295v-7.477h-1.341v7.477h-3.296v-7.477h-1.341v7.477h-3.295v-7.477h-1.341V235h10.364v2.5h1.386l.159-3.75zm5.516 1.432c1.772 0 3.068-.887 3.477-2.205l-1.296-.363c-.34.909-1.13 1.363-2.181 1.363-1.574 0-2.659-1.017-2.722-2.886h6.335v-.568c0-3.25-1.932-4.364-3.75-4.364-2.363 0-3.932 1.864-3.932 4.546 0 2.681 1.546 4.477 4.069 4.477zm-2.722-5.25c.091-1.358 1.051-2.568 2.585-2.568 1.455 0 2.387 1.091 2.387 2.568h-4.972zm13.761-3.659h-5.386V235h1.341v-7.477h4.045v-1.25zm5.05 8.909c2.364 0 3.955-1.796 3.955-4.5 0-2.727-1.591-4.523-3.955-4.523s-3.954 1.796-3.954 4.523c0 2.704 1.59 4.5 3.954 4.5zm0-1.205c-1.795 0-2.614-1.545-2.614-3.295s.819-3.318 2.614-3.318c1.796 0 2.614 1.568 2.614 3.318s-.818 3.295-2.614 3.295zM6.227 254h1.341v-7.477h4.182V254h1.34v-8.727H6.228V254zm12.858.182c2.364 0 3.955-1.796 3.955-4.5 0-2.727-1.591-4.523-3.955-4.523-2.363 0-3.954 1.796-3.954 4.523 0 2.704 1.59 4.5 3.954 4.5zm0-1.205c-1.795 0-2.613-1.545-2.613-3.295s.818-3.318 2.613-3.318c1.796 0 2.614 1.568 2.614 3.318s-.818 3.295-2.614 3.295zm5.07 3.523h1.34V254h6.455v2.5h1.341v-3.75h-1.34v-7.477h-5.546l-.296 3.454c-.21 2.443-.522 3.284-1.227 4.023h-.727v3.75zm2.25-3.75c.613-.807.835-2.199 1.023-4.023l.227-2.204h2.954v6.227h-4.204zm7.734 3.75h1.341V254h6.455v2.5h1.34v-3.75h-1.34v-7.477h-5.546l-.295 3.454c-.21 2.443-.523 3.284-1.227 4.023h-.728v3.75zm2.25-3.75c.614-.807.835-2.199 1.023-4.023l.227-2.204h2.955v6.227h-4.205zm12.325 1.432c1.773 0 3.069-.887 3.478-2.205l-1.296-.363c-.34.909-1.13 1.363-2.181 1.363-1.574 0-2.66-1.017-2.722-2.886h6.335v-.568c0-3.25-1.932-4.364-3.75-4.364-2.364 0-3.932 1.864-3.932 4.546 0 2.681 1.546 4.477 4.069 4.477zm-2.721-5.25c.09-1.358 1.051-2.568 2.585-2.568 1.455 0 2.386 1.091 2.386 2.568h-4.971zm8.375 8.341h1.34v-4.614h.114c.296.477.864 1.523 2.546 1.523 2.182 0 3.704-1.75 3.704-4.523 0-2.75-1.522-4.5-3.727-4.5-1.704 0-2.227 1.046-2.523 1.5h-.159v-1.386h-1.295v12zm1.318-7.637c0-1.954.864-3.272 2.5-3.272 1.705 0 2.545 1.431 2.545 3.272 0 1.864-.863 3.341-2.545 3.341-1.614 0-2.5-1.363-2.5-3.341zm12.091 4.546c1.773 0 3.068-.887 3.477-2.205l-1.295-.363c-.341.909-1.13 1.363-2.182 1.363-1.574 0-2.66-1.017-2.722-2.886h6.336v-.568c0-3.25-1.932-4.364-3.75-4.364-2.364 0-3.932 1.864-3.932 4.546 0 2.681 1.545 4.477 4.068 4.477zm-2.722-5.25c.091-1.358 1.051-2.568 2.586-2.568 1.454 0 2.386 1.091 2.386 2.568h-4.972zM73.43 254h4.114c1.773 0 2.84-1 2.84-2.341 0-1.369-1.039-2.108-2-2.25.984-.204 1.683-.756 1.683-1.818 0-1.392-1.193-2.318-3.068-2.318H73.43V254zm1.273-1.227v-2.682h2.841c.92 0 1.477.551 1.477 1.454 0 .762-.556 1.228-1.477 1.228h-2.84zm0-3.841V246.5H77c1.073 0 1.727.449 1.727 1.182 0 .778-.654 1.25-1.727 1.25h-2.296zm10.28 5.273c1.523 0 2.318-.819 2.59-1.387h.069V254h1.341v-5.75c0-2.773-2.114-3.091-3.227-3.091-1.319 0-2.819.455-3.5 2.046l1.272.454c.296-.636.995-1.318 2.273-1.318 1.233 0 1.841.653 1.841 1.773v.045c0 .648-.659.591-2.25.796-1.62.21-3.386.568-3.386 2.568 0 1.704 1.318 2.682 2.977 2.682zm.204-1.205c-1.068 0-1.84-.477-1.84-1.409 0-1.023.931-1.341 1.977-1.477.568-.069 2.09-.228 2.318-.5v1.227c0 1.091-.864 2.159-2.454 2.159zm7.22 1.091c.563 0 1.023-.46 1.023-1.023 0-.562-.46-1.023-1.022-1.023-.563 0-1.023.461-1.023 1.023 0 .563.46 1.023 1.023 1.023zM9.5 269.682a2.5 2.5 0 100-5 2.5 2.5 0 000 5zM19.91 273h7.113v-1.25h-5.705v-3.955h5.25v-1.25h-5.25v-3.931h5.614v-1.25h-7.023V273zm12.925.182c1.932 0 3.205-1.182 3.432-2.727h-1.34c-.25.954-1.046 1.522-2.092 1.522-1.59 0-2.613-1.318-2.613-3.341 0-1.977 1.045-3.272 2.613-3.272 1.182 0 1.887.727 2.091 1.522h1.341c-.227-1.636-1.614-2.727-3.455-2.727-2.363 0-3.931 1.864-3.931 4.523 0 2.613 1.5 4.5 3.954 4.5zm4.62-.182h.454c1.932 0 2.489-1.5 2.614-4.364l.136-3.113h3.205V273h1.34v-8.727h-5.818l-.159 3.863c-.113 2.932-.409 3.614-1.454 3.614h-.319V273zm11.55-1.977v-6.75h-1.34V273h1.568l4.182-6.75V273h1.34v-8.727H53.21l-4.204 6.75zM61.895 273h1.409v-3.773l1.454-1.636L68.803 273h1.704l-4.886-6.386 4.886-5.25h-1.84l-5.228 5.772h-.136v-5.772h-1.41V273zm15.3-3.523h7v-1.227h-7v1.227zm0-3.363h7v-1.228h-7v1.228zm15.366-4.75H90.9l3.75 5.818L90.9 273h1.66l3-4.75h.09l3 4.75h1.66l-3.66-5.818 3.66-5.818h-1.66l-3 4.841h-.09l-3-4.841zm11.402 10.045h-1.455l-.068.636c-.165 1.54-.489 3.074-.636 3.796h1.022c.273-.773.853-2.523 1.046-3.818l.091-.614zm6.984 1.591h4.114c1.772 0 2.841-1 2.841-2.341 0-1.369-1.04-2.108-2-2.25.983-.204 1.681-.756 1.681-1.818 0-1.392-1.193-2.318-3.068-2.318h-3.568V273zm1.273-1.227v-2.682h2.841c.92 0 1.477.551 1.477 1.454 0 .762-.557 1.228-1.477 1.228h-2.841zm0-3.841V265.5h2.295c1.074 0 1.727.449 1.727 1.182 0 .778-.653 1.25-1.727 1.25h-2.295zm9.052-.5v-3.159h-1.341V273h3.659c2.046 0 3.16-1.25 3.16-2.818 0-1.591-1.114-2.75-3.16-2.75h-2.318zm6.864 5.568h1.341v-8.727h-1.341V273zm-6.864-4.318h2.318c1.063 0 1.819.648 1.819 1.568 0 .881-.756 1.5-1.819 1.5h-2.318v-3.068zM131 275.5h1.34V273h6.455v2.5h1.341v-3.75h-1.341v-7.477h-5.545l-.296 3.454c-.21 2.443-.523 3.284-1.227 4.023H131v3.75zm2.25-3.75c.613-.807.835-2.199 1.022-4.023l.228-2.204h2.954v6.227h-4.204zm11.234 1.455c1.523 0 2.318-.819 2.591-1.387h.068V273h1.341v-5.75c0-2.773-2.114-3.091-3.227-3.091-1.318 0-2.818.455-3.5 2.046l1.272.454c.296-.636.995-1.318 2.273-1.318 1.233 0 1.841.653 1.841 1.773v.045c0 .648-.659.591-2.25.796-1.619.21-3.386.568-3.386 2.568 0 1.704 1.318 2.682 2.977 2.682zm.205-1.205c-1.069 0-1.841-.477-1.841-1.409 0-1.023.931-1.341 1.977-1.477.568-.069 2.091-.228 2.318-.5v1.227c0 1.091-.864 2.159-2.454 2.159zm5.055-6.477h2.886V273h1.341v-7.477h2.864v-1.25h-7.091v1.25zm10.388 1.909v-3.159h-1.341V273h3.659c2.045 0 3.159-1.25 3.159-2.818 0-1.591-1.114-2.75-3.159-2.75h-2.318zm0 1.25h2.318c1.062 0 1.818.648 1.818 1.568 0 .881-.756 1.5-1.818 1.5h-2.318v-3.068zm15.564 4.5c1.931 0 3.204-1.182 3.431-2.727h-1.34c-.25.954-1.046 1.522-2.091 1.522-1.591 0-2.614-1.318-2.614-3.341 0-1.977 1.045-3.272 2.614-3.272 1.181 0 1.886.727 2.091 1.522h1.34c-.227-1.636-1.613-2.727-3.454-2.727-2.364 0-3.932 1.864-3.932 4.523 0 2.613 1.5 4.5 3.955 4.5zm8.937 0c1.932 0 3.205-1.182 3.432-2.727h-1.341c-.25.954-1.045 1.522-2.091 1.522-1.591 0-2.614-1.318-2.614-3.341 0-1.977 1.046-3.272 2.614-3.272 1.182 0 1.886.727 2.091 1.522h1.341c-.227-1.636-1.614-2.727-3.455-2.727-2.363 0-3.931 1.864-3.931 4.523 0 2.613 1.5 4.5 3.954 4.5zm6.733-5.75v-3.159h-1.341V273h3.659c2.046 0 3.159-1.25 3.159-2.818 0-1.591-1.113-2.75-3.159-2.75h-2.318zM198.23 273h1.341v-8.727h-1.341V273zm-6.864-4.318h2.318c1.063 0 1.818.648 1.818 1.568 0 .881-.755 1.5-1.818 1.5h-2.318v-3.068zm9.886 4.318h.455c1.932 0 2.489-1.5 2.614-4.364l.136-3.113h3.205V273h1.34v-8.727h-5.818l-.159 3.863c-.113 2.932-.409 3.614-1.454 3.614h-.319V273zm10.211 0h1.341v-3.682h1.204l2.864 3.682h1.727l-3.568-4.523 3.523-4.204h-1.728l-3.136 3.795h-.886v-3.795h-1.341V273zm9.457 3.25c1.21 0 2.068-.642 2.568-1.977l3.716-9.978-1.466-.022-2.409 6.954h-.091l-2.409-6.954h-1.454l3.227 8.772-.25.682c-.477 1.307-1.091 1.432-2.068 1.182l-.341 1.182c.136.068.522.159.977.159zm13.899-11.977h-1.341V273h1.341v-3.727H239V273h1.341v-8.727H239v3.75h-4.182v-3.75zm10.54 8.932c1.523 0 2.318-.819 2.591-1.387h.068V273h1.341v-5.75c0-2.773-2.114-3.091-3.227-3.091-1.319 0-2.819.455-3.5 2.046l1.272.454c.296-.636.995-1.318 2.273-1.318 1.233 0 1.841.653 1.841 1.773v.045c0 .648-.659.591-2.25.796-1.619.21-3.386.568-3.386 2.568 0 1.704 1.318 2.682 2.977 2.682zm.204-1.205c-1.068 0-1.84-.477-1.84-1.409 0-1.023.931-1.341 1.977-1.477.568-.069 2.091-.228 2.318-.5v1.227c0 1.091-.864 2.159-2.455 2.159zm13.63-6.591c1.363.011 2.176 1.261 2.352 2.568h-3.239v1.25h3.25c-.142 1.33-.983 2.671-2.363 2.682-1.023-.011-1.978-.898-1.978-1.886h-1.318c0 1.738 1.387 3.136 3.296 3.136 2.386 0 3.727-2.028 3.727-4.341v-.318c0-2.312-1.341-4.341-3.727-4.341-1.705 0-3.296 1.398-3.296 2.909h1.318c0-.903 1.069-1.648 1.978-1.659zm4.629.114h2.886V273h1.341v-7.477h2.864v-1.25h-7.091v1.25zm12.139 7.659c2.364 0 3.955-1.796 3.955-4.5 0-2.727-1.591-4.523-3.955-4.523-2.363 0-3.954 1.796-3.954 4.523 0 2.704 1.591 4.5 3.954 4.5zm0-1.205c-1.795 0-2.613-1.545-2.613-3.295s.818-3.318 2.613-3.318c1.796 0 2.614 1.568 2.614 3.318s-.818 3.295-2.614 3.295zm4.861-6.454h2.886V273h1.341v-7.477h2.864v-1.25h-7.091v1.25zM7.091 295.25c1.21 0 2.068-.642 2.568-1.977l3.716-9.978-1.466-.022-2.409 6.954h-.09L7 283.273H5.545l3.228 8.772-.25.682c-.478 1.307-1.091 1.432-2.068 1.182l-.341 1.182c.136.068.522.159.977.159zm7.513-5.477c.045 1.432 1.415 2.409 3.272 2.409 1.91 0 3.296-1.023 3.296-2.614 0-1.091-.654-1.977-1.637-2.045v-.091c.83-.256 1.455-.858 1.455-1.841 0-1.381-1.182-2.432-3.023-2.432-1.818 0-3.113 1-3.159 2.409h1.41c.04-.721.795-1.227 1.817-1.227 1.018 0 1.591.517 1.591 1.295 0 .728-.5 1.273-1.568 1.273h-1.5v1.205h1.5c1.068 0 1.75.585 1.75 1.454 0 .994-.88 1.409-1.954 1.409-1.051 0-1.756-.415-1.819-1.204h-1.431zm12.11 2.409c1.773 0 3.069-.887 3.478-2.205l-1.296-.363c-.34.909-1.13 1.363-2.181 1.363-1.574 0-2.66-1.017-2.722-2.886h6.335v-.568c0-3.25-1.932-4.364-3.75-4.364-2.363 0-3.932 1.864-3.932 4.546 0 2.681 1.546 4.477 4.069 4.477zm-2.721-5.25c.09-1.358 1.051-2.568 2.585-2.568 1.455 0 2.387 1.091 2.387 2.568h-4.972zM31.595 292h.455c1.931 0 2.488-1.5 2.613-4.364l.137-3.113h3.204V292h1.341v-8.727h-5.818l-.16 3.863c-.113 2.932-.408 3.614-1.454 3.614h-.318V292zm16.051-1.977v-6.75h-1.34V292h1.568l4.181-6.75V292h1.341v-8.727h-1.545l-4.205 6.75zm16.252 2.159c2.363 0 3.954-1.796 3.954-4.5 0-2.727-1.59-4.523-3.954-4.523s-3.955 1.796-3.955 4.523c0 2.704 1.591 4.5 3.955 4.5zm0-1.205c-1.796 0-2.614-1.545-2.614-3.295s.818-3.318 2.614-3.318c1.795 0 2.613 1.568 2.613 3.318s-.818 3.295-2.613 3.295zm9.547 1.205c1.931 0 3.204-1.182 3.431-2.727h-1.34c-.25.954-1.046 1.522-2.091 1.522-1.591 0-2.614-1.318-2.614-3.341 0-1.977 1.045-3.272 2.614-3.272 1.181 0 1.886.727 2.09 1.522h1.341c-.227-1.636-1.613-2.727-3.454-2.727-2.364 0-3.932 1.864-3.932 4.523 0 2.613 1.5 4.5 3.955 4.5zm4.704-7.659h2.886V292h1.341v-7.477h2.864v-1.25h-7.09v1.25zm11.162 7.682c1.523 0 2.318-.819 2.591-1.387h.068V292h1.341v-5.75c0-2.773-2.114-3.091-3.227-3.091-1.318 0-2.818.455-3.5 2.046l1.272.454c.296-.636.995-1.318 2.273-1.318 1.233 0 1.841.653 1.841 1.773v.045c0 .648-.659.591-2.25.796-1.62.21-3.386.568-3.386 2.568 0 1.704 1.318 2.682 2.977 2.682zm.205-1.205c-1.069 0-1.841-.477-1.841-1.409 0-1.023.931-1.341 1.977-1.477.568-.069 2.09-.228 2.318-.5v1.227c0 1.091-.864 2.159-2.454 2.159zm7.583-7.727h-1.34V292h1.34v-3.727h4.182V292h1.341v-8.727h-1.341v3.75h-4.182v-3.75zm11.517 8.909c2.364 0 3.955-1.796 3.955-4.5 0-2.727-1.591-4.523-3.955-4.523-2.363 0-3.954 1.796-3.954 4.523 0 2.704 1.591 4.5 3.954 4.5zm0-1.205c-1.795 0-2.613-1.545-2.613-3.295s.818-3.318 2.613-3.318c1.796 0 2.614 1.568 2.614 3.318s-.818 3.295-2.614 3.295zm6.002 1.023h4.114c1.772 0 2.84-1 2.84-2.341 0-1.369-1.039-2.108-2-2.25.983-.204 1.682-.756 1.682-1.818 0-1.392-1.193-2.318-3.068-2.318h-3.568V292zm1.273-1.227v-2.682h2.841c.92 0 1.477.551 1.477 1.454 0 .762-.557 1.228-1.477 1.228h-2.841zm0-3.841V284.5h2.295c1.074 0 1.727.449 1.727 1.182 0 .778-.653 1.25-1.727 1.25h-2.295zm9.052 3.091v-6.75h-1.341V292h1.568l4.182-6.75V292h1.341v-8.727h-1.545l-4.205 6.75zm7.019-5.5h2.886V292h1.341v-7.477h2.864v-1.25h-7.091v1.25zm10.387 1.909v-3.159h-1.34V292h3.659c2.045 0 3.159-1.25 3.159-2.818 0-1.591-1.114-2.75-3.159-2.75h-2.319zm0 1.25h2.319c1.062 0 1.818.648 1.818 1.568 0 .881-.756 1.5-1.818 1.5h-2.319v-3.068zm11.064 4.5c1.932 0 3.205-1.182 3.432-2.727h-1.341c-.25.954-1.045 1.522-2.091 1.522-1.591 0-2.613-1.318-2.613-3.341 0-1.977 1.045-3.272 2.613-3.272 1.182 0 1.887.727 2.091 1.522h1.341c-.227-1.636-1.613-2.727-3.454-2.727-2.364 0-3.932 1.864-3.932 4.523 0 2.613 1.5 4.5 3.954 4.5zm10.642-.182h1.273v-8.727h-3.591c-1.88 0-3.023.983-3.023 2.591 0 1.198.603 2.051 1.654 2.409L158.237 292h1.455l2.022-3.545h2.341V292zm0-4.795h-2.477c-.949 0-1.523-.506-1.523-1.341 0-.847.637-1.364 1.682-1.364h2.318v2.705zm4.712 4.886c.563 0 1.023-.46 1.023-1.023 0-.562-.46-1.023-1.023-1.023-.562 0-1.023.461-1.023 1.023 0 .563.461 1.023 1.023 1.023zM9.5 307.682a2.5 2.5 0 100-5 2.5 2.5 0 000 5zM19.91 311h7.113v-1.25h-5.705v-3.955h5.25v-1.25h-5.25v-3.931h5.614v-1.25h-7.023V311zm12.925.182c1.932 0 3.205-1.182 3.432-2.727h-1.34c-.25.954-1.046 1.522-2.092 1.522-1.59 0-2.613-1.318-2.613-3.341 0-1.977 1.045-3.272 2.613-3.272 1.182 0 1.887.727 2.091 1.522h1.341c-.227-1.636-1.614-2.727-3.455-2.727-2.363 0-3.931 1.864-3.931 4.523 0 2.613 1.5 4.5 3.954 4.5zm4.62-.182h.454c1.932 0 2.489-1.5 2.614-4.364l.136-3.113h3.205V311h1.34v-8.727h-5.818l-.159 3.863c-.113 2.932-.409 3.614-1.454 3.614h-.319V311zm11.55-1.977v-6.75h-1.34V311h1.568l4.182-6.75V311h1.34v-8.727H53.21l-4.204 6.75zM61.895 311h1.409v-3.773l1.454-1.636L68.803 311h1.704l-4.886-6.386 4.886-5.25h-1.84l-5.228 5.772h-.136v-5.772h-1.41V311zm22.46-5.182v-.909l-7.319-3.727v1.454l5.569 2.682v.091l-5.569 2.682v1.454l7.319-3.727zm8.206-6.454H90.9l3.75 5.818L90.9 311h1.66l3-4.75h.09l3 4.75h1.66l-3.66-5.818 3.66-5.818h-1.66l-3 4.841h-.09l-3-4.841zm11.402 10.045h-1.455l-.068.636c-.165 1.54-.489 3.074-.636 3.796h1.022c.273-.773.853-2.523 1.046-3.818l.091-.614zm6.984 4.864h1.341v-4.614h.114c.295.477.863 1.523 2.545 1.523 2.182 0 3.705-1.75 3.705-4.523 0-2.75-1.523-4.5-3.728-4.5-1.704 0-2.227 1.046-2.522 1.5h-.16v-1.386h-1.295v12zm1.318-7.637c0-1.954.864-3.272 2.5-3.272 1.705 0 2.546 1.431 2.546 3.272 0 1.864-.864 3.341-2.546 3.341-1.613 0-2.5-1.363-2.5-3.341zm12.091 4.546c1.773 0 3.068-.887 3.477-2.205l-1.295-.363c-.341.909-1.131 1.363-2.182 1.363-1.574 0-2.659-1.017-2.721-2.886h6.335v-.568c0-3.25-1.932-4.364-3.75-4.364-2.364 0-3.932 1.864-3.932 4.546 0 2.681 1.545 4.477 4.068 4.477zm-2.721-5.25c.09-1.358 1.051-2.568 2.585-2.568 1.454 0 2.386 1.091 2.386 2.568h-4.971zM130.01 311h1.34v-3.682h1.205l2.864 3.682h1.727l-3.568-4.523 3.522-4.204h-1.727l-3.136 3.795h-.887v-3.795h-1.34V311zm9.457 3.25c1.21 0 2.068-.642 2.568-1.977l3.716-9.978-1.466-.022-2.409 6.954h-.091l-2.409-6.954h-1.455l3.228 8.772-.25.682c-.478 1.307-1.091 1.432-2.068 1.182l-.341 1.182c.136.068.522.159.977.159zm8.058.023h1.341v-4.614h.114c.295.477.863 1.523 2.545 1.523 2.182 0 3.705-1.75 3.705-4.523 0-2.75-1.523-4.5-3.728-4.5-1.704 0-2.227 1.046-2.522 1.5h-.159v-1.386h-1.296v12zm1.318-7.637c0-1.954.864-3.272 2.5-3.272 1.705 0 2.546 1.431 2.546 3.272 0 1.864-.864 3.341-2.546 3.341-1.613 0-2.5-1.363-2.5-3.341zm11.978 4.546c1.931 0 3.204-1.182 3.431-2.727h-1.34c-.25.954-1.046 1.522-2.091 1.522-1.591 0-2.614-1.318-2.614-3.341 0-1.977 1.045-3.272 2.614-3.272 1.181 0 1.886.727 2.091 1.522h1.34c-.227-1.636-1.613-2.727-3.454-2.727-2.364 0-3.932 1.864-3.932 4.523 0 2.613 1.5 4.5 3.955 4.5zm6.733-2.159v-6.75h-1.341V311h1.568l4.182-6.75V311h1.341v-8.727h-1.546l-4.204 6.75zM175.76 311h4.113c1.773 0 2.841-1 2.841-2.341 0-1.369-1.04-2.108-2-2.25.983-.204 1.682-.756 1.682-1.818 0-1.392-1.193-2.318-3.068-2.318h-3.568V311zm1.272-1.227v-2.682h2.841c.921 0 1.477.551 1.477 1.454 0 .762-.556 1.228-1.477 1.228h-2.841zm0-3.841V303.5h2.296c1.074 0 1.727.449 1.727 1.182 0 .778-.653 1.25-1.727 1.25h-2.296zm9.053-3.659h-1.341V311h1.341v-3.727h4.182V311h1.341v-8.727h-1.341v3.75h-4.182v-3.75zm11.517 8.909c2.363 0 3.954-1.796 3.954-4.5 0-2.727-1.591-4.523-3.954-4.523-2.364 0-3.955 1.796-3.955 4.523 0 2.704 1.591 4.5 3.955 4.5zm0-1.205c-1.796 0-2.614-1.545-2.614-3.295s.818-3.318 2.614-3.318c1.795 0 2.613 1.568 2.613 3.318s-.818 3.295-2.613 3.295zm11.842-.954v-6.75h-1.341V311h1.568l4.182-6.75V311h1.341v-8.727h-1.545l-4.205 6.75zm11.752 2.159c1.931 0 3.204-1.182 3.431-2.727h-1.34c-.25.954-1.046 1.522-2.091 1.522-1.591 0-2.614-1.318-2.614-3.341 0-1.977 1.045-3.272 2.614-3.272 1.181 0 1.886.727 2.091 1.522h1.34c-.227-1.636-1.613-2.727-3.454-2.727-2.364 0-3.932 1.864-3.932 4.523 0 2.613 1.5 4.5 3.955 4.5zm5.392-.182h1.341v-3.682h1.204l2.864 3.682h1.727l-3.568-4.523 3.523-4.204h-1.728l-3.136 3.795h-.886v-3.795h-1.341V311zm11.162.205c1.522 0 2.318-.819 2.59-1.387h.069V311h1.341v-5.75c0-2.773-2.114-3.091-3.228-3.091-1.318 0-2.818.455-3.5 2.046l1.273.454c.295-.636.994-1.318 2.273-1.318 1.233 0 1.841.653 1.841 1.773v.045c0 .648-.659.591-2.25.796-1.62.21-3.387.568-3.387 2.568 0 1.704 1.318 2.682 2.978 2.682zm.204-1.205c-1.068 0-1.841-.477-1.841-1.409 0-1.023.932-1.341 1.977-1.477.569-.069 2.091-.228 2.319-.5v1.227c0 1.091-.864 2.159-2.455 2.159zm5.056-6.477h2.886V311h1.341v-7.477h2.863v-1.25h-7.09v1.25zm10.387 1.909v-3.159h-1.341V311h3.659c2.046 0 3.16-1.25 3.16-2.818 0-1.591-1.114-2.75-3.16-2.75h-2.318zm0 1.25h2.318c1.063 0 1.819.648 1.819 1.568 0 .881-.756 1.5-1.819 1.5h-2.318v-3.068zM265.415 311h1.341v-3.682h1.204l2.864 3.682h1.727l-3.568-4.523 3.523-4.204h-1.728l-3.136 3.795h-.886v-3.795h-1.341V311zm7.821 0h.454c1.932 0 2.489-1.5 2.614-4.364l.136-3.113h3.205V311h1.341v-8.727h-5.818l-.159 3.863c-.114 2.932-.41 3.614-1.455 3.614h-.318V311zm10.915-8.727h-1.341V311h1.341v-3.659h2.238c.239 2.335 1.756 3.841 3.921 3.841 2.363 0 3.954-1.796 3.954-4.5 0-2.727-1.591-4.523-3.954-4.523-2.188 0-3.716 1.54-3.926 3.932h-2.233v-3.818zm6.159 7.704c-1.796 0-2.614-1.545-2.614-3.295s.818-3.318 2.614-3.318c1.795 0 2.613 1.568 2.613 3.318s-.818 3.295-2.613 3.295zm12.863-7.704h-1.341v4.426a7.365 7.365 0 01-2.113.301c-1.091 0-1.932-.614-1.932-1.955v-2.795h-1.341v2.795c0 2.137 1.295 3.205 3.273 3.205.824 0 1.483-.108 2.113-.295V311h1.341v-8.727zM6.409 330h1.41v-3.773l1.454-1.636L13.318 330h1.705l-4.887-6.386 4.887-5.25h-1.841l-5.227 5.772h-.137v-5.772H6.41V330zm14.756 0h4.113c1.773 0 2.841-1 2.841-2.341 0-1.369-1.04-2.108-2-2.25.983-.204 1.682-.756 1.682-1.818 0-1.392-1.193-2.318-3.068-2.318h-3.568V330zm1.273-1.227v-2.682h2.84c.92 0 1.478.551 1.478 1.454 0 .762-.557 1.228-1.478 1.228h-2.84zm0-3.841V322.5h2.295c1.074 0 1.727.449 1.727 1.182 0 .778-.653 1.25-1.727 1.25h-2.296zM34.648 330h1.341v-7.477h4.182V330h1.34v-8.727H34.65V330zm9.313 3.273h1.34v-4.614h.114c.296.477.864 1.523 2.546 1.523 2.181 0 3.704-1.75 3.704-4.523 0-2.75-1.522-4.5-3.727-4.5-1.705 0-2.227 1.046-2.523 1.5h-.159v-1.386h-1.295v12zm1.318-7.637c0-1.954.864-3.272 2.5-3.272 1.704 0 2.545 1.431 2.545 3.272 0 1.864-.863 3.341-2.545 3.341-1.614 0-2.5-1.363-2.5-3.341zm11 4.569c1.523 0 2.318-.819 2.59-1.387h.069V330h1.34v-5.75c0-2.773-2.113-3.091-3.226-3.091-1.319 0-2.819.455-3.5 2.046l1.272.454c.296-.636.995-1.318 2.273-1.318 1.233 0 1.84.653 1.84 1.773v.045c0 .648-.658.591-2.25.796-1.618.21-3.385.568-3.385 2.568 0 1.704 1.318 2.682 2.977 2.682zm.204-1.205c-1.068 0-1.84-.477-1.84-1.409 0-1.023.931-1.341 1.977-1.477.568-.069 2.09-.228 2.318-.5v1.227c0 1.091-.864 2.159-2.455 2.159zm6.243 1h4.114c1.773 0 2.84-1 2.84-2.341 0-1.369-1.039-2.108-2-2.25.984-.204 1.683-.756 1.683-1.818 0-1.392-1.194-2.318-3.069-2.318h-3.568V330zM64 328.773v-2.682h2.84c.921 0 1.478.551 1.478 1.454 0 .762-.557 1.228-1.477 1.228H64zm0-3.841V322.5h2.296c1.073 0 1.727.449 1.727 1.182 0 .778-.654 1.25-1.727 1.25H64zm11.257 5.25c2.364 0 3.955-1.796 3.955-4.5 0-2.727-1.591-4.523-3.955-4.523s-3.954 1.796-3.954 4.523c0 2.704 1.59 4.5 3.954 4.5zm0-1.205c-1.795 0-2.614-1.545-2.614-3.295s.819-3.318 2.614-3.318c1.796 0 2.614 1.568 2.614 3.318s-.818 3.295-2.614 3.295zm10.774-.795l-3-6.909h-1.773V330H82.6v-6.801L85.486 330h1.09l2.887-6.676V330h1.341v-8.727h-1.727l-3.046 6.909zM97.758 330H99.1v-7.477h4.182V330h1.341v-8.727h-6.864V330zm12.858.182c2.364 0 3.955-1.796 3.955-4.5 0-2.727-1.591-4.523-3.955-4.523-2.363 0-3.954 1.796-3.954 4.523 0 2.704 1.591 4.5 3.954 4.5zm0-1.205c-1.795 0-2.613-1.545-2.613-3.295s.818-3.318 2.613-3.318c1.796 0 2.614 1.568 2.614 3.318s-.818 3.295-2.614 3.295zm5.07 3.523h1.341V330h6.455v2.5h1.34v-3.75h-1.34v-7.477h-5.546l-.295 3.454c-.211 2.443-.523 3.284-1.228 4.023h-.727v3.75zm2.25-3.75c.614-.807.835-2.199 1.023-4.023l.227-2.204h2.955v6.227h-4.205zm7.734 3.75h1.341V330h6.455v2.5h1.341v-3.75h-1.341v-7.477h-5.546l-.295 3.454c-.21 2.443-.523 3.284-1.227 4.023h-.728v3.75zm2.25-3.75c.614-.807.836-2.199 1.023-4.023l.227-2.204h2.955v6.227h-4.205zm12.326 1.432c1.772 0 3.068-.887 3.477-2.205l-1.295-.363c-.341.909-1.131 1.363-2.182 1.363-1.574 0-2.659-1.017-2.722-2.886h6.335v-.568c0-3.25-1.931-4.364-3.75-4.364-2.363 0-3.931 1.864-3.931 4.546 0 2.681 1.545 4.477 4.068 4.477zm-2.722-5.25c.091-1.358 1.051-2.568 2.585-2.568 1.455 0 2.387 1.091 2.387 2.568h-4.972zm8.375 8.341h1.341v-4.614h.114c.295.477.863 1.523 2.545 1.523 2.182 0 3.705-1.75 3.705-4.523 0-2.75-1.523-4.5-3.728-4.5-1.704 0-2.227 1.046-2.522 1.5h-.159v-1.386h-1.296v12zm1.318-7.637c0-1.954.864-3.272 2.5-3.272 1.705 0 2.546 1.431 2.546 3.272 0 1.864-.864 3.341-2.546 3.341-1.613 0-2.5-1.363-2.5-3.341zm12.091 4.546c1.773 0 3.068-.887 3.478-2.205l-1.296-.363c-.341.909-1.131 1.363-2.182 1.363-1.574 0-2.659-1.017-2.721-2.886h6.335v-.568c0-3.25-1.932-4.364-3.75-4.364-2.364 0-3.932 1.864-3.932 4.546 0 2.681 1.546 4.477 4.068 4.477zm-2.721-5.25c.091-1.358 1.051-2.568 2.585-2.568 1.454 0 2.386 1.091 2.386 2.568h-4.971zm8.375 5.068h4.113c1.773 0 2.841-1 2.841-2.341 0-1.369-1.04-2.108-2-2.25.983-.204 1.682-.756 1.682-1.818 0-1.392-1.193-2.318-3.068-2.318h-3.568V330zm1.272-1.227v-2.682h2.841c.921 0 1.478.551 1.478 1.454 0 .762-.557 1.228-1.478 1.228h-2.841zm0-3.841V322.5h2.296c1.074 0 1.727.449 1.727 1.182 0 .778-.653 1.25-1.727 1.25h-2.296zm11.371 5.25c1.773 0 3.068-.887 3.477-2.205l-1.295-.363c-.341.909-1.131 1.363-2.182 1.363-1.574 0-2.659-1.017-2.721-2.886h6.335v-.568c0-3.25-1.932-4.364-3.75-4.364-2.364 0-3.932 1.864-3.932 4.546 0 2.681 1.545 4.477 4.068 4.477zm-2.721-5.25c.09-1.358 1.051-2.568 2.585-2.568 1.454 0 2.386 1.091 2.386 2.568h-4.971zm11.943 7.568h1.341V330h6.454v2.5h1.341v-3.75h-1.341v-7.477h-5.545l-.296 3.454c-.21 2.443-.522 3.284-1.227 4.023h-.727v3.75zm2.25-3.75c.613-.807.835-2.199 1.022-4.023l.228-2.204h2.954v6.227h-4.204zm12.325 1.432c1.773 0 3.068-.887 3.477-2.205l-1.295-.363c-.341.909-1.131 1.363-2.182 1.363-1.574 0-2.659-1.017-2.722-2.886h6.336v-.568c0-3.25-1.932-4.364-3.75-4.364-2.364 0-3.932 1.864-3.932 4.546 0 2.681 1.545 4.477 4.068 4.477zm-2.722-5.25c.091-1.358 1.052-2.568 2.586-2.568 1.454 0 2.386 1.091 2.386 2.568h-4.972zm8.375 8.341h1.341v-4.614h.114c.295.477.864 1.523 2.545 1.523 2.182 0 3.705-1.75 3.705-4.523 0-2.75-1.523-4.5-3.727-4.5-1.705 0-2.228 1.046-2.523 1.5h-.159v-1.386h-1.296v12zm1.319-7.637c0-1.954.863-3.272 2.5-3.272 1.704 0 2.545 1.431 2.545 3.272 0 1.864-.864 3.341-2.545 3.341-1.614 0-2.5-1.363-2.5-3.341zm12.09 4.546c1.773 0 3.069-.887 3.478-2.205l-1.296-.363c-.341.909-1.13 1.363-2.182 1.363-1.573 0-2.659-1.017-2.721-2.886h6.335v-.568c0-3.25-1.932-4.364-3.75-4.364-2.364 0-3.932 1.864-3.932 4.546 0 2.681 1.546 4.477 4.068 4.477zm-2.721-5.25c.091-1.358 1.051-2.568 2.585-2.568 1.455 0 2.386 1.091 2.386 2.568h-4.971zm8.375 5.068h4.114c1.772 0 2.84-1 2.84-2.341 0-1.369-1.039-2.108-2-2.25.983-.204 1.682-.756 1.682-1.818 0-1.392-1.193-2.318-3.068-2.318h-3.568V330zm1.273-1.227v-2.682h2.841c.92 0 1.477.551 1.477 1.454 0 .762-.557 1.228-1.477 1.228h-2.841zm0-3.841V322.5h2.295c1.074 0 1.727.449 1.727 1.182 0 .778-.653 1.25-1.727 1.25h-2.295zm10.279 5.273c1.523 0 2.319-.819 2.591-1.387h.069V330h1.34v-5.75c0-2.773-2.113-3.091-3.227-3.091-1.318 0-2.818.455-3.5 2.046l1.273.454c.295-.636.994-1.318 2.273-1.318 1.233 0 1.841.653 1.841 1.773v.045c0 .648-.66.591-2.25.796-1.62.21-3.387.568-3.387 2.568 0 1.704 1.318 2.682 2.977 2.682zm.205-1.205c-1.068 0-1.841-.477-1.841-1.409 0-1.023.932-1.341 1.977-1.477.569-.069 2.091-.228 2.319-.5v1.227c0 1.091-.864 2.159-2.455 2.159zm14.288 1.182c1.932 0 3.205-1.182 3.432-2.727h-1.341c-.25.954-1.045 1.522-2.091 1.522-1.591 0-2.613-1.318-2.613-3.341 0-1.977 1.045-3.272 2.613-3.272 1.182 0 1.887.727 2.091 1.522h1.341c-.227-1.636-1.613-2.727-3.454-2.727-2.364 0-3.932 1.864-3.932 4.523 0 2.613 1.5 4.5 3.954 4.5zM6.227 349h1.341v-3.682h1.205L11.636 349h1.728l-3.569-4.523 3.523-4.204h-1.727l-3.136 3.795h-.887v-3.795h-1.34V349zm7.821 0h.455c1.932 0 2.488-1.5 2.613-4.364l.137-3.113h3.204V349h1.341v-8.727H15.98l-.159 3.863c-.114 2.932-.41 3.614-1.454 3.614h-.319V349zm10.915-8.727h-1.34V349h1.34v-3.659h2.239c.238 2.335 1.755 3.841 3.92 3.841 2.364 0 3.955-1.796 3.955-4.5 0-2.727-1.591-4.523-3.955-4.523-2.187 0-3.716 1.54-3.926 3.932h-2.233v-3.818zm6.16 7.704c-1.796 0-2.614-1.545-2.614-3.295s.818-3.318 2.613-3.318c1.796 0 2.614 1.568 2.614 3.318s-.818 3.295-2.614 3.295zm12.863-7.704h-1.341v4.426a7.373 7.373 0 01-2.114.301c-1.09 0-1.932-.614-1.932-1.955v-2.795h-1.34v2.795c0 2.137 1.295 3.205 3.272 3.205a7.18 7.18 0 002.114-.295V349h1.34v-8.727zm6.006 8.909c2.363 0 3.954-1.796 3.954-4.5 0-2.727-1.59-4.523-3.954-4.523s-3.955 1.796-3.955 4.523c0 2.704 1.59 4.5 3.955 4.5zm0-1.205c-1.796 0-2.614-1.545-2.614-3.295s.818-3.318 2.614-3.318c1.795 0 2.613 1.568 2.613 3.318s-.818 3.295-2.613 3.295zm10.774-.795l-3-6.909h-1.773V349h1.34v-6.801L60.22 349h1.091l2.886-6.676V349h1.341v-8.727h-1.727l-3.045 6.909zm12.59-9.818h-1.659l3.75 5.818-3.75 5.818h1.66l3-4.75h.09l3 4.75h1.66l-3.66-5.818 3.66-5.818h-1.66l-3 4.841h-.09l-3-4.841zm10.38 11.727c.562 0 1.022-.46 1.022-1.023 0-.562-.46-1.023-1.022-1.023-.563 0-1.023.461-1.023 1.023 0 .563.46 1.023 1.023 1.023zM9.5 364.682a2.5 2.5 0 100-5 2.5 2.5 0 000 5zM19.91 368h7.113v-1.25h-5.705v-3.955h5.25v-1.25h-5.25v-3.931h5.614v-1.25h-7.023V368zm12.925.182c1.932 0 3.205-1.182 3.432-2.727h-1.34c-.25.954-1.046 1.522-2.092 1.522-1.59 0-2.613-1.318-2.613-3.341 0-1.977 1.045-3.272 2.613-3.272 1.182 0 1.887.727 2.091 1.522h1.341c-.227-1.636-1.614-2.727-3.455-2.727-2.363 0-3.931 1.864-3.931 4.523 0 2.613 1.5 4.5 3.954 4.5zm4.62-.182h.454c1.932 0 2.489-1.5 2.614-4.364l.136-3.113h3.205V368h1.34v-8.727h-5.818l-.159 3.863c-.113 2.932-.409 3.614-1.454 3.614h-.319V368zm11.55-1.977v-6.75h-1.34V368h1.568l4.182-6.75V368h1.34v-8.727H53.21l-4.204 6.75zM61.895 368h1.409v-3.773l1.454-1.636L68.803 368h1.704l-4.886-6.386 4.886-5.25h-1.84l-5.228 5.772h-.136v-5.772h-1.41V368zm15.142-5.182l7.318 3.727v-1.454l-5.569-2.682v-.091l5.569-2.682v-1.454l-7.319 3.727v.909zm15.524-6.454H90.9l3.75 5.818L90.9 368h1.66l3-4.75h.09l3 4.75h1.66l-3.66-5.818 3.66-5.818h-1.66l-3 4.841h-.09l-3-4.841zm11.402 10.045h-1.455l-.068.636c-.165 1.54-.489 3.074-.636 3.796h1.022c.273-.773.853-2.523 1.046-3.818l.091-.614zm6.984 4.864h1.341v-4.614h.114c.295.477.863 1.523 2.545 1.523 2.182 0 3.705-1.75 3.705-4.523 0-2.75-1.523-4.5-3.728-4.5-1.704 0-2.227 1.046-2.522 1.5h-.16v-1.386h-1.295v12zm1.318-7.637c0-1.954.864-3.272 2.5-3.272 1.705 0 2.546 1.431 2.546 3.272 0 1.864-.864 3.341-2.546 3.341-1.613 0-2.5-1.363-2.5-3.341zm12.091 4.546c1.773 0 3.068-.887 3.477-2.205l-1.295-.363c-.341.909-1.131 1.363-2.182 1.363-1.574 0-2.659-1.017-2.721-2.886h6.335v-.568c0-3.25-1.932-4.364-3.75-4.364-2.364 0-3.932 1.864-3.932 4.546 0 2.681 1.545 4.477 4.068 4.477zm-2.721-5.25c.09-1.358 1.051-2.568 2.585-2.568 1.454 0 2.386 1.091 2.386 2.568h-4.971zM130.01 368h1.34v-3.682h1.205l2.864 3.682h1.727l-3.568-4.523 3.522-4.204h-1.727l-3.136 3.795h-.887v-3.795h-1.34V368zm9.457 3.25c1.21 0 2.068-.642 2.568-1.977l3.716-9.978-1.466-.022-2.409 6.954h-.091l-2.409-6.954h-1.455l3.228 8.772-.25.682c-.478 1.307-1.091 1.432-2.068 1.182l-.341 1.182c.136.068.522.159.977.159zm8.058.023h1.341v-4.614h.114c.295.477.863 1.523 2.545 1.523 2.182 0 3.705-1.75 3.705-4.523 0-2.75-1.523-4.5-3.728-4.5-1.704 0-2.227 1.046-2.522 1.5h-.159v-1.386h-1.296v12zm1.318-7.637c0-1.954.864-3.272 2.5-3.272 1.705 0 2.546 1.431 2.546 3.272 0 1.864-.864 3.341-2.546 3.341-1.613 0-2.5-1.363-2.5-3.341zm11.978 4.546c1.931 0 3.204-1.182 3.431-2.727h-1.34c-.25.954-1.046 1.522-2.091 1.522-1.591 0-2.614-1.318-2.614-3.341 0-1.977 1.045-3.272 2.614-3.272 1.181 0 1.886.727 2.091 1.522h1.34c-.227-1.636-1.613-2.727-3.454-2.727-2.364 0-3.932 1.864-3.932 4.523 0 2.613 1.5 4.5 3.955 4.5zm6.733-2.159v-6.75h-1.341V368h1.568l4.182-6.75V368h1.341v-8.727h-1.546l-4.204 6.75zM175.76 368h4.113c1.773 0 2.841-1 2.841-2.341 0-1.369-1.04-2.108-2-2.25.983-.204 1.682-.756 1.682-1.818 0-1.392-1.193-2.318-3.068-2.318h-3.568V368zm1.272-1.227v-2.682h2.841c.921 0 1.477.551 1.477 1.454 0 .762-.556 1.228-1.477 1.228h-2.841zm0-3.841V360.5h2.296c1.074 0 1.727.449 1.727 1.182 0 .778-.653 1.25-1.727 1.25h-2.296zm9.053-3.659h-1.341V368h1.341v-3.727h4.182V368h1.341v-8.727h-1.341v3.75h-4.182v-3.75zm11.517 8.909c2.363 0 3.954-1.796 3.954-4.5 0-2.727-1.591-4.523-3.954-4.523-2.364 0-3.955 1.796-3.955 4.523 0 2.704 1.591 4.5 3.955 4.5zm0-1.205c-1.796 0-2.614-1.545-2.614-3.295s.818-3.318 2.614-3.318c1.795 0 2.613 1.568 2.613 3.318s-.818 3.295-2.613 3.295zm11.842-.954v-6.75h-1.341V368h1.568l4.182-6.75V368h1.341v-8.727h-1.545l-4.205 6.75zm11.752 2.159c1.931 0 3.204-1.182 3.431-2.727h-1.34c-.25.954-1.046 1.522-2.091 1.522-1.591 0-2.614-1.318-2.614-3.341 0-1.977 1.045-3.272 2.614-3.272 1.181 0 1.886.727 2.091 1.522h1.34c-.227-1.636-1.613-2.727-3.454-2.727-2.364 0-3.932 1.864-3.932 4.523 0 2.613 1.5 4.5 3.955 4.5zm5.392-.182h1.341v-3.682h1.204l2.864 3.682h1.727l-3.568-4.523 3.523-4.204h-1.728l-3.136 3.795h-.886v-3.795h-1.341V368zm11.162.205c1.522 0 2.318-.819 2.59-1.387h.069V368h1.341v-5.75c0-2.773-2.114-3.091-3.228-3.091-1.318 0-2.818.455-3.5 2.046l1.273.454c.295-.636.994-1.318 2.273-1.318 1.233 0 1.841.653 1.841 1.773v.045c0 .648-.659.591-2.25.796-1.62.21-3.387.568-3.387 2.568 0 1.704 1.318 2.682 2.978 2.682zm.204-1.205c-1.068 0-1.841-.477-1.841-1.409 0-1.023.932-1.341 1.977-1.477.569-.069 2.091-.228 2.319-.5v1.227c0 1.091-.864 2.159-2.455 2.159zm5.056-6.477h2.886V368h1.341v-7.477h2.863v-1.25h-7.09v1.25zm10.387 1.909v-3.159h-1.341V368h3.659c2.046 0 3.16-1.25 3.16-2.818 0-1.591-1.114-2.75-3.16-2.75h-2.318zm0 1.25h2.318c1.063 0 1.819.648 1.819 1.568 0 .881-.756 1.5-1.819 1.5h-2.318v-3.068zM265.415 368h1.341v-3.682h1.204l2.864 3.682h1.727l-3.568-4.523 3.523-4.204h-1.728l-3.136 3.795h-.886v-3.795h-1.341V368zm7.821 0h.454c1.932 0 2.489-1.5 2.614-4.364l.136-3.113h3.205V368h1.341v-8.727h-5.818l-.159 3.863c-.114 2.932-.41 3.614-1.455 3.614h-.318V368zm10.915-8.727h-1.341V368h1.341v-3.659h2.238c.239 2.335 1.756 3.841 3.921 3.841 2.363 0 3.954-1.796 3.954-4.5 0-2.727-1.591-4.523-3.954-4.523-2.188 0-3.716 1.54-3.926 3.932h-2.233v-3.818zm6.159 7.704c-1.796 0-2.614-1.545-2.614-3.295s.818-3.318 2.614-3.318c1.795 0 2.613 1.568 2.613 3.318s-.818 3.295-2.613 3.295zm12.863-7.704h-1.341v4.426a7.365 7.365 0 01-2.113.301c-1.091 0-1.932-.614-1.932-1.955v-2.795h-1.341v2.795c0 2.137 1.295 3.205 3.273 3.205.824 0 1.483-.108 2.113-.295V368h1.341v-8.727zM6.409 387h1.41v-3.773l1.454-1.636L13.318 387h1.705l-4.887-6.386 4.887-5.25h-1.841l-5.227 5.772h-.137v-5.772H6.41V387zm14.756 0h4.113c1.773 0 2.841-1 2.841-2.341 0-1.369-1.04-2.108-2-2.25.983-.204 1.682-.756 1.682-1.818 0-1.392-1.193-2.318-3.068-2.318h-3.568V387zm1.273-1.227v-2.682h2.84c.92 0 1.478.551 1.478 1.454 0 .762-.557 1.228-1.478 1.228h-2.84zm0-3.841V379.5h2.295c1.074 0 1.727.449 1.727 1.182 0 .778-.653 1.25-1.727 1.25h-2.296zM33.876 387h.455c1.932 0 2.489-1.5 2.614-4.364l.136-3.113h3.204V387h1.341v-8.727h-5.818l-.159 3.863c-.114 2.932-.409 3.614-1.454 3.614h-.319V387zm13.87.182c1.773 0 3.068-.887 3.477-2.205l-1.295-.363c-.341.909-1.131 1.363-2.182 1.363-1.574 0-2.66-1.017-2.722-2.886h6.335v-.568c0-3.25-1.931-4.364-3.75-4.364-2.363 0-3.931 1.864-3.931 4.546 0 2.681 1.545 4.477 4.068 4.477zm-2.722-5.25c.091-1.358 1.051-2.568 2.585-2.568 1.455 0 2.387 1.091 2.387 2.568h-4.972zM53.4 387h4.114c1.773 0 2.84-1 2.84-2.341 0-1.369-1.04-2.108-2-2.25.984-.204 1.682-.756 1.682-1.818 0-1.392-1.193-2.318-3.068-2.318H53.4V387zm1.273-1.227v-2.682h2.84c.921 0 1.478.551 1.478 1.454 0 .762-.557 1.228-1.477 1.228h-2.841zm0-3.841V379.5h2.295c1.074 0 1.728.449 1.728 1.182 0 .778-.654 1.25-1.728 1.25h-2.295zm11.257 5.25c2.364 0 3.954-1.796 3.954-4.5 0-2.727-1.59-4.523-3.954-4.523s-3.955 1.796-3.955 4.523c0 2.704 1.591 4.5 3.955 4.5zm0-1.205c-1.796 0-2.614-1.545-2.614-3.295s.819-3.318 2.614-3.318 2.614 1.568 2.614 3.318-.819 3.295-2.614 3.295zm10.774-.795l-3-6.909H71.93V387h1.341v-6.801L76.158 387h1.09l2.887-6.676V387h1.34v-8.727H79.75l-3.046 6.909zM88.43 387h1.341v-7.477h4.182V387h1.341v-8.727H88.43V387zm12.858.182c2.364 0 3.955-1.796 3.955-4.5 0-2.727-1.591-4.523-3.955-4.523-2.363 0-3.954 1.796-3.954 4.523 0 2.704 1.59 4.5 3.954 4.5zm0-1.205c-1.795 0-2.613-1.545-2.613-3.295s.818-3.318 2.613-3.318c1.796 0 2.614 1.568 2.614 3.318s-.818 3.295-2.614 3.295zm5.07 3.523h1.341V387h6.454v2.5h1.341v-3.75h-1.341v-7.477h-5.545l-.296 3.454c-.21 2.443-.522 3.284-1.227 4.023h-.727v3.75zm2.25-3.75c.614-.807.835-2.199 1.023-4.023l.227-2.204h2.954v6.227h-4.204zm7.734 3.75h1.341V387h6.455v2.5h1.341v-3.75h-1.341v-7.477h-5.546l-.295 3.454c-.21 2.443-.523 3.284-1.227 4.023h-.728v3.75zm2.25-3.75c.614-.807.836-2.199 1.023-4.023l.227-2.204h2.955v6.227h-4.205zm12.326 1.432c1.772 0 3.068-.887 3.477-2.205l-1.296-.363c-.34.909-1.13 1.363-2.181 1.363-1.574 0-2.659-1.017-2.722-2.886h6.335v-.568c0-3.25-1.932-4.364-3.75-4.364-2.363 0-3.932 1.864-3.932 4.546 0 2.681 1.546 4.477 4.069 4.477zm-2.722-5.25c.091-1.358 1.051-2.568 2.585-2.568 1.455 0 2.387 1.091 2.387 2.568h-4.972zm8.375 8.341h1.341v-4.614h.114c.295.477.863 1.523 2.545 1.523 2.182 0 3.705-1.75 3.705-4.523 0-2.75-1.523-4.5-3.728-4.5-1.704 0-2.227 1.046-2.522 1.5h-.16v-1.386h-1.295v12zm1.318-7.637c0-1.954.864-3.272 2.5-3.272 1.705 0 2.546 1.431 2.546 3.272 0 1.864-.864 3.341-2.546 3.341-1.613 0-2.5-1.363-2.5-3.341zm12.091 4.546c1.773 0 3.068-.887 3.477-2.205l-1.295-.363c-.341.909-1.131 1.363-2.182 1.363-1.574 0-2.659-1.017-2.721-2.886h6.335v-.568c0-3.25-1.932-4.364-3.75-4.364-2.364 0-3.932 1.864-3.932 4.546 0 2.681 1.545 4.477 4.068 4.477zm-2.721-5.25c.09-1.358 1.051-2.568 2.585-2.568 1.454 0 2.386 1.091 2.386 2.568h-4.971zm8.375 5.068h4.113c1.773 0 2.841-1 2.841-2.341 0-1.369-1.04-2.108-2-2.25.983-.204 1.682-.756 1.682-1.818 0-1.392-1.193-2.318-3.068-2.318h-3.568V387zm1.272-1.227v-2.682h2.841c.921 0 1.477.551 1.477 1.454 0 .762-.556 1.228-1.477 1.228h-2.841zm0-3.841V379.5h2.296c1.074 0 1.727.449 1.727 1.182 0 .778-.653 1.25-1.727 1.25h-2.296zm11.371 5.25c1.773 0 3.068-.887 3.477-2.205l-1.295-.363c-.341.909-1.131 1.363-2.182 1.363-1.574 0-2.659-1.017-2.722-2.886h6.336v-.568c0-3.25-1.932-4.364-3.75-4.364-2.364 0-3.932 1.864-3.932 4.546 0 2.681 1.545 4.477 4.068 4.477zm-2.722-5.25c.091-1.358 1.052-2.568 2.586-2.568 1.454 0 2.386 1.091 2.386 2.568h-4.972zm11.944 7.568h1.34V387h6.455v2.5h1.341v-3.75h-1.341v-7.477h-5.545l-.296 3.454c-.21 2.443-.523 3.284-1.227 4.023h-.727v3.75zm2.25-3.75c.613-.807.835-2.199 1.022-4.023l.228-2.204h2.954v6.227h-4.204zm12.325 1.432c1.773 0 3.068-.887 3.477-2.205l-1.295-.363c-.341.909-1.131 1.363-2.182 1.363-1.574 0-2.659-1.017-2.722-2.886h6.336v-.568c0-3.25-1.932-4.364-3.75-4.364-2.364 0-3.932 1.864-3.932 4.546 0 2.681 1.545 4.477 4.068 4.477zm-2.722-5.25c.091-1.358 1.051-2.568 2.586-2.568 1.454 0 2.386 1.091 2.386 2.568h-4.972zm8.375 8.341h1.341v-4.614h.114c.295.477.863 1.523 2.545 1.523 2.182 0 3.705-1.75 3.705-4.523 0-2.75-1.523-4.5-3.727-4.5-1.705 0-2.228 1.046-2.523 1.5h-.159v-1.386h-1.296v12zm1.318-7.637c0-1.954.864-3.272 2.5-3.272 1.705 0 2.546 1.431 2.546 3.272 0 1.864-.864 3.341-2.546 3.341-1.613 0-2.5-1.363-2.5-3.341zm12.091 4.546c1.773 0 3.069-.887 3.478-2.205l-1.296-.363c-.341.909-1.13 1.363-2.182 1.363-1.574 0-2.659-1.017-2.721-2.886h6.335v-.568c0-3.25-1.932-4.364-3.75-4.364-2.364 0-3.932 1.864-3.932 4.546 0 2.681 1.546 4.477 4.068 4.477zm-2.721-5.25c.091-1.358 1.051-2.568 2.585-2.568 1.455 0 2.386 1.091 2.386 2.568h-4.971zM216.79 387h4.113c1.773 0 2.841-1 2.841-2.341 0-1.369-1.039-2.108-2-2.25.983-.204 1.682-.756 1.682-1.818 0-1.392-1.193-2.318-3.068-2.318h-3.568V387zm1.272-1.227v-2.682h2.841c.921 0 1.478.551 1.478 1.454 0 .762-.557 1.228-1.478 1.228h-2.841zm0-3.841V379.5h2.296c1.074 0 1.727.449 1.727 1.182 0 .778-.653 1.25-1.727 1.25h-2.296zm10.28 5.273c1.523 0 2.319-.819 2.591-1.387h.068V387h1.341v-5.75c0-2.773-2.113-3.091-3.227-3.091-1.318 0-2.818.455-3.5 2.046l1.273.454c.295-.636.994-1.318 2.273-1.318 1.232 0 1.84.653 1.84 1.773v.045c0 .648-.659.591-2.25.796-1.619.21-3.386.568-3.386 2.568 0 1.704 1.318 2.682 2.977 2.682zm.205-1.205c-1.068 0-1.841-.477-1.841-1.409 0-1.023.932-1.341 1.977-1.477.568-.069 2.091-.228 2.318-.5v1.227c0 1.091-.863 2.159-2.454 2.159zm14.288 1.182c1.932 0 3.205-1.182 3.432-2.727h-1.341c-.25.954-1.045 1.522-2.091 1.522-1.591 0-2.613-1.318-2.613-3.341 0-1.977 1.045-3.272 2.613-3.272 1.182 0 1.887.727 2.091 1.522h1.341c-.227-1.636-1.614-2.727-3.455-2.727-2.363 0-3.931 1.864-3.931 4.523 0 2.613 1.5 4.5 3.954 4.5zm9.892-.182h1.341v-3.682h1.205l2.863 3.682h1.728l-3.569-4.523 3.523-4.204h-1.727l-3.136 3.795h-.887v-3.795h-1.341V387zm7.821 0h.455c1.932 0 2.488-1.5 2.613-4.364l.137-3.113h3.204V387h1.341v-8.727h-5.818l-.159 3.863c-.114 2.932-.409 3.614-1.455 3.614h-.318V387zm10.915-8.727h-1.341V387h1.341v-3.659h2.239c.238 2.335 1.755 3.841 3.92 3.841 2.364 0 3.955-1.796 3.955-4.5 0-2.727-1.591-4.523-3.955-4.523-2.187 0-3.716 1.54-3.926 3.932h-2.233v-3.818zm6.159 7.704c-1.795 0-2.613-1.545-2.613-3.295s.818-3.318 2.613-3.318c1.796 0 2.614 1.568 2.614 3.318s-.818 3.295-2.614 3.295zm12.864-7.704h-1.341v4.426a7.378 7.378 0 01-2.114.301c-1.091 0-1.932-.614-1.932-1.955v-2.795h-1.34v2.795c0 2.137 1.295 3.205 3.272 3.205.824 0 1.483-.108 2.114-.295V387h1.341v-8.727zm6.005 8.909c2.364 0 3.955-1.796 3.955-4.5 0-2.727-1.591-4.523-3.955-4.523-2.363 0-3.954 1.796-3.954 4.523 0 2.704 1.591 4.5 3.954 4.5zm0-1.205c-1.795 0-2.613-1.545-2.613-3.295s.818-3.318 2.613-3.318c1.796 0 2.614 1.568 2.614 3.318s-.818 3.295-2.614 3.295zm10.775-.795l-3-6.909h-1.773V387h1.341v-6.801L306.72 387h1.091l2.886-6.676V387h1.341v-8.727h-1.727l-3.045 6.909zM7.091 394.364H5.43l3.75 5.818L5.432 406h1.66l3-4.75h.09l3 4.75h1.66l-3.66-5.818 3.66-5.818h-1.66l-3 4.841h-.09l-3-4.841zm10.38 11.727c.562 0 1.022-.46 1.022-1.023 0-.562-.46-1.023-1.023-1.023-.562 0-1.023.461-1.023 1.023 0 .563.46 1.023 1.023 1.023z" fill="#000"/></svg>