<svg xmlns="http://www.w3.org/2000/svg" width="512" height="512"><path d="M256 0C187.887 0 123.672 26.703 75.187 75.188S0 187.887 0 256c0 140.969 115.05 256 256 256 140.969 0 256-115.05 256-256C512 115.031 396.95 0 256 0zm0 482C131.383 482 30 380.617 30 256S131.383 30 256 30s226 101.383 226 226-101.383 226-226 226zm0 0" data-original="#000000" class="active-path" data-old_color="#000000" fill="#FFF"/><path d="M301 226v-90l-120 90v-75H91v210h90v-75l120 90v-90l120 90V136zM151 331h-30V181h30zm120-15l-80-60 80-60zm120 0l-80-60 80-60zm0 0" data-original="#000000" class="active-path" data-old_color="#000000" fill="#FFF"/></svg>