<svg xmlns="http://www.w3.org/2000/svg" width="512" height="512"><path d="M256 0C115.031 0 0 115.05 0 256c0 140.973 115.05 256 256 256 140.969 0 256-115.05 256-256C512 115.027 396.95 0 256 0zm0 482C131.383 482 30 380.617 30 256S131.383 30 256 30s226 101.383 226 226-101.383 226-226 226zm0 0" data-original="#000000" class="active-path" data-old_color="#000000" fill="#FFF"/><path d="M331 151v75l-120-90v90L91 136v240l120-90v90l120-90v75h90V151zM121 316V196l80 60zm120 0V196l80 60zm150 15h-30V181h30zm0 0" data-original="#000000" class="active-path" data-old_color="#000000" fill="#FFF"/></svg>